<svg width="303" height="121" viewBox="0 0 303 121" fill="none" xmlns="http://www.w3.org/2000/svg">
<path d="M34.6102 38.7637C34.9554 39.1075 35.6035 39.4023 36.4559 39.6479L36.5052 39.6619C37.1745 39.8584 37.9705 40.0268 38.851 40.1741C40.2247 40.1741 53.3487 41.1144 55.1168 41.1144C55.1168 41.1144 56.4623 41.1144 56.5046 41.1144H56.5117V41.3951C56.5117 42.7985 57.6529 43.9352 59.0618 43.9352H60.5341C60.5341 45.1001 61.4851 46.0473 62.6545 46.0473H65.261H66.684V80.7253V80.8306H65.2046C61.95 80.8306 59.3083 83.4619 59.3083 86.7038H80.0404C80.0404 83.4549 77.3987 80.8306 74.1441 80.8306H72.7845V46.0473H73.4185H82.4355C82.8723 46.0473 83.2808 45.914 83.626 45.6825V72.319H82.2101C78.9485 72.319 76.3138 74.9503 76.3138 78.1922H97.0458C97.0458 74.9433 94.4041 72.319 91.1496 72.319H89.7336V43.1353H96.9824C98.1166 43.1353 99.0394 42.2441 99.0887 41.1214C99.1451 41.1214 99.1944 41.1214 99.2508 41.1214C99.5114 41.1214 100.216 41.1214 101.195 41.1144C102.174 43.7809 104.731 45.6895 107.746 45.6895C110.79 45.6895 113.368 43.7458 114.326 41.0442C115.164 41.0372 115.756 41.0372 115.967 41.0372C116.665 41.0162 117.341 40.9951 117.996 40.967H118.003C121.772 40.8057 124.689 40.532 125.027 40.0619C125.027 40.0619 125.027 39.4794 125.027 38.6514C125.027 37.9497 125.027 37.0656 125.027 36.2236C125.027 34.8903 125.027 33.6483 125.027 33.3396C125.027 33.0028 124.548 32.2239 124.548 32.2239C124.548 32.2239 124.534 30.4556 123.456 29.1013C123.435 28.8277 123.075 27.9646 122.089 27.2348C120.962 26.3998 107.57 22.786 106.126 22.4001C106.112 22.379 106.105 22.372 106.105 22.372C106.105 22.372 103.837 21.8317 103.337 21.6002C100.434 20.2739 94.9677 17.1233 89.7266 14.7165V4.83656H83.6331V4.90673V12.3307C83.3302 12.2395 83.0202 12.1483 82.7243 12.0711C80.4912 11.5027 76.8915 11.3694 72.7915 11.4817V8.1556H68.2267H66.698V11.7834C56.2369 12.5061 45.2052 14.1271 45.2052 14.1271L45.1629 14.1762C43.3666 14.1902 40.8658 14.2393 40.9433 14.4358C41.0489 14.7095 42.5142 15.8532 43.3314 16.176L38.52 21.4177L38.4143 21.6352C37.7028 21.5861 36.9349 21.5581 36.153 21.5581C34.6807 21.5581 33.8565 22.9264 33.6733 24.7297C33.4972 26.477 33.5324 29.2978 33.772 30.4205V30.4275C33.7931 30.5117 33.8072 30.5889 33.8283 30.6521C33.8283 30.6591 33.8354 30.6661 33.8354 30.6731C33.8565 30.7293 33.8776 30.7714 33.8988 30.8064C33.8988 30.8064 33.8988 30.8135 33.9058 30.8205V30.8275L32.7153 33.094C32.7012 33.094 32.0954 36.2516 34.6102 38.7637Z" fill="#D3D9E0"/>
<path d="M288.953 10.366L289.023 10.0993L224.587 2.0859L224.488 2.35255L258.499 10.3589L258.633 10.0993L227.01 2.65428L288.953 10.366Z" fill="#D3D9E0"/>
<path d="M216.165 11.0375L289.943 11.0375V9.43059L216.165 9.43059V11.0375Z" fill="#D3D9E0"/>
<path d="M216.169 10.2326H220.057L224.967 9.42567L226.059 10.2326H289.946V11.0326H216.169V10.2326Z" fill="#D3D9E0"/>
<path d="M220.081 70.6265H224.97V1.50217H220.081V70.6265Z" fill="#D3D9E0"/>
<path d="M221.466 1.49648H220.078V70.6208H224.967C224.967 70.6208 221.466 59.8217 221.466 56.7833C221.466 44.1668 221.466 1.49648 221.466 1.49648Z" fill="#D3D9E0"/>
<path d="M213.161 76.066H245.354L240.155 71.491C239.535 70.9436 238.57 70.6209 237.542 70.6209H216.451C214.633 70.6209 213.161 71.6103 213.161 72.8382V76.066Z" fill="#D3D9E0"/>
<path d="M220.255 2.0859H224.784C225.432 2.0859 225.968 1.72803 225.968 1.29298C225.968 0.857928 225.439 0.500061 224.784 0.500061H220.255C219.606 0.500061 219.071 0.857928 219.071 1.29298C219.078 1.72803 219.606 2.0859 220.255 2.0859Z" fill="#D3D9E0"/>
<path d="M269.396 13.5766H270.481V11.0365H269.396V13.5766Z" fill="#D3D9E0"/>
<path d="M235.189 21.0949C235.069 20.9265 234.956 20.7441 234.851 20.5616C233.449 21.9721 231.019 23.4526 227.003 23.4526C226.961 23.4526 226.912 23.4526 226.862 23.4526C220.029 23.3965 216.267 20.6318 216.267 15.6778C216.267 11.2711 219.916 10.6536 220.064 10.6326V11.4045C219.945 11.4255 217.324 11.8957 217.324 15.6848C217.324 18.8705 218.979 22.6737 226.869 22.7439C226.912 22.7439 226.954 22.7439 226.996 22.7439C230.885 22.7439 233.139 21.2072 234.421 19.6705C234.048 18.7162 233.843 17.6356 233.843 16.5409C233.843 14.8498 234.358 12.871 235.802 12.871C236.034 12.871 236.478 12.9272 236.809 13.3201C237.626 14.2814 237.492 17.2566 235.548 19.7617C236.182 21.2142 237.485 22.8281 240.162 22.8281C242.903 22.8281 245.065 21.1019 246.411 19.1232C245.784 17.7619 245.474 16.3374 245.474 15.2287C245.474 14.5691 245.58 14.0288 245.791 13.6288C246.164 12.9272 246.819 12.8219 247.172 12.8219C247.806 12.8219 248.327 13.0675 248.637 13.5096C248.883 13.8604 249.003 14.3376 249.003 14.927C249.003 16.1129 248.489 17.6847 247.538 19.1582C248.531 21.1511 250.194 22.8211 252.286 22.8211C254.498 22.8211 256.365 21.0388 257.541 18.9968C257.133 17.7338 256.921 16.4356 256.921 15.4673C256.921 13.7973 257.464 12.9482 258.542 12.9482C258.837 12.9482 259.387 13.0254 259.697 13.5657C259.866 13.8534 259.95 14.2463 259.95 14.7375C259.95 15.9234 259.493 17.5373 258.647 19.053C258.795 19.488 258.964 19.902 259.154 20.295C259.901 21.8457 260.88 22.8141 261.704 22.8141C263.036 22.8141 263.86 20.9406 263.86 17.9303C263.86 13.9516 266.283 12.0921 267.925 12.0921C269.538 12.0921 270.299 13.0815 270.461 13.5657H269.376C269.362 13.5306 269.108 12.8079 267.925 12.8079C267.072 12.8079 264.924 14.3305 264.924 17.9303C264.924 20.4844 264.367 23.5298 261.704 23.5298C260.042 23.5298 258.781 21.9861 257.978 20.1336C256.647 22.0142 254.695 23.5298 252.293 23.5298C249.827 23.5298 248.031 21.958 246.904 20.0494C245.375 21.9721 243.065 23.5298 240.162 23.5298C238.035 23.5368 236.309 22.6948 235.189 21.0949ZM235.182 18.6109C235.471 18.1338 235.668 17.6987 235.795 17.3549C236.577 15.2849 236.182 13.7131 235.837 13.5797C235.288 13.706 234.506 15.9515 235.182 18.6109ZM246.812 13.8744C246.643 14.1902 246.559 14.6603 246.559 15.2287C246.559 16.0848 246.742 17.0672 247.087 18.0285C247.665 16.9058 247.968 15.7901 247.968 14.927C247.968 14.4498 247.876 14.0639 247.7 13.8113C247.503 13.5306 247.291 13.5306 247.2 13.5306C247.003 13.5376 246.855 13.7902 246.812 13.8744ZM258.006 15.4743C258.006 16.1199 258.098 16.8496 258.26 17.5935C258.682 16.562 258.915 15.5445 258.915 14.7446C258.915 14.2463 258.816 13.9727 258.739 13.8323C258.682 13.7341 258.612 13.6639 258.57 13.6639C258.415 13.671 258.006 14.099 258.006 15.4743Z" fill="#D3D9E0"/>
<path d="M258.023 13.5766H259.107V11.0365H258.023V13.5766Z" fill="#D3D9E0"/>
<path d="M246.649 13.5766H247.734V11.0365H246.649V13.5766Z" fill="#D3D9E0"/>
<path d="M235.276 13.5766H236.361V11.0365H235.276V13.5766Z" fill="#D3D9E0"/>
<path d="M270.475 13.5727H269.39V54.9309H270.475V13.5727Z" fill="#D3D9E0"/>
<path d="M302.401 90.8228C302.401 93.5945 290.784 95.8399 276.456 95.8399C262.127 95.8399 250.511 93.5945 250.511 90.8228C250.511 88.0511 262.127 86.3459 276.456 86.3459C290.777 86.3459 302.401 88.0511 302.401 90.8228Z" fill="#D3D5D3"/>
<path d="M283.775 40.6583C284.296 39.0514 280.88 38.2304 279.189 37.9147C277.498 37.5989 272.49 37.1779 272.49 37.1779L272.053 38.9812C272.053 38.9812 276.167 41.0372 280.781 42.1529C281.253 42.2722 283.24 42.3003 283.775 40.6583Z" fill="#FFA47C"/>
<path d="M272.722 37.1989L270.228 37.0726C270.228 37.0726 269.32 38.1532 269.242 38.4339C269.165 38.7216 269.298 40.0127 269.305 40.1952C269.313 40.3776 269.446 40.6162 269.538 40.5881C269.63 40.5671 269.735 39.8513 270.524 39.6058C271.32 39.3672 271.989 39.2549 272.419 38.9742C273.363 38.3497 272.722 37.1989 272.722 37.1989Z" fill="#9A9393"/>
<path d="M270.031 37.7533L270.073 41.2267L270.573 41.2197V41.0513C270.573 41.0513 270.503 41.0232 270.454 40.8828C270.404 40.7425 270.566 40.4969 270.566 40.3776C270.566 40.2583 270.538 38.1603 270.538 38.0339C270.538 37.9076 270.376 37.7533 270.031 37.7533Z" fill="#1C5C92"/>
<path d="M269.531 38.048C269.531 38.1743 269.559 40.2724 269.559 40.3917C269.559 40.5109 269.728 40.7495 269.679 40.8899C269.637 41.0302 269.566 41.0583 269.566 41.0583V41.2267L270.066 41.2197L270.024 37.7462C269.693 37.7603 269.531 37.9217 269.531 38.048Z" fill="#1C5C92"/>
<path d="M270.174 41.2428L270.061 41.2442L270.101 44.3945L270.214 44.3931L270.174 41.2428Z" fill="#596273"/>
<path d="M270.065 41.239L269.952 41.2402L269.986 44.3905L270.099 44.3893L270.065 41.239Z" fill="#7E908D"/>
<path d="M270.109 44.6299H270.243L270.328 43.9984L270.102 43.7388L270.109 44.6299Z" fill="#596273"/>
<path d="M269.982 44.6369L270.109 44.6299L270.102 43.7388L269.876 43.9984L269.982 44.6369Z" fill="#7E908D"/>
<path d="M270.355 37.9989C270.306 37.9989 270.271 38.041 270.271 38.0831L270.299 40.2443C270.299 40.2934 270.341 40.3285 270.384 40.3285C270.433 40.3285 270.468 40.2864 270.468 40.2443L270.44 38.0831C270.44 38.041 270.405 37.9989 270.355 37.9989Z" fill="#00233F"/>
<path d="M270.038 38.0059C269.989 38.0059 269.954 38.048 269.954 38.0901L269.982 40.2513C269.982 40.3004 270.024 40.3355 270.067 40.3355C270.116 40.3355 270.151 40.2934 270.151 40.2513L270.13 38.0901C270.123 38.041 270.081 38.0059 270.038 38.0059Z" fill="#00233F"/>
<path d="M269.707 38.0059C269.658 38.0059 269.622 38.048 269.622 38.0901L269.651 40.2513C269.651 40.3004 269.693 40.3355 269.736 40.3355C269.785 40.3355 269.82 40.2934 269.82 40.2513L269.792 38.0901C269.792 38.048 269.757 38.0059 269.707 38.0059Z" fill="#00233F"/>
<path d="M271.553 37.7462C271.553 37.7462 270.39 38.1883 270.376 38.4199C270.355 38.6514 270.031 39.9285 269.989 40.0689C269.947 40.2092 269.89 40.4057 270.327 40.1811C270.757 39.9566 270.855 39.3531 271.024 39.3391C271.193 39.3251 271.912 39.5566 272.454 39.2198C272.997 38.883 273.004 38.3848 272.976 38.1813C272.94 37.9708 271.891 37.3743 271.553 37.7462Z" fill="#9A9393"/>
<path d="M272.454 39.2058L275.11 40.3285L275.871 37.5007L272.588 37.1919L272.454 39.2058Z" fill="#9A9393"/>
<path d="M263.522 62.1724H259.957V65.3721H263.522V62.1724Z" fill="#535353"/>
<path d="M277.16 62.1724H273.596V65.3721H277.16V62.1724Z" fill="#535353"/>
<path d="M277.815 65.3721H257.745V66.8457H277.815V65.3721Z" fill="#A39D9D"/>
<path d="M258.45 66.8457V77.8694H264.846L276.639 66.8457H258.45Z" fill="#303030"/>
<path d="M267.544 81.02H258.45V90.6122H267.544V81.02Z" fill="#535353"/>
<path d="M263.909 77.8694H258.45V81.027H263.909V77.8694Z" fill="#A39D9D"/>
<path d="M259.957 62.1724H263.522V63.3934L261.183 65.3721H259.957V62.1724Z" fill="#424242"/>
<path d="M273.596 62.1724H277.16V63.3934L274.821 65.3721H273.596V62.1724Z" fill="#424242"/>
<path d="M276.639 66.8457H258.45V68.5789H274.779L276.639 66.8457Z" fill="#1C1C1C"/>
<path d="M263.909 77.8694H258.45V81.02H259.654L263.909 77.8694Z" fill="#7F7F7F"/>
<path d="M272.983 90.6123H256.28V91.342H272.983V90.6123Z" fill="#191919"/>
<path d="M279.252 61.3795H257.619V62.1654H279.252V61.3795Z" fill="#191919"/>
<path d="M277.632 61.3795H259.605C258.964 61.3795 258.45 60.8672 258.45 60.2287H278.787C278.787 60.8672 278.266 61.3795 277.632 61.3795Z" fill="#303030"/>
<path d="M279.288 60.2287H257.189V47.8437C257.189 47.135 257.767 46.5666 258.471 46.5666H277.998C278.71 46.5666 279.281 47.142 279.281 47.8437V60.2287H279.288Z" fill="#B8B3B3"/>
<path d="M257.562 60.2287H279.28V51.8925H256.47V59.1411C256.47 59.7445 256.963 60.2287 257.562 60.2287Z" fill="#303030"/>
<path d="M276.512 43.8721H269.059V46.5596H276.512V43.8721Z" fill="#9A9393"/>
<path d="M274.427 48.6647H276.977C277.153 48.6647 277.301 48.5173 277.301 48.3419C277.301 48.1665 277.153 48.0191 276.977 48.0191H274.427C274.251 48.0191 274.103 48.1665 274.103 48.3419C274.103 48.5243 274.251 48.6647 274.427 48.6647Z" fill="#535353"/>
<path d="M269.996 48.6647H272.546C272.722 48.6647 272.87 48.5173 272.87 48.3419C272.87 48.1665 272.722 48.0191 272.546 48.0191H269.996C269.82 48.0191 269.672 48.1665 269.672 48.3419C269.672 48.5243 269.82 48.6647 269.996 48.6647Z" fill="#535353"/>
<path d="M265.565 48.6647H268.115C268.291 48.6647 268.439 48.5173 268.439 48.3419C268.439 48.1665 268.291 48.0191 268.115 48.0191H265.565C265.389 48.0191 265.241 48.1665 265.241 48.3419C265.241 48.5243 265.382 48.6647 265.565 48.6647Z" fill="#535353"/>
<path d="M261.127 48.6647H263.677C263.853 48.6647 264.001 48.5173 264.001 48.3419C264.001 48.1665 263.853 48.0191 263.677 48.0191H261.127C260.951 48.0191 260.803 48.1665 260.803 48.3419C260.803 48.5243 260.951 48.6647 261.127 48.6647Z" fill="#535353"/>
<path d="M279.288 50.2154H257.189V51.8925H279.288V50.2154Z" fill="#A39D9D"/>
<path d="M279.288 57.5692H256.47V59.113C256.47 59.7305 256.971 60.2357 257.597 60.2357H279.288V57.5692Z" fill="#191919"/>
<path d="M279.288 52.1872H256.47V53.3941H279.288V52.1872Z" fill="#535353"/>
<path d="M273.018 52.0328C273.018 52.91 272.306 53.6187 271.426 53.6187C270.545 53.6187 269.827 52.91 269.827 52.0328C269.827 51.1557 270.538 50.447 271.426 50.447C272.306 50.447 273.018 51.1557 273.018 52.0328Z" fill="#A39D9D"/>
<path d="M275.674 53.6187C276.553 53.6187 277.266 52.9087 277.266 52.0328C277.266 51.157 276.553 50.447 275.674 50.447C274.795 50.447 274.082 51.157 274.082 52.0328C274.082 52.9087 274.795 53.6187 275.674 53.6187Z" fill="#A39D9D"/>
<path d="M275.674 62.404C276.392 62.404 276.984 61.8145 276.984 61.0988V51.9907C276.984 51.275 276.392 50.6856 275.674 50.6856C274.955 50.6856 274.363 51.275 274.363 51.9907V61.1058C274.363 61.8215 274.948 62.404 275.674 62.404Z" fill="#B8B3B3"/>
<path d="M271.426 62.404C272.144 62.404 272.736 61.8145 272.736 61.0988V51.9907C272.736 51.275 272.144 50.6856 271.426 50.6856C270.707 50.6856 270.116 51.275 270.116 51.9907V61.1058C270.116 61.8215 270.707 62.404 271.426 62.404Z" fill="#B8B3B3"/>
<path d="M264.522 52.0328C264.522 52.91 263.811 53.6187 262.923 53.6187C262.043 53.6187 261.331 52.91 261.331 52.0328C261.331 51.1557 262.043 50.447 262.923 50.447C263.811 50.447 264.522 51.1557 264.522 52.0328Z" fill="#A39D9D"/>
<path d="M268.77 52.0328C268.77 52.91 268.059 53.6187 267.178 53.6187C266.298 53.6187 265.586 52.91 265.586 52.0328C265.586 51.1557 266.298 50.447 267.178 50.447C268.059 50.447 268.77 51.1557 268.77 52.0328Z" fill="#A39D9D"/>
<path d="M267.178 62.404C267.897 62.404 268.488 61.8145 268.488 61.0988V51.9907C268.488 51.275 267.897 50.6856 267.178 50.6856C266.46 50.6856 265.868 51.275 265.868 51.9907V61.1058C265.868 61.8215 266.46 62.404 267.178 62.404Z" fill="#B8B3B3"/>
<path d="M262.93 62.404C263.649 62.404 264.24 61.8145 264.24 61.0988V51.9907C264.24 51.275 263.649 50.6856 262.93 50.6856C262.212 50.6856 261.62 51.275 261.62 51.9907V61.1058C261.62 61.8215 262.212 62.404 262.93 62.404Z" fill="#B8B3B3"/>
<path d="M278.787 47.3525H257.745V47.5911H278.787V47.3525Z" fill="#A39D9D"/>
<path d="M276.42 44.6369H269.263C268.608 44.6369 268.073 44.1036 268.073 43.4511V43.1493H277.618V43.4511C277.611 44.1036 277.076 44.6369 276.42 44.6369Z" fill="#535353"/>
<path d="M271.644 61.6601H271.75C272.067 61.6601 272.328 61.4005 272.328 61.0848V52.3837C272.328 52.0679 272.067 51.8083 271.75 51.8083H271.644C271.327 51.8083 271.067 52.0679 271.067 52.3837V61.0848C271.067 61.4005 271.327 61.6601 271.644 61.6601Z" fill="#D7D4D4"/>
<path d="M275.956 61.6601H276.061C276.378 61.6601 276.639 61.4005 276.639 61.0848V52.3837C276.639 52.0679 276.378 51.8083 276.061 51.8083H275.956C275.639 51.8083 275.378 52.0679 275.378 52.3837V61.0848C275.378 61.4005 275.639 61.6601 275.956 61.6601Z" fill="#D7D4D4"/>
<path d="M267.558 61.6601H267.664C267.981 61.6601 268.242 61.4005 268.242 61.0848V52.3837C268.242 52.0679 267.981 51.8083 267.664 51.8083H267.558C267.241 51.8083 266.981 52.0679 266.981 52.3837V61.0848C266.981 61.4005 267.241 61.6601 267.558 61.6601Z" fill="#D7D4D4"/>
<path d="M263.233 61.6601H263.339C263.656 61.6601 263.916 61.4005 263.916 61.0848V52.3837C263.916 52.0679 263.656 51.8083 263.339 51.8083H263.233C262.916 51.8083 262.655 52.0679 262.655 52.3837V61.0848C262.655 61.4005 262.916 61.6601 263.233 61.6601Z" fill="#D7D4D4"/>
<path d="M256.09 52.938H254.477V59.8919H256.09V52.938Z" fill="#191919"/>
<path d="M256.47 53.8432H256.09V59.1411H256.47V53.8432Z" fill="#191919"/>
<path d="M291.404 34.0974C292.574 35.1429 292.052 36.4271 290.946 37.5077C289.84 38.5883 283.014 42.9388 282.521 42.8757C282.021 42.8195 280.549 41.1004 280.83 40.4408C281.119 39.7812 286.346 35.2061 287.417 34.4763C288.481 33.7395 290.03 32.8694 291.404 34.0974Z" fill="#FFA47C"/>
<path d="M290.059 33.9711C289.467 33.8869 287.001 34.3851 286.184 35.178C285.029 36.3078 282.655 38.2866 282.655 38.2866C282.655 38.2866 282.951 39.4724 283.93 40.5039C285.071 41.7038 286.212 41.9635 286.212 41.9635C286.212 41.9635 291.115 37.7813 291.58 36.5463C291.728 36.1815 291.707 34.2097 290.059 33.9711Z" fill="#9A9393"/>
<path d="M293.236 28.0277C293.236 28.0277 293.433 32.5467 293.694 32.7712C294.518 33.4519 297.498 34.0273 298.054 35.2131C298.73 36.6516 295.018 43.1072 294.539 45.2404C294.053 47.3736 295.06 50.6786 295.377 52.7766C295.701 54.8677 289.086 57.4008 288.847 57.4008C288.607 57.4008 286.48 55.4221 286.071 54.7344C285.67 54.0467 286.064 48.6857 286.064 47.3174C286.064 45.9491 285.747 41.1495 285.684 40.8337C285.268 38.7357 285.811 37.0867 285.895 36.6446C285.973 36.2025 285.952 35.4587 286.177 35.178C286.621 34.6167 289.094 33.8729 289.136 33.5922C289.178 33.3115 289.516 29.382 289.516 29.382L293.236 28.0277Z" fill="#FFBD95"/>
<path d="M293.701 32.7712L289.713 35.1359L289.143 33.5922C289.143 33.5922 286.522 34.6167 286.184 35.178C285.846 35.7394 285.684 36.9674 285.571 37.4164C285.459 37.8726 285.395 39.9636 285.571 41.781C285.677 42.8476 285.649 44.251 285.811 46.0614C285.952 47.6121 285.776 51.4715 285.776 51.4715C285.776 51.4715 287.262 51.5346 289.566 51.4224C292.228 51.2961 294.919 50.8891 295.039 50.7908C295.553 50.3698 294.842 46.2579 294.941 45.8018C295.032 45.3457 298.315 37.4726 298.364 36.4411C298.421 35.4096 297.885 34.7289 297.103 34.336C296.314 33.9501 293.701 32.7712 293.701 32.7712Z" fill="#B8B3B3"/>
<path d="M296.709 34.1465C296.709 34.1465 299.308 35.578 296.73 37.5638C295.617 38.4199 290.298 39.7461 289.298 40.0478C285.719 41.1355 291.235 49.0366 291.658 49.633C292.08 50.2295 292.073 51.0435 292.073 51.0435L294.793 50.861C295.863 51.0715 294.955 45.7597 295.363 44.658C295.772 43.5563 298.364 37.2621 298.364 36.4341C298.364 34.5956 296.709 34.1465 296.709 34.1465Z" fill="#A39D9D"/>
<path d="M289.375 31.0871L293.405 29.6416L293.496 32.0204L292.257 32.7712L289.375 31.0871Z" fill="#FFA47C"/>
<path d="M287.875 24.0631C288.748 23.0106 291.594 21.7616 293.306 23.5018C295.025 25.242 294.652 27.2418 294.032 28.5259C293.546 29.5294 293.024 30.1258 291.918 30.8135C291.693 30.9538 289.573 31.6274 289.115 31.5362C288.805 31.4731 288.276 29.3539 288.192 29.368C288.107 29.389 287.847 29.2908 287.811 29.1224C287.755 28.8698 287.818 27.2839 287.734 27.1295C287.649 26.9752 286.867 25.27 287.875 24.0631Z" fill="#FFBD95"/>
<path d="M287.403 25.1087C287.403 25.1087 288.931 23.9508 291.249 25.5437C291.749 25.8875 291.151 27.712 291.277 27.8523C291.418 27.9997 292.743 26.3717 292.707 26.5752C292.383 28.6382 293.186 29.6416 293.37 29.6276C293.926 29.5855 295.236 26.5612 294.081 24.414C292.926 22.2668 290.46 22.372 289.897 22.5755C289.333 22.772 287.593 23.1439 287.403 25.1087Z" fill="#8D3B26"/>
<path d="M291.806 27.1436C291.7 27.8032 291.728 28.6663 292.08 28.7224C292.44 28.7785 292.813 28.2874 292.919 27.6278C293.024 26.9682 292.82 26.3928 292.468 26.3366C292.109 26.2805 291.911 26.484 291.806 27.1436Z" fill="#FFBD95"/>
<path d="M289.148 89.7281H291.726V89.2509H289.148V89.7281Z" fill="#191919"/>
<path d="M291.623 85.8758C291.961 86.3459 292.186 87.2581 292.221 87.6792C292.264 88.1844 291.961 89.251 291.623 89.251C290.65 89.251 289.481 89.2931 288.481 89.4264C287.473 89.5597 287.1 90.1351 284.529 90.1281C283.782 90.1281 282.458 90.079 282.458 89.7772C282.458 88.451 284.923 88.9212 285.705 88.2054C287.685 86.388 289.002 85.946 289.002 85.946C289.002 85.946 291.552 85.7776 291.623 85.8758Z" fill="#191919"/>
<path d="M292.602 90.6123L295.173 90.4509L295.145 89.9597L292.574 90.1211L292.602 90.6123Z" fill="#191919"/>
<path d="M294.821 86.4863C295.187 86.9494 295.476 87.8756 295.539 88.3037C295.61 88.8229 295.384 89.9386 295.046 89.9597C294.074 90.0228 292.912 90.1351 291.918 90.3386C290.925 90.5421 290.587 91.1596 288.023 91.314C287.276 91.3561 285.931 91.3982 285.931 91.0824C285.931 89.4895 288.333 90.0509 289.065 89.258C290.918 87.2581 292.207 86.7248 292.207 86.7248C292.207 86.7248 294.743 86.3951 294.821 86.4863Z" fill="#191919"/>
<path d="M290.446 51.1557C290.446 51.1557 293.835 54.3063 293.989 55.7939C294.144 57.2815 292.7 62.0531 292.186 65.8072C291.672 69.5613 291.355 70.3191 291.489 71.2033C291.615 72.0874 292.736 75.6801 292.595 78.0659C292.454 80.4517 291.968 86.6968 291.968 86.6968C291.968 86.6968 291.256 87.0196 290.023 87.1318C288.791 87.2511 287.931 86.1916 287.931 86.1916C287.931 86.1916 286.938 72.2418 286.783 70.7682C286.684 69.8139 285.902 63.246 285.663 57.885C285.585 56.1588 285.783 52.1732 285.783 51.4645L290.446 51.1557Z" fill="#00233F"/>
<path d="M295.265 50.84C295.265 50.84 296.117 53.0714 296.096 54.9168C296.075 56.4185 295.645 59.1621 295.131 62.9162C294.616 66.6703 294.567 70.1577 294.701 71.0419C294.828 71.926 295.891 75.6801 295.877 78.0729C295.863 80.8867 296.103 87.3494 296.103 87.3494C296.103 87.3494 294.983 87.7142 293.75 87.8335C292.517 87.9528 290.869 87.595 290.869 87.595C290.869 87.595 289.699 72.747 289.143 71.3717C288.255 69.1754 288.121 62.2636 287.501 57.5482C287.255 55.6466 286.79 51.4013 286.79 51.4013L295.265 50.84Z" fill="#002D56"/>
<path d="M293.736 50.44L295.483 44.3492C295.483 44.3492 296.082 49.7734 295.335 50.3347C294.588 50.8891 293.736 50.44 293.736 50.44Z" fill="#002D56"/>
<path d="M289.89 34.1957L289.714 35.1359L291.813 33.901L289.89 34.1957Z" fill="#A39D9D"/>
<path d="M294.243 33.0098L293.496 32.0204L289.89 34.1957L290.46 35.4798L294.243 33.0098Z" fill="#D7D4D4"/>
<path d="M289.713 35.1359L289.382 33.9711L288.875 34.3641L289.713 35.1359Z" fill="#A39D9D"/>
<path d="M289.382 33.9711L288.523 34.9465L288.389 33.9009L289.108 33.2203L289.382 33.9711Z" fill="#CFCCCC"/>
<path d="M285.804 50.84C284.522 49.5208 285.466 38.9181 285.466 38.9181L290.96 39.3391L292.123 50.5172C292.123 50.5102 287.1 52.1732 285.804 50.84Z" fill="#002D56"/>
<path d="M285.599 50.5101L285.769 51.9416C285.769 51.9416 289.157 52.1802 292.355 51.9416C295.553 51.703 295.483 51.4855 295.483 51.4855L295.335 50.3277C295.335 50.3277 294.356 50.4189 292.123 50.5101C289.946 50.5944 285.599 50.5101 285.599 50.5101Z" fill="#004877"/>
<path d="M292.123 50.5102L292.891 55.2466L293.736 50.44L292.123 50.5102Z" fill="#00233F"/>
<path d="M290.96 39.3321C291.094 38.2936 292.714 33.9009 295.715 33.9711C296.025 33.9781 296.716 34.1465 296.716 34.1465L294.99 33.3536C294.99 33.3536 294.306 33.087 292.954 34.0834C291.601 35.0798 289.974 37.4094 289.777 39.2409C289.566 41.0723 290.798 40.5741 290.96 39.3321Z" fill="#002D56"/>
<path d="M285.459 38.9111C285.459 38.9111 285.719 35.1359 287.03 34.5535C287.593 34.3009 287.84 34.1465 287.84 34.1465C287.84 34.1465 286.867 35.9639 286.649 37.4726C286.431 38.9812 286.367 40.0619 285.867 40.0478C285.374 40.0338 285.459 38.9111 285.459 38.9111Z" fill="#002D56"/>
<path d="M297.181 35.585C298.28 36.7077 297.709 37.9287 296.568 38.9111C295.434 39.8934 287.537 44.3703 287.051 44.2791C286.565 44.1808 285.198 42.3775 285.515 41.7459C285.825 41.1144 292.172 36.2937 293.25 35.6552C294.335 35.0166 295.891 34.2728 297.181 35.585Z" fill="#FFBD95"/>
<path d="M297.11 34.7991C296.54 34.6097 294.447 34.743 293.503 35.3815C292.165 36.2867 288.488 38.4129 288.488 38.4129C288.488 38.4129 288.565 39.6268 289.347 40.8197C290.256 42.202 291.334 42.6652 291.334 42.6652C291.334 42.6652 296.906 39.4163 297.582 38.2866C297.779 37.9497 298.688 35.3254 297.11 34.7991Z" fill="#CFCCCC"/>
<path d="M288.093 42.9669C288.361 44.651 284.818 44.9036 283.085 44.9387C281.352 44.9738 276.28 44.5668 276.28 44.5668L276.125 42.7002C276.125 42.7002 280.563 41.3319 285.339 40.9811C285.832 40.953 287.826 41.2547 288.093 42.9669Z" fill="#FFBD95"/>
<path d="M272.997 45.1913C272.948 45.0159 273.053 44.8334 273.229 44.7843L274.603 44.4194C274.779 44.3703 274.962 44.4756 275.012 44.658C275.061 44.8334 274.955 45.0159 274.779 45.065L273.405 45.4299C273.222 45.479 273.039 45.3667 272.997 45.1913Z" fill="#B8B3B3"/>
<path d="M272.778 44.6089C272.729 44.4334 272.835 44.251 273.011 44.2019L274.385 43.837C274.561 43.7879 274.744 43.8931 274.793 44.0756C274.842 44.251 274.737 44.4334 274.561 44.4826L273.187 44.8474C273.011 44.8896 272.828 44.7843 272.778 44.6089Z" fill="#B8B3B3"/>
<path d="M272.602 44.0265C272.553 43.851 272.659 43.6686 272.835 43.6195L274.208 43.2546C274.385 43.2055 274.568 43.3107 274.617 43.4932C274.666 43.6686 274.561 43.851 274.385 43.9002L273.011 44.265C272.828 44.3142 272.645 44.2019 272.602 44.0265Z" fill="#B8B3B3"/>
<path d="M272.483 43.4511C272.433 43.2756 272.539 43.0932 272.715 43.0441L274.089 42.6792C274.265 42.6301 274.448 42.7353 274.497 42.9178C274.547 43.0932 274.441 43.2756 274.265 43.3248L272.891 43.6896C272.715 43.7317 272.532 43.6265 272.483 43.4511Z" fill="#B8B3B3"/>
<path d="M277.435 42.5739C277.435 42.5739 275.11 42.2091 274.652 42.2722C274.194 42.3354 272.581 43.1143 272.581 43.1143C272.581 43.1143 273.264 43.5493 273.314 43.9563C273.363 44.3633 273.398 45.4228 273.398 45.4228C273.398 45.4228 274.955 45.4228 275.645 45.1913C276.336 44.9597 276.956 44.5808 276.956 44.5808L277.435 42.5739Z" fill="#B8B3B3"/>
<path d="M276.477 42.4336L279.168 41.9284L279.288 44.7913L276.716 44.6369L276.477 42.4336Z" fill="#B8B3B3"/>
<path d="M294.342 24.835C294.342 24.835 293.609 21.7966 290.383 22.2036C287.163 22.6106 287.213 25.9437 287.213 25.9437C287.213 25.9437 288.988 26.084 291.383 25.7823C293.778 25.4806 294.342 24.835 294.342 24.835Z" fill="#002D56"/>
<path d="M292.433 25.6069C292.433 25.6069 286.226 27.3401 286.135 27.298C286.043 27.2559 285.621 26.9822 285.43 26.919C285.24 26.8559 284.994 27.0734 284.93 26.9611C284.86 26.8489 287.234 25.663 287.234 25.663C287.234 25.663 288.579 25.8033 289.241 25.8525C289.904 25.9016 292.397 25.3964 292.433 25.6069Z" fill="#004877"/>
<path d="M155.522 107.551C209.387 107.551 253.054 103.69 253.054 98.9274C253.054 94.1645 209.387 90.3035 155.522 90.3035C101.657 90.3035 57.991 94.1645 57.991 98.9274C57.991 103.69 101.657 107.551 155.522 107.551Z" fill="#D3D5D3"/>
<path d="M185.194 113.796C185.194 117.389 172.352 120.294 156.502 120.294C140.658 120.294 127.809 117.382 127.809 113.796C127.809 110.204 140.651 108 156.502 108C172.345 107.993 185.194 110.204 185.194 113.796Z" fill="#D3D5D3"/>
<path d="M57.984 83.2865C57.984 85.3706 45.1418 87.0687 29.2917 87.0687C13.4415 87.0687 0.599335 85.3776 0.599335 83.2865C0.599335 81.2025 13.4415 79.5044 29.2917 79.5044C45.1418 79.5044 57.984 81.1955 57.984 83.2865Z" fill="#D3D5D3"/>
<path d="M70.0371 33.3326C68.6916 34.5325 69.2904 35.999 70.5655 37.241C71.8405 38.476 80.2165 43.8089 80.935 44.1247C81.4633 44.3563 82.992 41.4582 82.5623 40.7565C82.0833 39.9706 75.8277 34.6097 74.609 33.7676C73.3833 32.9256 71.6081 31.9222 70.0371 33.3326Z" fill="#FFA47C"/>
<path d="M71.5799 33.1852C72.2632 33.087 75.0881 33.6553 76.018 34.5746C77.3423 35.8727 80.0615 38.1392 80.0615 38.1392C80.0615 38.1392 79.7234 39.4935 78.5963 40.6794C77.286 42.0547 75.9757 42.3564 75.9757 42.3564C75.9757 42.3564 70.3542 37.5568 69.8258 36.1464C69.6708 35.7254 69.692 33.4589 71.5799 33.1852Z" fill="#9A9393"/>
<path d="M67.9308 26.3717C67.9308 26.3717 67.7054 31.5573 67.4025 31.8099C66.4585 32.5888 63.0419 33.2554 62.4009 34.6097C61.626 36.2586 65.8809 43.6616 66.4374 46.1105C66.9939 48.5594 65.8456 52.3486 65.4723 54.7484C65.0989 57.1482 72.6788 60.0533 72.9606 60.0533C73.2353 60.0533 75.6798 57.7798 76.1377 56.9939C76.6026 56.208 76.1447 50.0541 76.1447 48.4893C76.1447 46.9175 76.511 41.4161 76.5815 41.0583C77.0535 38.6585 76.4336 36.7639 76.342 36.2516C76.2504 35.7464 76.2786 34.8974 76.0179 34.5676C75.5107 33.922 72.6718 33.0659 72.6295 32.7431C72.5802 32.4204 72.1998 27.9225 72.1998 27.9225L67.9308 26.3717Z" fill="#FFBD95"/>
<path d="M67.4096 31.8099L71.9814 34.5255L72.6366 32.7502C72.6366 32.7502 75.6376 33.929 76.025 34.5746C76.4124 35.2201 76.6026 36.6235 76.7295 37.1428C76.8563 37.6621 76.9337 40.0689 76.7295 42.1459C76.6097 43.3669 76.6379 44.9738 76.4547 47.0508C76.2927 48.8261 76.4899 53.2468 76.4899 53.2468C76.4899 53.2468 74.7852 53.317 72.1505 53.1907C69.0932 53.0433 66.0077 52.5802 65.8738 52.4679C65.2821 51.9907 66.0993 47.2683 65.9936 46.7491C65.8879 46.2298 62.1262 37.1989 62.0698 36.0131C62.0064 34.8272 62.6193 34.0483 63.5139 33.6062C64.4086 33.1642 67.4096 31.8099 67.4096 31.8099Z" fill="#B8B3B3"/>
<path d="M63.9507 33.3887C63.9507 33.3887 60.9779 35.0307 63.9296 37.3042C65.2046 38.2866 71.3052 39.8022 72.4535 40.1531C76.5534 41.3951 70.2344 50.461 69.7484 51.1417C69.2623 51.8223 69.2693 52.7626 69.2693 52.7626L66.1486 52.5591C64.9229 52.7977 65.9584 46.714 65.4935 45.4439C65.0285 44.1808 62.0487 36.9674 62.0487 36.0131C62.0558 33.9009 63.9507 33.3887 63.9507 33.3887Z" fill="#A39D9D"/>
<path d="M72.3689 29.8802L67.7477 28.2242L67.635 30.9468L69.058 31.8099L72.3689 29.8802Z" fill="#FFA47C"/>
<path d="M74.0877 21.8317C73.0804 20.6248 69.8258 19.1933 67.8604 21.1862C65.895 23.179 66.3176 25.4735 67.0291 26.9471C67.5856 28.0979 68.1844 28.7785 69.4454 29.5715C69.706 29.7329 72.1364 30.5047 72.6577 30.3995C73.017 30.3293 73.6157 27.8944 73.7144 27.9155C73.813 27.9365 74.1089 27.8312 74.1511 27.6278C74.2145 27.3401 74.1441 25.5156 74.2357 25.3402C74.3413 25.1648 75.236 23.2141 74.0877 21.8317Z" fill="#FFBD95"/>
<path d="M74.6232 23.0246C74.6232 23.0246 72.8691 21.6984 70.2133 23.5228C69.6427 23.9158 70.3331 26.0138 70.1781 26.1682C70.0161 26.3366 68.5015 24.4771 68.5367 24.7087C68.9101 27.0734 67.9872 28.2242 67.7759 28.2102C67.1348 28.1681 65.6344 24.6947 66.9587 22.2317C68.2831 19.7687 71.108 19.895 71.7561 20.1266C72.4112 20.3511 74.4048 20.7722 74.6232 23.0246Z" fill="#8D3B26"/>
<path d="M69.5793 25.3613C69.6991 26.1121 69.6709 27.1085 69.2623 27.1646C68.8537 27.2278 68.424 26.6664 68.2972 25.9086C68.1775 25.1578 68.4099 24.4912 68.8185 24.428C69.2271 24.3719 69.4596 24.6104 69.5793 25.3613Z" fill="#FFBD95"/>
<path d="M72.6296 96.5627H69.6709V97.11H72.6296V96.5627Z" fill="#191919"/>
<path d="M69.7836 92.6963C69.3961 93.2366 69.1355 94.2822 69.0932 94.7663C69.0439 95.3488 69.3961 96.5697 69.7765 96.5697C70.8966 96.5697 72.228 96.6118 73.3833 96.7662C74.5386 96.9206 74.9683 97.5802 77.9129 97.5731C78.7724 97.5731 80.2869 97.517 80.2869 97.1662C80.2869 95.6435 77.4621 96.1838 76.5604 95.3628C74.292 93.2787 72.7775 92.7735 72.7775 92.7735C72.7775 92.7735 69.8681 92.5841 69.7836 92.6963Z" fill="#191919"/>
<path d="M68.6634 98.1275L65.7118 97.945L65.747 97.3766L68.6987 97.5591L68.6634 98.1275Z" fill="#191919"/>
<path d="M66.1204 93.398C65.6978 93.9313 65.3667 94.9909 65.2962 95.4821C65.2117 96.0785 65.4794 97.3556 65.8598 97.3837C66.9728 97.4538 68.3042 97.5801 69.4455 97.8117C70.5867 98.0433 70.9741 98.752 73.9117 98.9274C74.7711 98.9765 76.3139 99.0186 76.3139 98.6608C76.3139 96.8363 73.5595 97.4749 72.7141 96.5697C70.5867 94.2822 69.1144 93.6647 69.1144 93.6647C69.1144 93.6647 66.212 93.2857 66.1204 93.398Z" fill="#191919"/>
<path d="M71.1361 52.8889C71.1361 52.8889 67.2476 56.5027 67.0714 58.2078C66.8883 59.9199 68.5508 65.3862 69.1355 69.6876C69.7202 73.989 70.0865 74.8591 69.9386 75.8766C69.7906 76.894 68.5085 81.006 68.6776 83.7426C68.8396 86.4793 69.3961 93.6366 69.3961 93.6366C69.3961 93.6366 70.2063 94.0015 71.6222 94.1418C73.0382 94.2822 74.0173 93.0612 74.0173 93.0612C74.0173 93.0612 75.1586 77.0695 75.3347 75.3784C75.4544 74.2837 76.3491 66.7545 76.6238 60.6076C76.7154 58.6288 76.49 54.0608 76.49 53.2468L71.1361 52.8889Z" fill="#00233F"/>
<path d="M65.6132 52.524C65.6132 52.524 64.634 55.0782 64.6622 57.1973C64.6834 58.9165 65.1835 62.0671 65.7682 66.3686C66.3529 70.67 66.4093 74.6697 66.2613 75.6871C66.1134 76.7046 64.9017 81.006 64.9158 83.7496C64.937 86.9704 64.6622 94.3874 64.6622 94.3874C64.6622 94.3874 65.9443 94.8084 67.3603 94.9417C68.7762 95.0751 70.6641 94.6611 70.6641 94.6611C70.6641 94.6611 72.0097 77.6378 72.6437 76.059C73.6651 73.5399 73.813 65.6177 74.5245 60.2147C74.8063 58.0324 75.3347 53.1696 75.3347 53.1696L65.6132 52.524Z" fill="#002D56"/>
<path d="M67.3603 52.0679L65.3596 45.086C65.3596 45.086 64.6693 51.3031 65.5287 51.9486C66.3881 52.5872 67.3603 52.0679 67.3603 52.0679Z" fill="#002D56"/>
<path d="M71.7701 33.4448L71.9744 34.5254L69.5652 33.108L71.7701 33.4448Z" fill="#A39D9D"/>
<path d="M66.7756 32.0906L67.635 30.9468L71.7701 33.4448L71.115 34.9184L66.7756 32.0906Z" fill="#D7D4D4"/>
<path d="M71.9744 34.5255L72.3548 33.1852L72.9325 33.6343L71.9744 34.5255Z" fill="#A39D9D"/>
<path d="M72.3547 33.1852L73.341 34.3079L73.4889 33.108L72.6647 32.3221L72.3547 33.1852Z" fill="#CFCCCC"/>
<path d="M76.4617 52.524C77.927 51.0154 76.8492 38.8549 76.8492 38.8549L70.5514 39.3321L69.22 52.1521C69.2129 52.1521 74.9754 54.0537 76.4617 52.524Z" fill="#002D56"/>
<path d="M76.6872 52.1521L76.497 53.7941C76.497 53.7941 72.6155 54.0678 68.9453 53.7941C65.2821 53.5205 65.3596 53.2678 65.3596 53.2678L65.5287 51.9416C65.5287 51.9416 66.6488 52.0469 69.213 52.1521C71.7067 52.2504 76.6872 52.1521 76.6872 52.1521Z" fill="#004877"/>
<path d="M69.213 52.1521L68.3324 57.5833L67.3603 52.0679L69.213 52.1521Z" fill="#00233F"/>
<path d="M70.5514 39.3321C70.3964 38.1462 68.5437 33.108 65.0989 33.1852C64.7396 33.1922 63.9577 33.3887 63.9577 33.3887L65.9372 32.4765C65.9372 32.4765 66.7192 32.1748 68.269 33.3115C69.8258 34.4553 71.6855 37.1288 71.911 39.2268C72.1434 41.3249 70.7345 40.7565 70.5514 39.3321Z" fill="#002D56"/>
<path d="M76.8492 38.8549C76.8492 38.8549 76.5463 34.5255 75.0458 33.8588C74.4047 33.5711 74.1159 33.3957 74.1159 33.3957C74.1159 33.3957 75.236 35.4798 75.4825 37.213C75.7291 38.9462 75.8066 40.1812 76.3772 40.1601C76.9478 40.139 76.8492 38.8549 76.8492 38.8549Z" fill="#002D56"/>
<path d="M63.5139 34.9816C61.7669 35.4377 61.6049 36.9744 62.1473 38.6093C62.6827 40.2443 67.797 49.2822 68.3324 49.4716C68.8678 49.6611 71.277 48.6857 71.3404 47.8858C71.4038 47.0859 68.0154 38.6164 67.3321 37.3533C66.6487 36.0902 65.5568 34.4412 63.5139 34.9816Z" fill="#FFBD95"/>
<path d="M64.0493 33.9922C64.7185 34.1395 66.7051 35.5008 67.2545 36.6867C68.0365 38.3638 70.3964 42.616 70.3964 42.616C70.3964 42.616 69.6004 43.7668 68.121 44.4755C66.4092 45.3036 65.0778 45.1211 65.0778 45.1211C65.0778 45.1211 61.5203 38.6514 61.5274 37.1498C61.5274 36.7007 62.1895 33.5852 64.0493 33.9922Z" fill="#B8B3B3"/>
<path d="M68.0929 48.2367C67.1842 49.9699 71.0093 51.5627 72.9114 52.2434C74.8134 52.924 80.5617 54.3695 80.5617 54.3695L81.4071 52.3907C81.4071 52.3907 77.0042 49.2541 71.8547 47.0999C71.3264 46.8824 69.0158 46.4754 68.0929 48.2367Z" fill="#FFBD95"/>
<path d="M81.1323 51.9767L78.3849 50.447L77.2155 53.5134L80.0685 54.2783L81.1323 51.9767Z" fill="#B8B3B3"/>
<path d="M79.7304 42.0617C78.9766 43.5353 82.7032 45.2474 84.5982 45.8439C86.4931 46.4403 92.1992 47.6262 92.1992 47.6262L92.9741 45.6193C92.9741 45.6193 88.367 42.8476 83.14 40.6864C82.3862 40.3846 80.8434 39.8794 79.7304 42.0617Z" fill="#FFA47C"/>
<path d="M95.6158 49.3664C95.7214 49.1839 95.6651 48.9524 95.489 48.8471L94.0941 48.0051C93.911 47.8928 93.6785 47.956 93.5728 48.1314C93.4672 48.3068 93.5235 48.5454 93.6996 48.6507L95.0945 49.4927C95.2706 49.605 95.503 49.5488 95.6158 49.3664Z" fill="#A39D9D"/>
<path d="M96.0456 48.798C96.1512 48.6156 96.0949 48.384 95.9188 48.2788L94.524 47.4367C94.3408 47.3244 94.1083 47.3876 94.0027 47.563C93.897 47.7384 93.9533 47.977 94.1295 48.0823L95.5243 48.9243C95.7004 49.0296 95.9329 48.9734 96.0456 48.798Z" fill="#A39D9D"/>
<path d="M96.4259 48.2156C96.5315 48.0332 96.4752 47.8016 96.2991 47.6963L94.9043 46.8543C94.7211 46.742 94.4886 46.8052 94.383 46.9806C94.2773 47.156 94.3337 47.3946 94.5098 47.4999L95.9046 48.3419C96.0807 48.4542 96.3202 48.391 96.4259 48.2156Z" fill="#A39D9D"/>
<path d="M96.7429 47.6192C96.8486 47.4367 96.7922 47.2052 96.6161 47.0999L95.2213 46.2579C95.0381 46.1456 94.8057 46.2087 94.7 46.3842C94.5943 46.5596 94.6507 46.7982 94.8268 46.9034L96.2216 47.7455C96.3977 47.8577 96.6372 47.7946 96.7429 47.6192Z" fill="#A39D9D"/>
<path d="M91.5793 45.058C91.5793 45.058 94.2562 45.4018 94.7353 45.6193C95.2143 45.8368 96.7359 47.2122 96.7359 47.2122C96.7359 47.2122 95.8483 47.4718 95.6581 47.9069C95.4679 48.3349 95.0945 49.4927 95.0945 49.4927C95.0945 49.4927 93.3827 48.9875 92.6994 48.5173C92.0161 48.0402 91.4525 47.4227 91.4525 47.4227L91.5793 45.058Z" fill="#A39D9D"/>
<path d="M92.6782 45.2123L89.8816 43.7879L88.8249 46.8964L91.7061 47.556L92.6782 45.2123Z" fill="#A39D9D"/>
<path d="M66.6699 22.7159C66.6699 22.7159 67.5152 19.2354 71.2065 19.6986C74.8979 20.1617 74.8415 23.9859 74.8415 23.9859C74.8415 23.9859 72.8056 24.1473 70.0653 23.8035C67.318 23.4526 66.6699 22.7159 66.6699 22.7159Z" fill="#002D56"/>
<path d="M68.8607 23.6C68.8607 23.6 75.9757 25.5858 76.0814 25.5367C76.187 25.4876 76.666 25.1718 76.8844 25.1016C77.1028 25.0315 77.3846 25.2771 77.4621 25.1508C77.5396 25.0245 74.8204 23.6632 74.8204 23.6632C74.8204 23.6632 73.2776 23.8245 72.5168 23.8807C71.756 23.9368 68.8959 23.3544 68.8607 23.6Z" fill="#004877"/>
<path d="M79.6107 54.1309C79.6107 54.1309 80.8012 55.1624 81.7381 54.5169C82.675 53.8713 83.1541 52.6503 83.309 52.3627C83.9783 51.1768 85.4365 50.4891 85.9437 49.8295C86.4509 49.1699 86.1691 48.8401 85.9296 49.0155C84.57 50.026 83.5063 50.2505 82.9498 50.7628C82.3932 51.275 79.9347 52.6433 79.9347 52.6433L79.6107 54.1309Z" fill="#B8B3B3"/>
<path d="M112.621 39.0654H118.039V45.4228L106.274 49.0296L112.621 39.0654Z" fill="#807D79"/>
<path d="M119.828 26.8559H117.905V49.3594H119.828V26.8559Z" fill="#00233F"/>
<path d="M117.905 33.0589H117.242L117.672 26.8559H117.905V33.0589Z" fill="#65635E"/>
<path d="M117.125 18.6601L116.008 38.003L117.063 38.0635L118.18 18.7205L117.125 18.6601Z" fill="#807D79"/>
<path d="M116.425 37.9848L116.059 37.9638L117.207 18.7021L117.574 18.7232L116.425 37.9848Z" fill="url(#paint0_linear_122_55)"/>
<path d="M114.636 39.0654H118.039V45.4228L109.134 48.1595L114.636 39.0654Z" fill="#002D56"/>
<path d="M90.5015 98.9625H118.039V45.4228L90.5015 53.8713V98.9625Z" fill="#002D56"/>
<path d="M118.039 39.0654V80.3815L90.5015 90.6684V86.1635C90.5015 86.1635 104.534 82.7953 109.613 71.4769C114.692 60.1585 116.052 39.0725 116.052 39.0725H118.039V39.0654Z" fill="#00233F"/>
<path d="M99.1874 79.4693C107.723 79.4693 114.643 72.5766 114.643 64.074C114.643 55.5714 107.723 48.6787 99.1874 48.6787C90.6514 48.6787 83.7317 55.5714 83.7317 64.074C83.7317 72.5766 90.6514 79.4693 99.1874 79.4693Z" fill="#191919"/>
<path d="M107.437 72.1064C111.996 67.5658 111.996 60.204 107.437 55.6633C102.879 51.1227 95.4881 51.1227 90.9296 55.6633C86.3711 60.204 86.3711 67.5658 90.9296 72.1064C95.4881 76.6471 102.879 76.6471 107.437 72.1064Z" fill="black"/>
<path d="M108.123 70.056C111.438 65.1405 110.125 58.479 105.19 55.1771C100.255 51.8753 93.5676 53.1834 90.2528 58.0989C86.9379 63.0144 88.2512 69.6759 93.186 72.9777C98.1207 76.2796 104.808 74.9715 108.123 70.056Z" fill="#46676C"/>
<path d="M99.1874 53.142C93.1221 53.142 88.205 58.0399 88.205 64.0815C88.205 70.1231 93.1221 75.021 99.1874 75.021C105.253 75.021 110.17 70.1231 110.17 64.0815C110.17 58.0399 105.253 53.142 99.1874 53.142ZM99.1874 72.2142C94.6014 72.2142 90.8819 68.5092 90.8819 63.9412C90.8819 59.3731 94.6014 55.6681 99.1874 55.6681C103.773 55.6681 107.493 59.3731 107.493 63.9412C107.493 68.5092 103.773 72.2142 99.1874 72.2142Z" fill="url(#paint1_linear_122_55)"/>
<path d="M99.1874 53.1275C101.547 53.1556 100.603 62.439 100.603 62.439C100.603 62.439 108.831 58.4885 109.571 60.6427C110.318 62.818 101.294 64.7406 101.294 64.7406C101.294 64.7406 107.429 71.4348 105.605 72.8102C103.759 74.1925 98.9619 66.4247 98.9619 66.4247C98.9619 66.4247 94.5873 74.0943 92.7698 72.8102C90.9594 71.526 96.7711 64.902 96.7711 64.902C96.7711 64.902 88.0641 62.7759 88.8037 60.6497C89.5364 58.5446 97.6024 62.2075 97.6024 62.2075C97.6024 62.2075 96.8768 53.0994 99.1874 53.1275Z" fill="url(#paint2_linear_122_55)"/>
<path d="M102.942 64.081C102.942 66.151 101.258 67.8211 99.1873 67.8211C97.1092 67.8211 95.4326 66.144 95.4326 64.081C95.4326 62.011 97.1163 60.3409 99.1873 60.3409C101.258 60.3339 102.942 62.011 102.942 64.081Z" fill="url(#paint3_linear_122_55)"/>
<path d="M98.2363 61.9548C98.2363 62.2987 97.9546 62.5794 97.6094 62.5794C97.2642 62.5794 96.9824 62.2987 96.9824 61.9548C96.9824 61.611 97.2642 61.3303 97.6094 61.3303C97.9546 61.3303 98.2363 61.611 98.2363 61.9548Z" fill="#46676C"/>
<path d="M101.477 61.9548C101.477 62.2987 101.195 62.5794 100.85 62.5794C100.505 62.5794 100.223 62.2987 100.223 61.9548C100.223 61.611 100.505 61.3303 100.85 61.3303C101.195 61.3303 101.477 61.611 101.477 61.9548Z" fill="#46676C"/>
<path d="M102.379 64.7617C102.379 65.1055 102.097 65.3862 101.752 65.3862C101.406 65.3862 101.125 65.1055 101.125 64.7617C101.125 64.4178 101.406 64.1371 101.752 64.1371C102.097 64.1371 102.379 64.4178 102.379 64.7617Z" fill="#46676C"/>
<path d="M97.2501 64.7617C97.2501 65.1055 96.9684 65.3862 96.6232 65.3862C96.278 65.3862 95.9962 65.1055 95.9962 64.7617C95.9962 64.4178 96.278 64.1371 96.6232 64.1371C96.9684 64.1371 97.2501 64.4178 97.2501 64.7617Z" fill="#46676C"/>
<path d="M99.7157 66.6703C99.7157 67.0141 99.4339 67.2948 99.0888 67.2948C98.7436 67.2948 98.4618 67.0141 98.4618 66.6703C98.4618 66.3264 98.7436 66.0458 99.0888 66.0458C99.4339 66.0458 99.7157 66.3194 99.7157 66.6703Z" fill="#46676C"/>
<path d="M112.093 84.6969C118.278 81.0551 122.427 74.3469 122.427 66.6703C122.427 55.1063 113.016 45.7316 101.406 45.7316C90.741 45.7316 81.9424 53.6397 80.5757 63.8916H78.4835C79.8642 52.496 89.5998 43.6616 101.406 43.6616C114.164 43.6616 124.505 53.9625 124.505 66.6703C124.505 75.5327 119.469 83.2234 112.093 87.0687V84.6969Z" fill="#3D3D3D"/>
<path d="M84.8235 98.9625H119.926V76.6274L84.8235 93.3769V98.9625Z" fill="#004877"/>
<path d="M78.1248 64.8066H124.111V63.333L78.1248 63.333V64.8066Z" fill="#CFCCCC"/>
<path d="M102.362 66.0344L123.418 70.2221L123.906 67.7863L102.851 63.5986L102.362 66.0344Z" fill="#9A9393"/>
<path d="M99.1874 63.8845L102.843 63.5898L102.357 66.0247L99.0887 64.3477L99.1874 63.8845Z" fill="#191919"/>
<path d="M100.97 64.081C100.97 65.0634 100.174 65.8563 99.1874 65.8563C98.2011 65.8563 97.4051 65.0634 97.4051 64.081C97.4051 63.0986 98.2011 62.3057 99.1874 62.3057C100.167 62.3057 100.97 63.0986 100.97 64.081Z" fill="#191919"/>
<path d="M124.914 69.0701C124.914 70.0525 124.118 70.8454 123.132 70.8454C122.145 70.8454 121.349 70.0525 121.349 69.0701C121.349 68.0877 122.145 67.2948 123.132 67.2948C124.118 67.2948 124.914 68.0877 124.914 69.0701Z" fill="#191919"/>
<path d="M78.1255 65.849H81.0912V62.5791H78.1255V65.849Z" fill="#191919"/>
<path d="M122.04 66.8771L124.914 66.4712L124.037 60.3157L121.164 60.7216L122.04 66.8771Z" fill="#191919"/>
<path d="M218.768 44.5948C217.81 42.7985 214.358 45.1281 212.675 46.321C210.984 47.5139 205.863 51.5416 205.863 51.5416L207.264 52.9942C207.264 52.9942 212.71 51.4153 217.571 48.4331C218.705 47.7384 219.74 46.4263 218.768 44.5948Z" fill="#FFA47C"/>
<path d="M227.482 36.42C229.011 37.5428 228.532 39.1286 227.334 40.553C226.13 41.9775 218.472 47.984 217.866 47.97C217.268 47.956 215.295 46.0684 215.556 45.2474C215.824 44.4264 221.551 38.3357 222.741 37.3322C223.939 36.3358 225.693 35.1079 227.482 36.42Z" fill="#FFA47C"/>
<path d="M224.671 34.9886C223.953 34.9535 223.199 36.2586 222.312 37.3112C221.058 38.7988 217.5 42.4617 217.5 42.4617C217.5 42.4617 217.993 43.844 219.289 44.9667C220.797 46.2719 222.199 46.4543 222.199 46.4543C222.199 46.4543 227.588 40.8688 227.996 39.3391C228.116 38.883 226.672 35.0798 224.671 34.9886Z" fill="#9A9393"/>
<path d="M225.806 26.5963C225.806 26.5963 228.574 31.1573 228.835 31.4731C229.807 32.6589 230.462 32.4554 231.702 33.4378C233.202 34.6307 236.725 41.0442 238.387 45.2404C239.359 47.6893 240.655 53.5345 240.472 56.0746C240.219 59.4779 234.689 60.2848 234.428 60.4181C234.167 60.5445 232.04 58.8955 231.237 58.3692C230.434 57.8429 230.828 52.1311 230.096 50.6505C229.363 49.1699 224.735 44.7282 224.495 44.4264C222.931 42.3845 222.635 40.3075 222.488 39.7882C222.34 39.2689 221.917 38.476 222.009 38.055C222.185 37.213 224.46 35.1008 224.354 34.771C224.249 34.4483 222.516 30.0276 222.516 30.0276L225.806 26.5963Z" fill="#FFBD95"/>
<path d="M228.828 31.4731L225.115 36.0481L224.347 34.771C224.347 34.771 222.065 37.2621 222.001 38.055C221.938 38.8409 222.41 40.2513 222.537 40.7986C222.657 41.346 223.706 43.6475 224.869 45.5141C225.552 46.6087 227.412 47.6542 228.553 49.5208C229.532 51.1206 229.187 53.8081 229.187 53.8081C229.187 53.8081 231.582 53.345 234.315 53.8081C237.612 54.3625 240.289 53.1064 240.367 52.938C240.698 52.2153 238.317 44.3984 238.176 43.858C238.035 43.3177 234.921 36.6797 234.217 35.6552C233.195 34.1676 231.948 32.6238 230.265 32.0976C229.257 31.7888 228.828 31.4731 228.828 31.4731Z" fill="#B8B3B3"/>
<path d="M229.152 31.8309C229.152 31.8309 230.983 33.9992 229.257 37.5007C228.511 39.0163 228.877 40.8057 227.961 41.6687C224.671 44.7352 231.709 53.6397 232.484 54.0607C233.259 54.4818 235.745 54.0116 235.745 54.0116L240.374 52.938C241.642 52.6012 238.26 44.9387 238.112 43.5282C237.964 42.1249 234.928 36.8902 234.442 36.0131C232.153 31.9362 229.152 31.8309 229.152 31.8309Z" fill="#A39D9D"/>
<path d="M223.256 31.9432L226.841 28.2523L228.215 30.7643L227.271 32.2379L223.256 31.9432Z" fill="#FFA47C"/>
<path d="M218.853 25.2069C219.445 23.6702 222.199 21.1581 224.834 22.4773C227.461 23.8035 227.813 26.2243 227.602 27.9295C227.44 29.2627 227.074 30.1398 226.081 31.3467C225.876 31.5923 223.721 33.1712 223.164 33.2483C222.784 33.2975 221.361 31.0801 221.276 31.1362C221.185 31.1924 220.853 31.1854 220.748 30.9959C220.586 30.7293 220.043 28.8908 219.888 28.7505C219.726 28.6101 218.177 26.9681 218.853 25.2069Z" fill="#FFBD95"/>
<path d="M218.719 26.5752C218.719 26.5752 220.015 24.6736 223.277 25.5928C223.981 25.7893 224.002 28.1049 224.206 28.2102C224.425 28.3224 225.305 25.9647 225.341 26.2103C225.77 28.6873 227.074 29.5223 227.278 29.4381C227.898 29.1785 228.222 25.2209 226.073 23.2141C223.925 21.2072 221.156 22.2738 220.586 22.7229C220.022 23.172 218.176 24.2596 218.719 26.5752Z" fill="#8D3B26"/>
<path d="M224.531 27.2067C224.664 27.9996 225.031 28.975 225.453 28.8978C225.883 28.8206 226.123 28.1189 225.989 27.326C225.855 26.5331 225.404 25.9577 224.974 26.0279C224.545 26.1121 224.397 26.4208 224.531 27.2067Z" fill="#FFBD95"/>
<path d="M244.505 99.1454L247.396 98.0131L247.185 97.4776L244.294 98.6098L244.505 99.1454Z" fill="black"/>
<path d="M245.587 93.7418C246.171 94.1207 246.833 95.04 247.052 95.4961C247.32 96.0434 247.453 97.3766 247.08 97.517C245.988 97.945 244.699 98.4993 243.635 99.0888C242.572 99.6782 243.262 100.127 240.381 101.25C239.542 101.58 237.098 101.622 236.964 101.278C236.379 99.7905 239.423 100.085 239.986 98.9344C241.402 96.0294 242.684 94.9558 242.684 94.9558C242.684 94.9558 245.467 93.6646 245.587 93.7418Z" fill="black"/>
<path d="M234.639 102.134L237.739 102.232L237.753 101.636L234.654 101.545L234.639 102.134Z" fill="#191919"/>
<path d="M237.753 97.4398C238.141 98.0362 238.387 99.18 238.408 99.6993C238.436 100.331 238.035 101.643 237.633 101.629C236.464 101.594 235.055 101.601 233.843 101.734C232.632 101.867 232.16 102.569 229.06 102.464C228.159 102.436 226.545 102.331 226.581 101.952C226.757 100.043 229.582 100.976 230.547 100.113C232.991 97.924 234.597 97.4257 234.597 97.4257C234.597 97.4257 237.676 97.3135 237.753 97.4398Z" fill="#191919"/>
<path d="M233.71 53.9485C233.71 53.9485 238.598 56.636 239.218 58.3271C239.838 60.0182 240 65.0704 240.507 69.5964C241.015 74.1294 241.198 75.5117 241.613 76.5081C242.022 77.5045 244.29 81.8761 244.833 84.704C245.368 87.5318 247.411 94.6611 247.411 94.6611C247.411 94.6611 245.572 95.461 244.164 95.9592C242.755 96.4574 241.113 95.5943 241.113 95.5943C241.113 95.5943 235.844 79.5956 235.224 77.9255C234.823 76.8449 231.977 69.3999 230.117 63.2109C229.518 61.2181 228.574 56.5097 228.363 55.6747L233.71 53.9485Z" fill="#00233F"/>
<path d="M240.641 54.145C240.641 54.145 241.473 56.8956 241.289 59.113C241.134 60.9093 240.381 64.1793 239.451 68.635C238.514 73.0979 238.162 77.28 238.239 78.3536C238.317 79.4272 239.275 84.0233 239.049 86.8933C238.789 90.2684 238.528 98.0573 238.528 98.0573C238.528 98.0573 237.154 98.4011 235.661 98.4362C234.167 98.4713 232.223 97.9029 232.223 97.9029C232.223 97.9029 232.082 79.9745 231.533 78.2764C230.652 75.5678 231.082 67.2527 230.744 61.5409C230.61 59.2393 230.42 54.1029 230.42 54.1029L240.641 54.145Z" fill="#002D56"/>
<path d="M238.796 53.4433L238.112 43.5282C238.112 43.5282 239.81 47.5069 240.606 51.4715C240.67 51.8013 240.937 52.6994 240.374 52.938C239.676 53.2327 238.796 53.4433 238.796 53.4433Z" fill="#002D56"/>
<path d="M225.481 35.0307L225.115 36.0481L227.398 33.6974L225.481 35.0307Z" fill="#A39D9D"/>
<path d="M225.115 36.0481L224.347 34.771L224.136 35.5148L225.115 36.0481Z" fill="#A39D9D"/>
<path d="M224.46 34.9605L224.284 36.2095L223.706 35.5078L224.207 34.3991L224.46 34.9605Z" fill="#CFCCCC"/>
<path d="M228.271 53.9485C227.686 53.8362 228.01 51.9065 227.398 50.6575C225.735 47.2683 223.213 42.4687 223.213 42.4687L229.37 40.0127L236.936 53.5555C236.936 53.5555 233.273 54.8887 228.271 53.9485Z" fill="#002D56"/>
<path d="M228.271 53.9485L228.37 55.7097C228.37 55.7097 233.259 56.0465 237.049 55.3027C240.839 54.5589 240.726 54.3063 240.726 54.3063L240.381 52.945C240.381 52.945 239.225 53.1977 236.563 53.6257C233.97 54.0327 228.271 53.9485 228.271 53.9485Z" fill="#004877"/>
<path d="M236.936 53.5555L237.957 60.5795L238.824 53.1906L236.936 53.5555Z" fill="#00233F"/>
<path d="M228.468 40.5039C228.06 39.311 227.989 32.3782 232.392 33.3887L230.969 32.3712C230.969 32.3712 229.243 31.8309 227.82 34.2588C226.496 36.5112 226.383 38.9461 227.144 41.0302C227.898 43.1142 228.955 41.9284 228.468 40.5039Z" fill="#002D56"/>
<path d="M223.213 42.4687C223.213 42.4687 221.48 38.2515 222.586 36.9253C223.058 36.3569 223.248 36.0552 223.248 36.0552C223.248 36.0552 223.164 38.5322 223.735 40.2794C224.305 42.0266 224.805 43.2265 224.263 43.4721C223.713 43.7247 223.213 42.4687 223.213 42.4687Z" fill="#002D56"/>
<path d="M230.913 35.0026C232.78 35.3184 233.097 36.9112 232.688 38.6655C232.28 40.4267 227.468 51.1627 226.933 51.4083C226.397 51.6609 223.777 50.868 223.636 50.033C223.495 49.198 226.552 39.2268 227.144 37.8375C227.736 36.4621 228.722 34.6307 230.913 35.0026Z" fill="#FFBD95"/>
<path d="M230.279 34.2869C229.335 34.4272 227.651 36.1183 227.186 37.4094C226.531 39.2338 224.467 43.9072 224.467 43.9072C224.467 43.9072 225.411 45.0369 227.024 45.6404C228.891 46.3421 230.272 46.0263 230.272 46.0263C230.272 46.0263 233.069 38.9251 233.223 37.3533C233.329 36.2657 232.561 33.936 230.279 34.2869Z" fill="#CFCCCC"/>
<path d="M227.229 50.4961C227.581 52.517 223.079 53.338 221.001 53.5415C218.923 53.745 212.801 53.731 212.801 53.731L212.491 51.7802C212.491 51.7802 217.958 50.0541 223.565 48.7699C224.136 48.6366 226.679 47.3665 227.229 50.4961Z" fill="#FFBD95"/>
<path d="M207.863 51.9206C207.863 51.9206 207.877 53.5064 206.729 53.8572C205.581 54.2151 204.221 53.6748 203.869 53.6187C202.439 53.3941 201.002 54.4747 200.121 54.4677C199.241 54.4607 199.213 54.0046 199.523 53.9204C201.255 53.4503 202.073 52.6152 202.869 52.4889C203.665 52.3626 206.405 51.2189 206.405 51.2189L207.863 51.9206Z" fill="#9A9393"/>
<path d="M207.539 52.945C207.539 52.945 207.546 53.759 206.229 54.2712C205.503 54.5519 204.552 54.2081 203.911 54.3975C203.277 54.587 203.39 54.2432 203.425 54.1519C203.46 54.0607 204.249 53.8362 204.588 53.6888C204.926 53.5415 206.046 52.3416 207.539 52.945Z" fill="#9A9393"/>
<path d="M229.553 31.445L228.215 30.7643L225.482 35.0307L226.764 36.3779L229.553 31.445Z" fill="#D7D4D4"/>
<path d="M212.703 51.7101L209.871 52.7696C209.871 52.7696 209.385 54.4046 209.434 54.7624C209.483 55.1203 210.258 56.4886 210.357 56.6921C210.456 56.8956 210.716 57.0921 210.808 57.0219C210.899 56.9517 210.667 56.1097 211.435 55.4571C212.203 54.8045 212.9 54.3625 213.231 53.8432C213.971 52.6784 212.703 51.7101 212.703 51.7101Z" fill="#B8B3B3"/>
<path d="M211.674 52.8749C211.674 52.8749 210.596 53.9204 210.688 54.1871C210.78 54.4537 211.033 56.0255 211.061 56.208C211.083 56.3834 211.118 56.622 211.491 56.1658C211.865 55.7097 211.674 54.994 211.857 54.8888C212.034 54.7905 212.949 54.6993 213.393 54.0678C213.83 53.4362 213.605 52.8749 213.471 52.6644C213.323 52.4539 211.872 52.3065 211.674 52.8749Z" fill="#B8B3B3"/>
<path d="M213.379 54.0748L216.88 54.0397L216.352 50.5312L212.555 51.7662L213.379 54.0748Z" fill="#B8B3B3"/>
<path d="M210.681 51.7943L208.892 49.1769L205.856 51.5416L207.539 52.945L210.681 51.7943Z" fill="#9A9393"/>
<path d="M226.665 23.8807C226.665 23.8807 224.812 20.5686 221.184 22.0843C217.549 23.6 218.705 27.4804 218.705 27.4804C218.705 27.4804 220.825 27.0664 223.516 25.9437C226.214 24.8209 226.665 23.8807 226.665 23.8807Z" fill="#002D56"/>
<path d="M224.686 25.4034C224.686 25.4034 218 29.4381 217.881 29.4171C217.754 29.396 217.183 29.2136 216.937 29.1996C216.69 29.1855 216.479 29.5223 216.366 29.4171C216.253 29.3118 218.634 27.1506 218.634 27.1506C218.634 27.1506 220.247 26.8839 221.043 26.7296C221.818 26.5612 224.573 25.1648 224.686 25.4034Z" fill="#004877"/>
<path d="M192.739 62.5022V56.7061C192.739 55.4641 193.76 54.4467 195.014 54.4467H219.17C220.417 54.4467 221.445 55.4641 221.445 56.7061V62.5022C221.445 63.7442 220.424 64.7617 219.17 64.7617H195.014C193.76 64.7617 192.739 63.7442 192.739 62.5022Z" fill="#191919"/>
<path d="M221.439 59.9681V59.2313L192.74 59.2313V59.9681L221.439 59.9681Z" fill="black"/>
<path d="M221.439 61.666V61.3502L192.74 61.3502V61.666L221.439 61.666Z" fill="black"/>
<path d="M221.438 62.8711V62.5554L192.738 62.5554V62.8711L221.438 62.8711Z" fill="black"/>
<path d="M221.435 56.701V56.3852L192.736 56.3852V56.701L221.435 56.701Z" fill="black"/>
<path d="M221.433 57.9061V57.5903L192.734 57.5903V57.9061L221.433 57.9061Z" fill="black"/>
<path d="M221.417 62.7197C221.304 62.7338 221.199 62.7548 221.086 62.7548H196.93C195.683 62.7548 194.655 61.7373 194.655 60.4883V54.6923C194.655 54.6151 194.669 54.5449 194.676 54.4677C193.584 54.6291 192.739 55.5624 192.739 56.6991V62.4952C192.739 63.7372 193.76 64.7547 195.014 64.7547H219.17C220.339 64.7617 221.297 63.8635 221.417 62.7197Z" fill="#979797"/>
<path d="M216.662 64.7617H197.508V66.1721H216.662V64.7617Z" fill="#625757"/>
<path d="M213.104 66.1791H201.051V69.3297H213.104V66.1791Z" fill="#3D3D3D"/>
<path d="M213.104 66.1791H201.051V69.3227H213.104L202.707 68.4456V67.5544L213.104 66.1791Z" fill="#2C2C2C"/>
<path d="M224.841 102.576H181.256V96.6047L179.213 94.6259V69.2455H226.883V94.6259L224.841 96.6047V102.576Z" fill="#0F6D38"/>
<path d="M226.89 94.626H179.213V96.6048H226.89V94.626Z" fill="#3D3D3D"/>
<path d="M207.081 33.1712H191.985V35.5991H207.081V33.1712Z" fill="#3D3D3D"/>
<path d="M189.068 33.3817H182.637V79.6657H189.068V33.3817Z" fill="#0F6D38"/>
<path d="M196.275 32.1537H180.615V36.806H196.275V32.1537Z" fill="#0F6D38"/>
<path d="M205.864 24.7726V48.6163H208.302V24.7726H205.864Z" fill="#3D3D3D"/>
<path d="M206.368 30.5912V54.4349H207.784V30.5912H206.368Z" fill="#3D3D3D"/>
<path d="M209.427 29.6065H204.743V40.8057H209.427V29.6065Z" fill="#0F6D38"/>
<path d="M203.052 54.4326L206.37 52.7907H207.786V54.4326H203.052Z" fill="#3D3D3D"/>
<path d="M208.723 23.8105H205.447V26.077H208.723V23.8105Z" fill="#9A9393"/>
<path d="M204.75 32.1537H203.052V36.4832H204.75V32.1537Z" fill="#625757"/>
<path d="M189.068 36.806L184.264 38.483V67.386L189.068 69.3227H182.637V36.806H189.068Z" fill="#0D4A27"/>
<path d="M224.841 96.6048H181.256V102.576H224.841V96.6048Z" fill="#0F6D38"/>
<path d="M224.841 96.6048H181.256V99.9308L224.841 97.6363V96.6048Z" fill="#0D4A27"/>
<path d="M136.27 68.3754L133.924 71.2874C133.924 71.2874 134.389 73.3013 134.65 73.6452C134.91 73.982 136.552 74.9222 136.777 75.0696C137.002 75.217 137.397 75.252 137.446 75.1257C137.503 74.9994 136.749 74.2627 137.171 73.0908C137.594 71.926 138.059 71.0138 138.101 70.256C138.186 68.5719 136.27 68.3754 136.27 68.3754Z" fill="#FFBD95"/>
<path d="M161.63 49.6681C162.997 45.514 166.519 38.3918 164.462 37.1498C161.785 35.5289 154.064 34.5254 154.064 34.5254V34.6588C154.064 34.6588 146.28 35.2973 143.596 36.9112C141.539 38.1462 145.104 45.6193 146.456 49.7804C146.78 50.7768 146.738 55.2466 146.604 59.2182C146.569 60.1936 145.766 64.6915 145.9 66.551C145.942 67.1053 152.24 70.5507 154.001 70.6419V70.5086C155.769 70.4244 162.074 67.0001 162.116 66.4457C162.257 64.5862 161.461 60.0883 161.433 59.106C161.334 55.1414 161.306 50.6645 161.63 49.6681Z" fill="#FFBD95"/>
<path d="M162.532 36.7919C161.109 37.4796 160.897 40.0408 162.292 42.6231C163.687 45.1983 164.92 46.8052 165.3 47.4648C165.695 48.1454 167.667 52.2644 168.372 53.2819C169.076 54.2993 170.612 55.1975 171.718 54.6011C172.641 54.1029 173.669 53.6818 173.035 51.6539C172.401 49.619 167.019 34.6167 162.532 36.7919Z" fill="#FFBD95"/>
<path d="M157.298 33.2975C157.122 32.5046 156.685 28.5891 156.685 28.5891L154.078 28.5821V28.7154L151.472 28.7084C151.472 28.7084 151.021 32.6238 150.845 33.4168C150.669 34.2097 148.52 35.4026 148.52 35.4026L154.064 35.4096V35.2763L159.608 35.2833C159.615 35.2903 157.474 34.0904 157.298 33.2975Z" fill="#FFBD95"/>
<path d="M157.122 32.1958C156.96 30.9959 156.762 29.2908 156.706 28.7575L156.537 28.5891L154.078 28.5821V28.7154L151.472 28.7084C151.472 28.7084 151.021 32.6238 150.845 33.4168C150.669 34.2097 148.52 35.4026 148.52 35.4026H148.781C151.253 34.75 153.719 34.0974 154.05 34.0062C154.748 33.8097 157.122 32.1958 157.122 32.1958Z" fill="#FFA47C"/>
<path d="M149.88 62.1864C146.703 62.1724 145.463 64.3757 145.54 71.1541C145.618 77.9325 146.618 85.2723 147.062 86.3319C147.499 87.3915 152.007 87.4195 152.451 86.802C152.895 86.1845 154.022 72.1365 154.022 69.9332C154.022 67.7369 153.346 62.2005 149.88 62.1864Z" fill="#FFBD95"/>
<path d="M150.077 91.756L149.239 91.735C147.978 91.6999 146.97 90.6473 146.999 89.3913L147.069 86.5775C147.104 85.3214 148.161 84.318 149.422 84.3461L150.26 84.3671C151.521 84.4022 152.529 85.4548 152.5 86.7108L152.43 89.5246C152.395 90.7807 151.338 91.7841 150.077 91.756Z" fill="#FFBD95"/>
<path d="M149.619 87.609C148.647 87.609 146.266 87.9248 146.386 94.2401C146.505 100.555 149.189 109.207 149.189 109.207H151.486C151.486 109.207 152.627 97.517 152.634 95.2716C152.655 90.1772 152.69 87.609 149.619 87.609Z" fill="#FFBD95"/>
<path d="M158.27 62.2426C161.433 61.8987 162.891 63.9687 163.511 70.7191C164.131 77.4624 164.427 84.8724 164.096 85.974C163.764 87.0687 159.291 87.5599 158.784 86.9915C158.277 86.4231 155.177 72.5645 154.945 70.3752C154.719 68.1859 154.825 62.6145 158.27 62.2426Z" fill="#FFBD95"/>
<path d="M161.651 91.6718L162.497 91.5666C163.751 91.4052 164.638 90.2474 164.476 88.9984L164.117 86.2196C163.955 84.9706 162.799 84.0794 161.553 84.2408L160.707 84.3461C159.453 84.5075 158.566 85.6653 158.728 86.9143L159.087 89.693C159.249 90.9421 160.404 91.8332 161.651 91.6718Z" fill="#FFBD95"/>
<path d="M161.679 87.5037C162.644 87.4055 165.054 87.4757 165.582 93.7699C166.11 100.064 165.075 108.948 165.075 108.948L162.792 109.186C162.792 109.186 159.721 97.6784 159.482 95.447C158.932 90.3667 158.629 87.8195 161.679 87.5037Z" fill="#FFBD95"/>
<path d="M144.892 36.813C146.414 37.227 147.097 39.711 146.21 42.4967C145.315 45.2895 144.399 47.0929 144.146 47.8086C143.885 48.5524 142.708 52.9661 142.201 54.0888C141.694 55.2185 140.356 56.3834 139.158 56.0044C138.158 55.6887 137.073 55.4571 137.319 53.345C137.573 51.2399 140.081 35.5008 144.892 36.813Z" fill="#FFBD95"/>
<path d="M146.435 60.8251C146.435 60.8251 145.287 66.4036 145.104 69.435C144.92 72.4663 146.393 85.7354 146.4 87.195C146.4 88.6545 146.294 93.1384 146.386 97.538C146.47 101.938 147.597 110.597 147.597 110.597L153.247 110.463C153.247 110.463 153.282 91.8683 153.289 88.9422C153.296 86.0161 154.022 70.6279 154.022 70.6279L154.036 61.0637L146.435 60.8251Z" fill="#00233F"/>
<path d="M165.138 37.234C164.786 36.6516 162.912 36.1744 161.186 35.6411C159.665 35.171 158.432 34.5325 158.432 34.5325L157.474 35.0377C155.36 36.2376 152.761 36.2376 150.655 35.0307L149.83 34.5605C149.83 34.5605 148.464 35.157 146.942 35.6201C145.209 36.1534 143.279 36.5955 142.983 37.2059C142.68 37.8234 145.766 49.6681 146.111 50.6715C146.456 51.682 145.554 58.72 146.435 60.8321L154.015 61.0777H154.029L161.616 60.8532C162.313 58.4394 161.609 51.5697 161.961 50.5593C162.313 49.5488 165.723 38.2024 165.138 37.234Z" fill="#CFCCCC"/>
<path d="M161.553 60.6708C161.553 60.6708 163.271 66.1019 163.765 69.0982C164.258 72.1014 164.694 85.4478 164.842 86.9003C164.99 88.3528 165.561 92.8016 165.927 97.1872C166.294 101.573 166.787 110.302 166.787 110.302L161.151 110.751C161.151 110.751 158.474 92.2542 158.171 89.3492C157.868 86.4442 153.994 71.1191 153.994 71.1191L154.029 61.0707L161.553 60.6708Z" fill="#00233F"/>
<path d="M148.182 110.59C148.182 110.59 146.252 112.835 146.35 113.431C146.407 113.768 147.224 114.996 148.703 115.087C149.83 115.158 151.662 114.133 151.951 114.105C152.613 114.035 152.613 110.491 152.613 110.491L148.182 110.59Z" fill="#191919"/>
<path d="M165.998 110.372C165.998 110.372 168.153 112.407 168.111 113.01C168.09 113.354 167.407 114.652 165.941 114.898C164.828 115.08 162.898 114.252 162.609 114.252C161.94 114.252 161.581 110.723 161.581 110.723L165.998 110.372Z" fill="#191919"/>
<path d="M160.89 72.0453C161.207 74.0311 162.102 87.3985 162.151 88.1563C162.201 88.9001 164.842 109.509 164.934 110.456L166.787 110.309C166.787 110.309 166.293 101.58 165.927 97.1942C165.561 92.8086 164.99 88.3598 164.842 86.9073C164.694 85.4548 164.258 72.1084 163.764 69.1052C163.271 66.1019 161.553 60.6778 161.553 60.6778L157.072 60.9935C157.072 60.9795 160.573 70.0525 160.89 72.0453Z" fill="#002D56"/>
<path d="M153.134 66.9369C152.085 65.0985 149.281 65.716 149.098 67.8281C148.908 69.9963 148.865 71.498 149.056 72.4944C149.535 75.0065 150.218 87.2862 150.126 87.609C150.035 87.9318 150.098 110.484 150.098 110.484L150.197 110.548L153.24 110.477C153.24 110.477 153.275 91.8823 153.282 88.9562C153.289 86.0302 154.015 70.6419 154.015 70.6419V69.8069L154.071 68.6L153.134 66.9369Z" fill="#002D56"/>
<path d="M171.33 51.5908C172.598 51.4013 173.747 51.9065 174.465 55.422C175.184 58.9305 175.79 67.2808 175.79 67.2808L173.733 67.5895C173.733 67.5895 170.675 60.9585 170.203 59.0709C169.724 57.1833 168.005 52.089 171.33 51.5908Z" fill="#FFBD95"/>
<path d="M173.409 65.6739C173.409 65.6739 172.627 67.5544 172.556 68.1509C172.486 68.7473 172.824 70.9015 172.824 71.3787C172.824 72.1786 171.281 73.982 171.816 74.0521C172.352 74.1223 174.5 72.4523 174.5 72.4523C174.5 72.4523 176.177 70.1507 176.114 69.2034C176.05 68.2561 175.726 66.5159 175.726 66.5159L173.409 65.6739Z" fill="#FFBD95"/>
<path d="M158.594 25.27C158.587 28.54 156.1 31.7958 153.994 31.7958C151.979 31.7958 149.408 28.5259 149.415 25.256C149.422 21.9861 151.479 19.3337 154.015 19.3407C156.544 19.3407 158.601 21.9931 158.594 25.27Z" fill="#FFBD95"/>
<path d="M149.408 25.9086C149.203 25.5507 148.52 24.035 148.675 23.3544C148.823 22.6738 149.633 21.1861 149.901 20.7441C150.169 20.302 152.557 19.1161 152.916 19.0881C153.275 19.06 154.226 18.9688 154.973 19.0881C155.72 19.2074 157.03 19.7126 157.326 20.309C157.622 20.9055 158.361 21.5861 158.601 22.0633C158.84 22.5404 159.256 23.7544 159.2 23.9368C159.136 24.1122 158.812 25.5998 158.777 25.7191C158.749 25.8384 158.53 26.1752 158.53 26.1752C158.53 26.1752 157.298 23.0456 157.269 22.7509C157.241 22.4562 150.979 22.358 150.591 22.5615C150.204 22.765 149.408 25.9086 149.408 25.9086Z" fill="#8D3B26"/>
<path d="M151.211 75.2451H145.082L144.913 74.9574L144.47 74.7609L145.068 66.0317L150.746 65.8984L151.211 75.2451Z" fill="#1C5C92"/>
<path d="M150.591 74.7609H144.47L144.801 65.8774H150.591V74.7609Z" fill="#002D56"/>
<path d="M145.082 75.2451L144.913 74.9574H150.803L150.746 65.8984L151.211 75.2451H145.082Z" fill="#004877"/>
<path d="M158.235 75.2942L164.335 74.6977L164.476 74.389L164.899 74.1504L163.44 65.5265L157.784 65.9405L158.235 75.2942Z" fill="#1C5C92"/>
<path d="M158.798 74.7468L164.899 74.1504L163.701 65.3441L157.932 65.9054L158.798 74.7468Z" fill="#002D56"/>
<path d="M164.335 74.6977L164.476 74.389L158.615 74.9643L157.784 65.9405L158.235 75.2941L164.335 74.6977Z" fill="#004877"/>
<path d="M139.313 53.2748C138.031 53.1626 136.925 53.738 136.418 57.2815C135.911 60.8251 135.812 69.1964 135.812 69.1964L137.883 69.3788C137.883 69.3788 140.539 62.5794 140.898 60.6637C141.25 58.7551 142.659 53.5696 139.313 53.2748Z" fill="#FFBD95"/>
<path d="M154.029 61.0707L161.581 60.8251L161.398 59.2112L160.052 42.7985H148.013L146.618 59.2112L146.435 60.8251L153.98 61.0707H154.008H154.029Z" fill="#002D56"/>
<path d="M150.155 42.7985C150.155 42.7985 151.268 55.7097 152.627 58.1657C153.987 60.6216 161.51 60.2146 161.51 60.2146L161.581 61.0707C161.581 61.0707 157.896 61.9408 154.445 61.9408C150.993 61.9408 146.4 61.0707 146.4 61.0707L148.013 42.7985H150.155Z" fill="#00233F"/>
<path d="M159.679 43.7458L160.813 35.5148L159.101 34.8412L157.812 43.7458L158.636 45.1141L159.679 43.7458Z" fill="#004877"/>
<path d="M148.429 43.7458L147.294 35.5148L149.006 34.8412L150.288 43.7458L149.471 45.1141L148.429 43.7458Z" fill="#004877"/>
<path d="M146.273 61.611L146.245 60.1866C146.245 60.1866 150.302 60.8321 154.036 60.8321C157.77 60.8321 161.757 60.1866 161.757 60.1866L161.841 61.611C161.841 61.611 157.03 62.4671 153.994 62.4671C150.958 62.4671 146.273 61.611 146.273 61.611Z" fill="#004877"/>
<path d="M149.718 43.5774C149.718 43.83 149.513 44.0405 149.253 44.0405C148.999 44.0405 148.788 43.837 148.788 43.5774C148.788 43.3248 148.992 43.1142 149.253 43.1142C149.506 43.1213 149.718 43.3248 149.718 43.5774Z" fill="#303030"/>
<path d="M158.855 44.0405C159.111 44.0405 159.319 43.8331 159.319 43.5774C159.319 43.3216 159.111 43.1142 158.855 43.1142C158.598 43.1142 158.39 43.3216 158.39 43.5774C158.39 43.8331 158.598 44.0405 158.855 44.0405Z" fill="#303030"/>
<path d="M143.413 36.813C143.413 36.813 141.455 37.3814 139.933 40.9811C138.411 44.5808 137.291 51.9346 137.291 51.9346C137.291 51.9346 138.362 52.7626 140.356 53.2538C142.349 53.745 143.187 53.5485 143.187 53.5485L145.364 45.9351C145.357 45.9351 145.857 36.9393 143.413 36.813Z" fill="#CFCCCC"/>
<path d="M163.87 36.4832C163.87 36.4832 165.892 36.7428 167.956 40.0689C170.02 43.3949 172.894 50.3909 172.894 50.3909C172.894 50.3909 171.978 51.3732 170.091 52.1662C168.196 52.9591 167.287 52.938 167.287 52.938L163.363 45.8017C163.363 45.8017 161.468 36.9884 163.87 36.4832Z" fill="#CFCCCC"/>
<path d="M136.277 71.8208C136.277 71.8208 136.544 72.9575 136.707 73.2101C136.869 73.4627 137.164 73.7574 137.376 73.975C137.587 74.1995 137.693 74.6626 137.643 74.7398C137.495 74.9573 137.129 74.6907 136.96 74.5083C136.791 74.3258 136.397 73.9048 136.227 73.6031C136.051 73.2943 135.586 72.5716 135.565 72.3049C135.537 72.0383 136.277 71.8208 136.277 71.8208Z" fill="#FFA47C"/>
<path d="M136.108 71.498C136.108 71.498 136.657 72.4382 136.869 72.6207C137.08 72.8031 137.263 72.768 137.587 72.8733C137.855 72.9575 138.193 73.168 138.214 73.4136C138.235 73.6592 137.813 73.575 137.58 73.5399C137.284 73.4978 136.777 73.3224 136.538 73.0978C136.298 72.8733 135.685 72.347 135.594 72.1225C135.509 71.8909 136.108 71.498 136.108 71.498Z" fill="#FFA47C"/>
<path d="M136.101 71.3296C136.101 71.3296 136.692 72.0313 136.897 72.1435C137.094 72.2628 137.249 72.2067 137.531 72.2418C137.77 72.2698 138.08 72.3961 138.137 72.5996C138.193 72.8031 137.827 72.7961 137.629 72.7961C137.376 72.8031 136.932 72.733 136.7 72.5856C136.467 72.4312 135.882 72.0944 135.777 71.919C135.664 71.7506 136.101 71.3296 136.101 71.3296Z" fill="#FFA47C"/>
<path d="M140.87 65.5219L131.601 79.2095L132.325 79.6961L141.594 66.0085L140.87 65.5219Z" fill="#7F7F7F"/>
<path d="M142.534 76.1731L130.76 67.3564L130.235 68.0519L142.009 76.8686L142.534 76.1731Z" fill="#7F7F7F"/>
<path d="M130 68.3754L128.493 67.1404L129.549 65.8563L131.057 67.0913C131.409 67.379 131.465 67.9053 131.17 68.2561C130.881 68.614 130.359 68.6631 130 68.3754Z" fill="#7F7F7F"/>
<path d="M142.687 75.7783L144.195 77.0133L143.138 78.2974L141.631 77.0624C141.278 76.7747 141.222 76.2485 141.518 75.8976C141.807 75.5398 142.335 75.4906 142.687 75.7783Z" fill="#7F7F7F"/>
<path d="M132.663 80.0447L131.627 81.6937L130.219 80.8095L131.254 79.1605C131.501 78.7746 132.015 78.6553 132.402 78.9009C132.79 79.1465 132.902 79.6587 132.663 80.0447Z" fill="#7F7F7F"/>
<path d="M140.525 65.4283L141.567 63.7863L142.976 64.6704L141.934 66.3124C141.687 66.6983 141.173 66.8176 140.785 66.572C140.391 66.3264 140.278 65.8142 140.525 65.4283Z" fill="#7F7F7F"/>
<path d="M135.882 70.249C135.882 70.249 135.375 72.0313 135.629 72.2488C135.882 72.4663 137.094 73.9469 137.228 74.1153C137.362 74.2837 137.538 74.5153 137.651 73.7995C137.77 73.0838 137.143 72.4593 137.27 72.2418C137.397 72.0242 138.306 71.3436 138.39 70.4033C138.475 69.463 137.897 69.021 137.629 68.8877C137.376 68.7543 135.756 69.5262 135.882 70.249Z" fill="#FFBD95"/>
<path d="M173.408 91.9034L168.181 92.5419C166.942 92.6963 165.807 91.8122 165.652 90.5772L162.511 65.1897C162.356 63.9547 163.243 62.825 164.483 62.6706L169.71 62.032C170.95 61.8777 172.084 62.7618 172.239 63.9968L175.381 89.3843C175.536 90.6193 174.648 91.756 173.408 91.9034Z" fill="#191919"/>
<path d="M167.454 62.3072L166.755 62.393L170.451 92.2701L171.15 92.1843L167.454 62.3072Z" fill="black"/>
<path d="M169.045 62.112L168.752 62.148L172.445 92.0251L172.738 91.9891L169.045 62.112Z" fill="black"/>
<path d="M170.179 61.98L169.885 62.016L173.584 91.8931L173.878 91.8571L170.179 61.98Z" fill="black"/>
<path d="M164.36 62.6967L164.066 62.7328L167.765 92.6099L168.059 92.5738L164.36 62.6967Z" fill="black"/>
<path d="M165.5 62.5523L165.207 62.5883L168.9 92.4654L169.193 92.4294L165.5 62.5523Z" fill="black"/>
<path d="M170.041 62.018C170.069 62.1303 170.098 62.2426 170.119 62.3618L173.232 87.5037C173.394 88.8019 172.563 89.9877 171.394 90.1281L165.927 90.8017C165.857 90.8087 165.786 90.8017 165.716 90.8017C166.012 91.9174 166.998 92.6963 168.069 92.563L173.535 91.8893C174.712 91.742 175.536 90.5631 175.374 89.265L172.26 64.1231C172.105 62.8951 171.133 62.004 170.041 62.018Z" fill="#979797"/>
<path d="M14.153 35.1219C14.4066 36.5463 15.6676 36.7639 17.0624 36.4271C18.4572 36.0902 25.2058 32.8765 25.4031 32.4625C25.6003 32.0485 24.9663 30.0556 24.3112 29.9574C23.649 29.8592 17.4991 31.7116 16.4002 32.1888C15.3012 32.6659 13.8571 33.4519 14.153 35.1219Z" fill="#FFA47C"/>
<path d="M14.7165 34.0062C14.942 33.501 15.3858 32.3432 17.5555 31.5713C18.9644 31.0731 21.7258 30.3293 21.7258 30.3293C21.7258 30.3293 22.5148 31.1362 22.8459 32.4063C23.2334 33.8799 22.8811 34.9044 22.8811 34.9044C22.8811 34.9044 17.1892 36.6937 15.9986 36.4551C15.6464 36.392 14.0966 35.4096 14.7165 34.0062Z" fill="#9A9393"/>
<path d="M12.3919 25.7753C12.3919 25.7753 12.2087 29.9504 11.9692 30.1539C11.2084 30.7854 8.45397 31.3187 7.93972 32.4133C7.31275 33.7395 10.7434 39.711 11.1872 41.6828C11.6381 43.6546 10.7082 46.7069 10.4123 48.6436C10.1165 50.5803 16.2241 52.917 16.4425 52.917C16.6679 52.917 18.6333 51.0855 19.0067 50.454C19.38 49.8225 19.0067 44.8615 19.0067 43.5984C19.0067 42.3354 19.3025 37.9006 19.3589 37.6129C19.7393 35.6762 19.2391 34.1465 19.1616 33.7395C19.0841 33.3326 19.1053 32.6449 18.901 32.3853C18.4924 31.866 16.2029 31.1783 16.1677 30.9187C16.1325 30.6591 15.8225 27.0313 15.8225 27.0313L12.3919 25.7753Z" fill="#FFBD95"/>
<path d="M11.9621 30.1539L15.6464 32.3432L16.1748 30.9117C16.1748 30.9117 18.591 31.859 18.908 32.3783C19.218 32.8975 19.373 34.0272 19.4716 34.4483C19.5773 34.8693 19.6336 36.806 19.4716 38.483C19.373 39.4654 19.4011 40.7636 19.2532 42.4336C19.1264 43.8651 19.2814 47.4297 19.2814 47.4297C19.2814 47.4297 17.9077 47.4858 15.7803 47.3806C13.3147 47.2613 10.835 46.8894 10.7223 46.7982C10.2503 46.4122 10.9055 42.609 10.8139 42.188C10.7223 41.767 7.70019 34.4904 7.65088 33.5361C7.60157 32.5817 8.09469 31.9502 8.82027 31.5924C9.54586 31.2415 11.9621 30.1539 11.9621 30.1539Z" fill="#B8B3B3"/>
<path d="M9.17954 31.431C9.17954 31.431 6.7844 32.7572 9.16545 34.5886C10.194 35.3815 15.111 36.6025 16.0339 36.8832C19.3377 37.8866 14.2445 45.1913 13.8571 45.7386C13.4697 46.293 13.4697 47.0438 13.4697 47.0438L10.9548 46.8754C9.96853 47.0718 10.8068 42.1599 10.4264 41.1425C10.0531 40.125 7.65088 34.3079 7.65088 33.5431C7.65088 31.8379 9.17954 31.431 9.17954 31.431Z" fill="#A39D9D"/>
<path d="M15.9634 28.5961L12.2369 27.2629L12.1453 29.4592L13.2936 30.1539L15.9634 28.5961Z" fill="#FFA47C"/>
<path d="M17.3442 22.1124C16.534 21.137 13.9135 19.9862 12.3285 21.5931C10.7434 23.2 11.0886 25.0455 11.6592 26.2384C12.103 27.1716 12.5891 27.712 13.6106 28.3505C13.8219 28.4768 15.7803 29.1013 16.2029 29.0171C16.4918 28.961 16.9778 26.9962 17.0553 27.0173C17.1328 27.0383 17.3723 26.9471 17.4076 26.7857C17.4569 26.5541 17.4005 25.0876 17.478 24.9402C17.5484 24.7999 18.274 23.2281 17.3442 22.1124Z" fill="#FFBD95"/>
<path d="M17.7809 23.0737C17.7809 23.0737 16.372 22.0071 14.2235 23.4737C13.7656 23.7895 14.315 25.4806 14.1953 25.6069C14.0614 25.7402 12.8427 24.2385 12.8709 24.428C13.1668 26.3366 12.4271 27.2629 12.258 27.2488C11.7438 27.2137 10.5321 24.414 11.5958 22.4282C12.6596 20.4424 14.942 20.5406 15.4633 20.73C15.9987 20.9195 17.6048 21.2563 17.7809 23.0737Z" fill="#8D3B26"/>
<path d="M13.7162 24.9543C13.8149 25.5648 13.7867 26.3577 13.4626 26.4068C13.1315 26.4559 12.7864 26.0068 12.6877 25.3963C12.5891 24.7859 12.7793 24.2526 13.1034 24.2035C13.4345 24.1614 13.6176 24.3508 13.7162 24.9543Z" fill="#FFBD95"/>
<path d="M16.1677 82.3392H13.7867V82.7813H16.1677V82.3392Z" fill="#191919"/>
<path d="M13.8853 79.2167C13.5753 79.6517 13.364 80.4938 13.3288 80.8797C13.2935 81.3498 13.5683 82.3322 13.8782 82.3322C14.7799 82.3322 15.8577 82.3673 16.7806 82.4936C17.7105 82.6199 18.0556 83.1532 20.4296 83.1462C21.12 83.1462 22.3458 83.1041 22.3458 82.8234C22.3458 81.5954 20.0704 82.0305 19.3448 81.3709C17.5132 79.6938 16.2945 79.2869 16.2945 79.2869C16.2945 79.2869 13.9487 79.1255 13.8853 79.2167Z" fill="#191919"/>
<path d="M12.9765 83.5953L10.5955 83.4479L10.6307 82.9918L13.0047 83.1392L12.9765 83.5953Z" fill="#191919"/>
<path d="M10.9266 79.785C10.5884 80.2131 10.3207 81.0692 10.2644 81.4691C10.1939 81.9463 10.4123 82.9848 10.7152 82.9988C11.6169 83.055 12.6877 83.1602 13.6035 83.3427C14.5193 83.5321 14.8363 84.1005 17.2032 84.2408C17.8936 84.2829 19.1405 84.318 19.1405 84.0233C19.1405 82.5568 16.9215 83.069 16.2452 82.3392C14.5334 80.4938 13.3428 80.0026 13.3428 80.0026C13.3428 80.0026 10.997 79.6938 10.9266 79.785Z" fill="#191919"/>
<path d="M14.9701 47.142C14.9701 47.142 11.8353 50.0541 11.6944 51.4294C11.5465 52.8047 12.885 57.2114 13.3569 60.6778C13.8289 64.1442 14.1248 64.8459 14.005 65.6669C13.8853 66.4878 12.8568 69.7999 12.9836 72.0102C13.1174 74.2136 13.5612 79.9885 13.5612 79.9885C13.5612 79.9885 14.2164 80.2832 15.3576 80.3955C16.4988 80.5078 17.2878 79.5254 17.2878 79.5254C17.2878 79.5254 18.2036 66.6352 18.3515 65.2739C18.4431 64.3968 19.1687 58.3201 19.387 53.3731C19.4575 51.7802 19.2743 48.0963 19.2743 47.4367L14.9701 47.142Z" fill="#00233F"/>
<path d="M10.518 46.8473C10.518 46.8473 9.72901 48.9033 9.75014 50.6154C9.77128 51.9978 10.1658 54.5379 10.6378 58.0043C11.1097 61.4707 11.159 64.6915 11.0393 65.5125C10.9195 66.3335 9.94034 69.7999 9.95443 72.0102C9.96852 74.6065 9.75014 80.585 9.75014 80.585C9.75014 80.585 10.7857 80.9218 11.9269 81.0341C13.0681 81.1463 14.5897 80.8095 14.5897 80.8095C14.5897 80.8095 15.6746 67.0913 16.1888 65.8212C17.013 63.7933 17.1328 57.4079 17.7034 53.0503C17.9359 51.2961 18.3585 47.3736 18.3585 47.3736L10.518 46.8473Z" fill="#002D56"/>
<path d="M11.9269 46.4754L10.3137 40.8478C10.3137 40.8478 9.75722 45.8579 10.4476 46.3771C11.145 46.8964 11.9269 46.4754 11.9269 46.4754Z" fill="#002D56"/>
<path d="M15.4844 31.4731L15.6464 32.3432L13.7092 31.1994L15.4844 31.4731Z" fill="#A39D9D"/>
<path d="M11.4549 30.3784L12.1453 29.4592L15.4844 31.4731L14.9561 32.6589L11.4549 30.3784Z" fill="#D7D4D4"/>
<path d="M15.6464 32.3432L15.9493 31.2626L16.4213 31.6274L15.6464 32.3432Z" fill="#A39D9D"/>
<path d="M15.9493 31.2626L16.7454 32.1677L16.8651 31.1994L16.2029 30.5679L15.9493 31.2626Z" fill="#CFCCCC"/>
<path d="M19.2602 46.8473C20.4437 45.6263 19.5772 35.8306 19.5772 35.8306L14.4981 36.2165L13.4203 46.5456C13.4203 46.5456 18.0627 48.0823 19.2602 46.8473Z" fill="#002D56"/>
<path d="M19.4434 46.5456L19.2884 47.8718C19.2884 47.8718 16.1607 48.0893 13.202 47.8718C10.2503 47.6543 10.3067 47.4508 10.3067 47.4508L10.4405 46.3842C10.4405 46.3842 11.3422 46.4684 13.4133 46.5526C15.428 46.6228 19.4434 46.5456 19.4434 46.5456Z" fill="#004877"/>
<path d="M13.4204 46.5456L12.7089 50.9242L11.9269 46.4754L13.4204 46.5456Z" fill="#00233F"/>
<path d="M14.4981 36.2165C14.3713 35.2622 12.8779 31.1994 10.1024 31.2626C9.81354 31.2696 9.17953 31.4239 9.17953 31.4239L10.7716 30.6872C10.7716 30.6872 11.3986 30.4416 12.6525 31.3608C13.9064 32.28 15.4069 34.4342 15.59 36.1253C15.7803 37.8234 14.6461 37.3673 14.4981 36.2165Z" fill="#002D56"/>
<path d="M19.5773 35.8306C19.5773 35.8306 19.3377 32.3432 18.1261 31.8029C17.6048 31.5713 17.3794 31.431 17.3794 31.431C17.3794 31.431 18.2811 33.108 18.4783 34.5044C18.6826 35.9008 18.739 36.8972 19.2039 36.8832C19.6547 36.8691 19.5773 35.8306 19.5773 35.8306Z" fill="#002D56"/>
<path d="M9.0598 32.287C7.74952 32.9186 7.85519 34.1535 8.53147 35.3675C9.20774 36.5814 14.6391 42.9529 15.0899 43.023C15.5408 43.0932 17.3019 41.9564 17.2315 41.3109C17.161 40.6653 13.1808 34.4833 12.4482 33.5852C11.7085 32.687 10.5955 31.5502 9.0598 32.287Z" fill="#FFBD95"/>
<path d="M9.37678 31.6204C9.93329 31.6345 11.7085 32.4133 12.3214 33.2624C13.1949 34.4693 15.7168 37.4726 15.7168 37.4726C15.7168 37.4726 15.266 38.5041 14.2023 39.29C12.9765 40.2022 11.8917 40.2654 11.8917 40.2654C11.8917 40.2654 8.08059 35.6903 7.85516 34.4974C7.79176 34.1465 7.83403 31.5853 9.37678 31.6204Z" fill="#CFCCCC"/>
<path d="M14.6109 41.5565C13.843 42.9388 16.8369 44.272 18.3374 44.8474C19.8309 45.4228 24.3605 46.6648 24.3605 46.6648L25.0861 45.093C25.0861 45.093 21.6695 42.5108 17.633 40.7004C17.2173 40.518 15.3858 40.1531 14.6109 41.5565Z" fill="#FFBD95"/>
<path d="M27.0092 48.2367C27.1079 48.0963 27.0726 47.9069 26.9318 47.8086L25.8539 47.0578C25.7131 46.9596 25.5228 46.9946 25.4242 47.135C25.3256 47.2753 25.3608 47.4648 25.5017 47.563L26.5795 48.3138C26.7204 48.4121 26.9177 48.377 27.0092 48.2367Z" fill="#FFBD95"/>
<path d="M27.3896 47.8016C27.4883 47.6613 27.453 47.4718 27.3122 47.3736L26.2343 46.6227C26.0935 46.5245 25.9033 46.5596 25.8046 46.6999C25.706 46.8403 25.7412 47.0297 25.8821 47.128L26.9599 47.8788C27.0938 47.97 27.291 47.9419 27.3896 47.8016Z" fill="#FFBD95"/>
<path d="M27.7207 47.3525C27.8194 47.2122 27.7841 47.0227 27.6432 46.9245L26.5654 46.1736C26.4245 46.0754 26.2343 46.1105 26.1357 46.2508C26.0371 46.3912 26.0723 46.5806 26.2132 46.6789L27.291 47.4297C27.4319 47.5279 27.6292 47.4928 27.7207 47.3525Z" fill="#FFBD95"/>
<path d="M28.0095 46.8894C28.1082 46.7491 28.0729 46.5596 27.9321 46.4614L26.8542 45.7105C26.7134 45.6123 26.5232 45.6474 26.4245 45.7877C26.3259 45.9281 26.3611 46.1175 26.502 46.2158L27.5798 46.9666C27.7207 47.0648 27.9109 47.0297 28.0095 46.8894Z" fill="#FFBD95"/>
<path d="M23.9871 44.5668C23.9871 44.5668 26.1216 44.9808 26.495 45.1772C26.8683 45.3737 28.0236 46.5596 28.0236 46.5596C28.0236 46.5596 27.298 46.721 27.1219 47.0648C26.9529 47.4016 26.5865 48.3138 26.5865 48.3138C26.5865 48.3138 25.234 47.8226 24.7057 47.4086C24.1773 46.9946 23.7617 46.4614 23.7617 46.4614L23.9871 44.5668Z" fill="#FFBD95"/>
<path d="M23.494 32.4414C24.2196 33.8448 26.9951 32.1046 28.3124 31.1924C29.6298 30.2732 33.1802 27.2208 33.1802 27.2208L32.2715 25.7472C32.2715 25.7472 28.2138 27.1366 24.4591 29.4732C24.0787 29.7048 22.7543 31.017 23.494 32.4414Z" fill="#FFA47C"/>
<path d="M35.9699 25.8946C35.9065 25.7402 35.7304 25.656 35.5754 25.7191L34.3496 26.1963C34.1947 26.2594 34.1101 26.4349 34.1735 26.5963C34.2369 26.7506 34.413 26.8278 34.568 26.7717L35.7938 26.2945C35.9558 26.2314 36.0333 26.0489 35.9699 25.8946Z" fill="#FFA47C"/>
<path d="M35.8149 25.3402C35.7515 25.1858 35.5754 25.1016 35.4204 25.1648L34.1946 25.6419C34.0397 25.7051 33.9551 25.8805 34.0185 26.0419C34.0819 26.1963 34.258 26.2735 34.413 26.2173L35.6388 25.7402C35.7937 25.677 35.8712 25.5016 35.8149 25.3402Z" fill="#FFA47C"/>
<path d="M35.6247 24.8139C35.5613 24.6596 35.3852 24.5754 35.2302 24.6385L34.0044 25.1157C33.8494 25.1788 33.7649 25.3543 33.8283 25.5156C33.8917 25.67 34.0678 25.7472 34.2228 25.6911L35.4486 25.2139C35.6106 25.1508 35.6881 24.9683 35.6247 24.8139Z" fill="#FFA47C"/>
<path d="M35.3993 24.3157C35.3359 24.1614 35.1597 24.0772 35.0048 24.1403L33.779 24.6175C33.624 24.6806 33.5395 24.8561 33.6029 25.0174C33.6663 25.1718 33.8424 25.249 33.9974 25.1929L35.2231 24.7157C35.3781 24.6526 35.4627 24.4771 35.3993 24.3157Z" fill="#FFA47C"/>
<path d="M31.2218 26.358C31.2218 26.358 32.7575 24.8213 33.1309 24.6248C33.5043 24.4213 35.1386 24.1266 35.1386 24.1266C35.1386 24.1266 34.8709 24.8213 35.0541 25.1511C35.2372 25.4809 35.8008 26.2879 35.8008 26.2879C35.8008 26.2879 34.6384 27.1369 33.9974 27.3404C33.3563 27.5439 32.68 27.6 32.68 27.6L31.2218 26.358Z" fill="#FFA47C"/>
<path d="M11.3704 22.8211C11.3704 22.8211 12.0467 20.0143 15.0265 20.3862C18.0064 20.7581 17.957 23.8386 17.957 23.8386C17.957 23.8386 16.3157 23.9649 14.1037 23.6912C11.8917 23.4176 11.3704 22.8211 11.3704 22.8211Z" fill="#002D56"/>
<path d="M13.1315 23.5368C13.1315 23.5368 18.8658 25.1367 18.9503 25.0946C19.0348 25.0525 19.4223 24.7999 19.5984 24.7438C19.7745 24.6876 19.9999 24.8841 20.0633 24.7859C20.1267 24.6876 17.9359 23.586 17.9359 23.586C17.9359 23.586 16.6961 23.7193 16.0832 23.7614C15.4703 23.8105 13.1668 23.3404 13.1315 23.5368Z" fill="#004877"/>
<path d="M38.2804 37.1919C36.9349 37.1919 36.4277 35.9148 36.3432 35.2412L36.7306 35.1921C36.7377 35.2552 36.949 36.799 38.2804 36.799C39.5837 36.799 40.9855 34.9044 40.9855 31.852C40.9855 31.2485 40.9715 30.624 40.9644 30.0065C40.9221 27.6698 40.8799 25.656 41.4293 25.1016C41.5421 24.9894 41.6759 24.9332 41.8238 24.9332H46.6634C48.3471 24.9332 49.7137 26.2945 49.7137 27.9716V33.2133H49.3263V27.9716C49.3263 26.512 48.1287 25.3192 46.6634 25.3192H41.8238C41.7957 25.3192 41.7604 25.3262 41.7111 25.3753C41.2744 25.8174 41.3166 28.0418 41.3589 30.0065C41.373 30.624 41.38 31.2555 41.38 31.859C41.373 34.8482 40.0204 37.1919 38.2804 37.1919Z" fill="black"/>
<path d="M36.1249 46.0684H32.0813V37.9427C32.0813 37.2621 32.6378 36.7077 33.3211 36.7077H36.1178V46.0684H36.1249Z" fill="#9A9393"/>
<path d="M36.9068 18.2952H36.1249V35.0096H36.9068V18.2952Z" fill="#3D3D3D"/>
<path d="M37.4492 26.505H35.5754V30.1047H37.4492V26.505Z" fill="#9A9393"/>
<path d="M36.9843 48.0332H32.0813V83.3006H36.9843V48.0332Z" fill="#0F6D38"/>
<path d="M51.0874 29.6557H48.7627V83.3076H51.0874V29.6557Z" fill="#0F6D38"/>
<path d="M48.7627 45.0159H29.6298V48.5594H48.7627V45.0159Z" fill="#0F6D38"/>
<path d="M45.5082 24.1263H33.2789V26.505H45.5082V24.1263Z" fill="#0F6D38"/>
<path d="M51.091 29.6828L45.5121 24.1257L43.8234 25.8077L49.4024 31.3649L51.091 29.6828Z" fill="#0F6D38"/>
<path d="M55.1662 81.2305H27.601V84.0303H55.1662V81.2305Z" fill="#0F6D38"/>
<path d="M50.0025 64.3617H34.3989V66.7264H50.0025V64.3617Z" fill="#0F6D38"/>
<path d="M39.0906 25.3542C39.0906 26.3857 38.2523 27.2208 37.2167 27.2208C36.1812 27.2208 35.3429 26.3857 35.3429 25.3542C35.3429 24.3227 36.1812 23.4877 37.2167 23.4877C38.2523 23.4877 39.0906 24.3227 39.0906 25.3542Z" fill="#191919"/>
<path d="M37.9071 34.2869H35.1949V35.0026H37.9071V34.2869Z" fill="#9A9393"/>
<path d="M38.4989 35.0096H34.5821V35.4306H38.4989V35.0096Z" fill="#3D3D3D"/>
<path d="M38.9286 45.0369L34.1031 50.3488V80.3955L36.9843 81.2305H32.0813V45.0159L38.9286 45.0369Z" fill="#0D4A27"/>
<path d="M25.5158 54.3064L22.381 51.1838C21.7047 50.5102 21.7047 49.4155 22.381 48.7419L35.3993 35.7745C36.0756 35.1008 37.1745 35.1008 37.8508 35.7745L40.9856 38.897C41.6619 39.5707 41.6619 40.6653 40.9856 41.339L27.9603 54.3064C27.291 54.973 26.1851 54.973 25.5158 54.3064Z" fill="#191919"/>
<path d="M39.6091 37.5359L39.2107 37.1389L23.7419 52.5428L24.1404 52.9398L39.6091 37.5359Z" fill="black"/>
<path d="M40.534 38.4487L40.3646 38.28L24.898 53.6861L25.0674 53.8548L40.534 38.4487Z" fill="black"/>
<path d="M41.1809 39.0976L41.0116 38.9289L25.545 54.335L25.7144 54.5037L41.1809 39.0976Z" fill="black"/>
<path d="M37.8395 35.7698L37.6701 35.6011L22.2057 51.0094L22.3751 51.1781L37.8395 35.7698Z" fill="black"/>
<path d="M38.4937 36.4249L38.3243 36.2562L22.8577 51.6623L23.0271 51.831L38.4937 36.4249Z" fill="black"/>
<path d="M41.0842 39.0303C41.0349 39.1005 40.9856 39.1637 40.9222 39.2268L27.911 52.1942C27.2347 52.8679 26.1357 52.8679 25.4595 52.1942L22.3247 49.0717C22.2824 49.0296 22.2542 48.9875 22.219 48.9383C21.7188 49.612 21.7681 50.5733 22.381 51.1838L25.5158 54.3063C26.1921 54.98 27.291 54.98 27.9673 54.3063L40.9785 41.3389C41.6125 40.7074 41.6407 39.704 41.0842 39.0303Z" fill="#979797"/>
<path d="M48.7627 30.7293V81.2305H49.5165V30.3293L48.7627 30.7293Z" fill="#0D4A27"/>
<defs>
<linearGradient id="paint0_linear_122_55" x1="116.062" y1="28.3452" x2="117.573" y2="28.3452" gradientUnits="userSpaceOnUse">
<stop/>
<stop offset="0.07" stop-color="#313131"/>
<stop offset="0.1581" stop-color="#676767"/>
<stop offset="0.2471" stop-color="#959595"/>
<stop offset="0.3353" stop-color="#BBBBBB"/>
<stop offset="0.4223" stop-color="#D9D9D9"/>
<stop offset="0.508" stop-color="#EEEEEE"/>
<stop offset="0.5916" stop-color="#FBFBFB"/>
<stop offset="0.6709" stop-color="white"/>
</linearGradient>
<linearGradient id="paint1_linear_122_55" x1="99.1861" y1="73.5482" x2="99.1861" y2="58.4128" gradientUnits="userSpaceOnUse">
<stop stop-color="#9FB2B2"/>
<stop offset="0.3294" stop-color="#A3B4B4"/>
<stop offset="0.6368" stop-color="#AEBABA"/>
<stop offset="0.9345" stop-color="#C1C3C3"/>
<stop offset="1" stop-color="#C6C6C6"/>
</linearGradient>
<linearGradient id="paint2_linear_122_55" x1="99.186" y1="71.6381" x2="99.186" y2="57.9103" gradientUnits="userSpaceOnUse">
<stop stop-color="#9FB2B2"/>
<stop offset="0.3294" stop-color="#A3B4B4"/>
<stop offset="0.6368" stop-color="#AEBABA"/>
<stop offset="0.9345" stop-color="#C1C3C3"/>
<stop offset="1" stop-color="#C6C6C6"/>
</linearGradient>
<linearGradient id="paint3_linear_122_55" x1="99.186" y1="67.3184" x2="99.186" y2="62.1389" gradientUnits="userSpaceOnUse">
<stop stop-color="#9FB2B2"/>
<stop offset="0.3294" stop-color="#A3B4B4"/>
<stop offset="0.6368" stop-color="#AEBABA"/>
<stop offset="0.9345" stop-color="#C1C3C3"/>
<stop offset="1" stop-color="#C6C6C6"/>
</linearGradient>
</defs>
</svg>
