<svg width="21" height="15" viewBox="0 0 21 15" fill="none" xmlns="http://www.w3.org/2000/svg">
<path d="M10.5627 14.3555C7.69637 14.3555 4.83008 14.3565 1.96479 14.3555C1.01676 14.3555 0.684595 14.0429 0.684595 13.1516C0.683585 10.1477 0.683585 7.1429 0.684595 4.13903C0.684595 3.31742 1.04301 2.96807 1.90421 2.96807C7.68628 2.96613 13.4694 2.96613 19.2514 2.96807C20.1278 2.96807 20.467 3.29903 20.467 4.13032C20.467 7.1671 20.468 10.2029 20.467 13.2397C20.467 14.0177 20.1257 14.3535 19.311 14.3545C16.3952 14.3574 13.4795 14.3555 10.5627 14.3555ZM9.09166 8.77161C9.37738 8.88387 9.58537 8.99516 9.80849 9.04839C10.3507 9.1771 10.491 9.43452 10.3456 9.97839C10.1245 10.8 10.0195 11.6497 9.86503 12.4868C9.89935 12.4965 9.93469 12.5061 9.96902 12.5148C10.6626 11.2094 11.3562 9.90387 12.072 8.55871C11.7177 8.41936 11.4188 8.27903 11.1048 8.18419C10.7959 8.09032 10.697 7.96548 10.7717 7.62968C10.9817 6.6929 11.1371 5.74355 11.3138 4.8C11.2845 4.78839 11.2553 4.77774 11.226 4.76613C10.5233 6.08419 9.82061 7.40323 9.09166 8.77161ZM16.3609 6.93387C16.789 6.93387 17.1625 6.97645 17.5179 6.91742C17.7168 6.88452 18.0076 6.70839 18.0419 6.55355C18.1116 6.23516 17.8248 6.12968 17.524 6.12774C17.1454 6.12484 16.7668 6.12678 16.3619 6.12678C16.3619 5.76484 16.3619 5.47645 16.3619 5.18807C16.3619 4.88129 16.4063 4.50677 15.9399 4.52032C15.4845 4.53387 15.5391 4.91032 15.5381 5.21419C15.537 5.49968 15.5381 5.78419 15.5381 6.12581C15.2109 6.12581 14.9303 6.12 14.6496 6.12774C14.3094 6.13645 13.848 6.04839 13.855 6.54484C13.8611 6.99871 14.2942 6.93387 14.6264 6.93581C14.9212 6.93677 15.216 6.93581 15.5391 6.93581C15.5391 7.37129 15.4967 7.74581 15.5582 8.10387C15.5875 8.27323 15.8167 8.41065 15.955 8.56258C16.0913 8.41161 16.3165 8.27516 16.3437 8.10774C16.4023 7.74678 16.3609 7.37226 16.3609 6.93387ZM5.18344 6.93387C5.71854 6.93387 6.25767 6.96774 6.78772 6.91548C6.97652 6.8971 7.1421 6.67258 7.31878 6.54194C7.14916 6.40355 6.9846 6.15097 6.80993 6.14516C5.74075 6.10839 4.66854 6.10742 3.60036 6.14516C3.42469 6.15097 3.25911 6.40548 3.08849 6.54581C3.2682 6.67548 3.43782 6.89613 3.62964 6.91548C4.14253 6.96774 4.6645 6.93387 5.18344 6.93387Z" fill="#274698"/>
<path d="M7.41669 2.33419C5.9275 2.33419 4.49385 2.33419 2.98549 2.33419C2.98549 1.89483 2.95924 1.45161 3.00366 1.01516C3.01476 0.908705 3.25404 0.743221 3.39135 0.741285C4.59683 0.719995 5.80231 0.718059 7.00779 0.744188C7.14611 0.747092 7.38135 0.944511 7.3975 1.07129C7.44899 1.47677 7.41669 1.8929 7.41669 2.33419Z" fill="#274698"/>
<path d="M13.7481 2.32935C13.7481 1.90161 13.7117 1.48451 13.7683 1.07903C13.7864 0.945481 14.0419 0.745158 14.1933 0.741287C15.3816 0.714191 16.571 0.724836 17.7593 0.727739C18.044 0.728707 18.1904 0.871932 18.1904 1.14774C18.1904 1.53 18.1904 1.91322 18.1904 2.32935C16.6951 2.32935 15.2484 2.32935 13.7481 2.32935Z" fill="#274698"/>
</svg>
