<svg width="19" height="17" viewBox="0 0 19 17" fill="none" xmlns="http://www.w3.org/2000/svg">
<path d="M11.1621 16.5194C8.92002 16.487 7.13986 15.84 5.64424 14.5428C4.28917 13.3672 3.5018 11.9041 3.22807 10.1938C3.203 10.0365 3.21588 9.90079 3.31709 9.76789C3.40358 9.65442 3.4436 9.4952 3.55309 9.4156C3.65683 9.34009 3.82452 9.34181 3.96392 9.30945C5.26493 9.00807 6.2147 8.27112 6.90593 7.21638C7.29973 6.61534 7.56932 5.96943 7.66501 5.26699C7.75679 4.59303 7.68295 3.93331 7.429 3.29495C7.39312 3.20499 7.3945 3.13444 7.45177 3.05462C7.52009 2.95948 7.58312 2.85959 7.63533 2.75582C7.69652 2.63415 7.79221 2.56511 7.92447 2.5155C8.73071 2.21239 9.56363 2.03074 10.432 1.97659C13.8474 1.76366 17.1786 3.74994 18.3202 6.97778C18.5272 7.56329 18.6583 8.16346 18.6949 8.78069C18.8295 11.0528 18.0166 12.9811 16.2704 14.5512C15.1656 15.5447 13.8361 16.1509 12.3276 16.3949C11.8763 16.468 11.4162 16.4932 11.1621 16.5194ZM10.9573 12.865C13.0961 12.8631 14.8257 11.2519 14.8261 9.26156C14.8264 7.23623 13.0754 5.60505 10.9014 5.60548C8.7636 5.60591 7.0329 7.23278 7.05636 9.25962C7.08097 11.3721 8.9329 12.8792 10.9573 12.865Z" fill="#274698"/>
<path d="M5.73861 0.550781C6.02982 0.708269 6.31781 0.863814 6.61868 1.02648C6.22212 1.67067 5.82855 2.30989 5.42968 2.95753C5.56333 3.03045 5.68823 3.09841 5.82924 3.17521C6.22511 2.53318 6.61914 1.89417 7.02076 1.24265C7.27126 1.37813 7.51485 1.50994 7.76949 1.64758C7.68208 1.79018 7.59881 1.92631 7.51508 2.06223C7.22755 2.52908 6.93864 2.99529 6.6541 3.46365C6.63179 3.50054 6.61684 3.56418 6.63547 3.59676C7.07114 4.3596 7.11944 5.15524 6.84341 5.96727C6.54369 6.84898 6.01441 7.58378 5.1762 8.0968C4.69453 8.39171 4.16271 8.54941 3.58443 8.56537C3.54372 8.56645 3.48874 8.60464 3.46689 8.64002C3.11311 9.20784 2.76347 9.77803 2.41269 10.3476C2.39175 10.3814 2.36944 10.4142 2.34207 10.4565C2.09226 10.321 1.84844 10.1886 1.59587 10.0516C1.99818 9.39812 2.39405 8.75479 2.79844 8.09766C2.66732 8.02647 2.54012 7.95765 2.39796 7.88063C1.9968 8.5315 1.59886 9.17677 1.19333 9.83433C0.896826 9.67426 0.606536 9.51742 0.305664 9.35497C0.377432 9.23826 0.445519 9.12737 0.513836 9.01648C0.916378 8.36301 1.31754 7.70847 1.72445 7.05738C1.75666 7.00582 1.82359 6.95857 1.88478 6.93959C2.52931 6.74219 3.12783 6.47058 3.62767 6.02983C4.06863 5.64086 4.30187 5.15653 4.38261 4.60079C4.46013 4.06685 4.40654 3.54045 4.28347 3.01729C4.27312 2.97285 4.27542 2.91417 4.29865 2.8762C4.76721 2.10904 5.23968 1.34383 5.71146 0.578395C5.7156 0.573002 5.72181 0.568256 5.73861 0.550781Z" fill="#274698"/>
<path d="M8.64039 9.22229C8.64361 8.0435 9.67412 7.08369 10.9305 7.0893C12.2152 7.09513 13.237 8.06443 13.2328 9.27363C13.2289 10.4434 12.194 11.3881 10.9204 11.3846C9.66998 11.3812 8.63717 10.4015 8.64039 9.22229ZM12.7843 9.24472C12.7829 8.28556 11.9548 7.50697 10.9363 7.50718C9.91311 7.5074 9.0894 8.27542 9.08963 9.22962C9.08986 10.1886 9.91472 10.9613 10.9397 10.9628C11.9702 10.9641 12.7857 10.2047 12.7843 9.24472Z" fill="#274698"/>
<path d="M13.8749 8.06315C14.1353 8.06185 14.3511 8.26357 14.3508 8.50799C14.3506 8.74725 14.1376 8.94723 13.8818 8.94831C13.6253 8.94939 13.4024 8.74121 13.4038 8.50174C13.4052 8.26227 13.6175 8.06444 13.8749 8.06315Z" fill="#274698"/>
<path d="M9.43123 12.1233C9.16785 12.1226 8.95554 11.9222 8.95853 11.6771C8.96152 11.4383 9.17751 11.2396 9.43238 11.2407C9.69161 11.242 9.90646 11.4472 9.90416 11.6912C9.90209 11.9341 9.69415 12.1239 9.43123 12.1233Z" fill="#274698"/>
<path d="M11.2556 11.9833C11.2563 11.7393 11.4631 11.543 11.7207 11.5419C11.9765 11.541 12.1989 11.7488 12.1985 11.9887C12.198 12.2286 11.9866 12.4255 11.7288 12.4264C11.4631 12.4275 11.2552 12.2325 11.2556 11.9833Z" fill="#274698"/>
<path d="M13.5735 11.1035C13.3113 11.1029 13.0985 10.9018 13.1008 10.6569C13.1029 10.4177 13.3164 10.2214 13.5738 10.2218C13.8349 10.2222 14.0472 10.4242 14.0449 10.6697C14.0421 10.9126 13.8339 11.1042 13.5735 11.1035Z" fill="#274698"/>
<path d="M12.4594 6.32798C12.7221 6.32949 12.9342 6.53077 12.9305 6.77542C12.9268 7.01639 12.7159 7.2084 12.4562 7.20732C12.1898 7.20624 11.9858 7.011 11.9888 6.75988C11.9918 6.51395 12.1961 6.32647 12.4594 6.32798Z" fill="#274698"/>
<path d="M8.47866 9.96507C8.47889 10.2091 8.27347 10.4054 8.01516 10.4073C7.75523 10.4093 7.53832 10.2073 7.53809 9.96334C7.53786 9.72323 7.74741 9.52345 8.00366 9.52C8.2622 9.51655 8.4782 9.71913 8.47866 9.96507Z" fill="#274698"/>
<path d="M10.1426 6.92751C9.87553 6.92837 9.66505 6.73507 9.66528 6.48913C9.66551 6.24966 9.87691 6.04946 10.1318 6.0473C10.3905 6.04515 10.6082 6.24751 10.6088 6.49129C10.6098 6.73421 10.4041 6.92643 10.1426 6.92751Z" fill="#274698"/>
<path d="M8.29545 8.24739C8.03207 8.24588 7.82114 8.04503 7.82551 7.79974C7.82988 7.55854 8.04196 7.3674 8.30235 7.36977C8.56043 7.37215 8.7716 7.56868 8.77367 7.80836C8.77574 8.05366 8.56319 8.24868 8.29545 8.24739Z" fill="#274698"/>
</svg>
