<svg width="30" height="31" viewBox="0 0 30 31" fill="none" xmlns="http://www.w3.org/2000/svg">
<path d="M21.5344 17.4808C20.8551 17.2171 20.3221 17.7412 19.7494 18.1796C16.7442 20.4784 13.7405 22.782 10.7178 25.0581C10.2803 25.3882 10.0576 25.7392 9.97325 26.2892C9.58189 28.8614 7.49462 30.6765 5.02871 30.6425C2.56757 30.6085 0.564616 28.8064 0.166888 26.2714C-0.243566 23.6604 1.55098 21.0802 4.14575 20.6466C4.82984 20.5318 5.25939 20.2438 5.65871 19.6744C7.93212 16.4276 10.258 13.2181 12.5314 9.96972C12.8162 9.56367 13.0103 9.01203 13.0437 8.51539C13.3428 4.02624 16.5564 0.688893 20.9887 0.320054C25.0058 -0.0131947 28.7635 2.87119 29.7292 7.02871C30.9383 12.2475 27.0883 17.2397 21.5344 17.4808ZM21.4819 1.32465C17.3694 1.32789 14.0635 4.67656 14.046 8.85835C14.0285 13.0822 17.3392 16.4665 21.4851 16.4632C25.5944 16.4616 28.9003 13.1178 28.9321 8.93438C28.9623 4.74127 25.6151 1.32304 21.4819 1.32465ZM17.0369 16.4212C15.9948 15.3308 14.9783 14.268 13.9426 13.1857C11.9953 15.9213 10.0162 18.7021 8.10234 21.394C8.45552 21.8098 8.74825 22.1543 9.07121 22.5345C11.6596 20.5593 14.2178 18.6099 16.7728 16.6573C16.8905 16.5635 16.9987 16.4551 17.0369 16.4212ZM5.05893 21.5477C2.86666 21.559 1.12621 23.3272 1.11189 25.558C1.09757 27.8147 2.8778 29.6282 5.09393 29.6136C7.31325 29.6007 9.07757 27.771 9.04257 25.5192C9.00916 23.2916 7.24802 21.5364 5.05893 21.5477ZM7.16689 20.9799C9.14757 18.1958 11.0614 15.4538 13.0405 12.7603C13.5194 12.11 13.618 11.5648 13.1519 10.8433C10.8371 14.0965 8.53825 17.3287 6.2028 20.611C6.57189 20.7518 6.84075 20.8553 7.16689 20.9799ZM19.2673 17.2866C18.5817 16.8272 18.1044 16.879 17.5348 17.3255C15.1262 19.2133 12.6778 21.0494 10.2453 22.905C10.0194 23.0781 9.80302 23.2641 9.58507 23.442C9.71871 23.7785 9.82689 24.0454 9.96052 24.3819C13.0708 22.0104 16.1301 19.6776 19.2673 17.2866Z" fill="#274698"/>
<path d="M21.4819 1.32466C25.6151 1.32142 28.9623 4.74127 28.9321 8.93438C28.9019 13.1178 25.5944 16.4616 21.4851 16.4632C17.3391 16.4648 14.0285 13.0806 14.046 8.85835C14.0635 4.67656 17.3694 1.32789 21.4819 1.32466ZM21.493 2.3422C17.9007 2.33896 15.0196 5.26379 15.0244 8.9085C15.0291 12.5386 17.9389 15.4797 21.5153 15.4699C25.0582 15.4586 27.9235 12.5386 27.933 8.92953C27.9426 5.26379 25.0869 2.34543 21.493 2.3422Z" fill="#274698"/>
<path d="M5.05895 21.5477C7.24804 21.5364 9.00758 23.2916 9.04258 25.5208C9.07758 27.771 7.31327 29.6007 5.09395 29.6152C2.87781 29.6282 1.09758 27.8163 1.1119 25.5596C1.12622 23.3288 2.86667 21.5606 5.05895 21.5477ZM5.05418 22.5652C3.38531 22.5749 2.10145 23.8999 2.11258 25.6033C2.12372 27.2987 3.42827 28.6058 5.10031 28.5977C6.76281 28.588 8.05463 27.2534 8.04349 25.5564C8.03395 23.8626 6.72622 22.5555 5.05418 22.5652Z" fill="#274698"/>
<path d="M21.4931 2.3422C25.0885 2.34543 27.9426 5.26379 27.9331 8.92791C27.9235 12.537 25.0583 15.4586 21.5153 15.4683C17.939 15.4797 15.0292 12.537 15.0244 8.90688C15.0181 5.26379 17.8992 2.33896 21.4931 2.3422ZM21.4978 3.33709C18.491 3.33224 16.0299 5.80896 16.0076 8.86158C15.9837 11.8948 18.4512 14.4443 21.4294 14.467C24.4569 14.4912 26.9547 11.9692 26.9547 8.88908C26.9531 5.83646 24.5015 3.34194 21.4978 3.33709Z" fill="#274698"/>
<path d="M5.05411 22.5652C6.72615 22.5555 8.03388 23.8643 8.04502 25.5564C8.05615 27.2534 6.76274 28.588 5.10183 28.5977C3.42979 28.6074 2.12524 27.3003 2.11411 25.6033C2.10138 23.8999 3.38524 22.5733 5.05411 22.5652ZM7.06502 25.5564C7.05229 24.4596 6.15502 23.5585 5.07479 23.5601C3.99456 23.5618 3.10047 24.4628 3.09252 25.5629C3.08297 26.6936 4.01047 27.6254 5.12093 27.6012C6.19956 27.5769 7.07774 26.6532 7.06502 25.5564Z" fill="#274698"/>
<path d="M21.5073 4.34169C22.3298 4.35787 23.0091 5.09069 22.9725 5.92705C22.9375 6.73915 22.2598 7.39108 21.4611 7.37814C20.6371 7.3652 19.9482 6.62914 19.988 5.80087C20.0277 5.0001 20.7293 4.32713 21.5073 4.34169ZM22.1611 5.88499C21.8684 5.65689 21.6807 5.39968 21.5391 5.42556C21.3466 5.45953 21.1048 5.68278 21.0523 5.87205C21.0205 5.98853 21.3052 6.33148 21.4421 6.32825C21.6425 6.32501 21.8366 6.10015 22.1611 5.88499Z" fill="#274698"/>
<path d="M18.4735 10.4211C17.651 10.4016 16.9907 9.67529 17.0257 8.82761C17.0607 8.00743 17.7273 7.36843 18.5307 7.38461C19.366 7.4024 20.0071 8.10449 19.9737 8.96835C19.9419 9.78368 19.2657 10.4389 18.4735 10.4211ZM18.4942 8.20964C18.281 8.51701 18.0344 8.72084 18.0662 8.8632C18.1076 9.05571 18.3398 9.28704 18.5323 9.33719C18.6421 9.36469 18.9667 9.05894 18.9571 8.9182C18.9428 8.71599 18.7153 8.52671 18.4942 8.20964Z" fill="#274698"/>
<path d="M24.4713 10.4211C23.6838 10.4243 23.0045 9.74809 22.9806 8.94085C22.9567 8.09317 23.6297 7.38623 24.4633 7.38299C25.289 7.37976 25.989 8.10126 25.9651 8.93114C25.9445 9.72544 25.2476 10.4194 24.4713 10.4211ZM24.4951 9.54426C24.6908 9.26116 24.9358 9.05733 24.904 8.92144C24.8563 8.72246 24.6097 8.57363 24.4474 8.40215C24.2915 8.58495 24.0513 8.74996 24.0131 8.95541C23.9876 9.08644 24.2629 9.27572 24.4951 9.54426Z" fill="#274698"/>
<path d="M22.9743 11.9449C22.9663 12.7878 22.2663 13.4624 21.4295 13.4316C20.6293 13.4025 19.9786 12.7166 19.9881 11.9126C19.9977 11.0665 20.6897 10.4065 21.5393 10.434C22.3459 10.4599 22.9822 11.1312 22.9743 11.9449ZM21.4629 11.2332C21.2545 11.5518 21.0159 11.7605 21.0493 11.9029C21.0938 12.097 21.3277 12.3267 21.5186 12.372C21.63 12.3995 21.9497 12.0889 21.9418 11.9466C21.929 11.746 21.6968 11.5599 21.4629 11.2332Z" fill="#274698"/>
<path d="M22.1611 5.88499C21.8366 6.10015 21.6425 6.32501 21.442 6.32986C21.3052 6.3331 21.0204 5.99014 21.0523 5.87367C21.1048 5.68278 21.3466 5.46115 21.5391 5.42718C21.6807 5.39968 21.8684 5.65689 22.1611 5.88499Z" fill="#274698"/>
<path d="M18.4941 8.20965C18.7152 8.52672 18.9427 8.71437 18.9554 8.91659C18.965 9.05733 18.6404 9.3647 18.5307 9.33558C18.3398 9.28705 18.1059 9.05571 18.0645 8.86159C18.0343 8.72085 18.2809 8.51701 18.4941 8.20965Z" fill="#274698"/>
<path d="M24.4951 9.54426C24.2628 9.27572 23.9876 9.08645 24.0115 8.95703C24.0512 8.75158 24.2915 8.58657 24.4458 8.40377C24.6081 8.57363 24.8531 8.72408 24.9024 8.92306C24.9374 9.05733 24.6924 9.26116 24.4951 9.54426Z" fill="#274698"/>
<path d="M21.4627 11.2332C21.6965 11.5599 21.9272 11.746 21.9415 11.9466C21.9511 12.0889 21.6313 12.3995 21.5184 12.372C21.3275 12.3251 21.0936 12.0954 21.049 11.9029C21.0156 11.7605 21.2543 11.5518 21.4627 11.2332Z" fill="#274698"/>
</svg>
