<svg width="16" height="21" viewBox="0 0 16 21" fill="none" xmlns="http://www.w3.org/2000/svg">
<path d="M2.3519 20.685C2.02997 20.5557 1.67717 20.4733 1.3922 20.2871C0.747292 19.8654 0.455812 19.2276 0.450772 18.4615C0.445942 17.7066 0.449512 16.9514 0.449512 16.1965C0.449512 11.6661 0.448883 7.13581 0.449933 2.60548C0.450143 1.56451 1.0268 0.73522 1.96697 0.44458C2.18474 0.37717 2.4212 0.34126 2.64905 0.34063C5.31164 0.3337 7.97423 0.33496 10.6366 0.34105C10.7278 0.34126 10.8412 0.3925 10.9067 0.45781C12.5386 2.07607 14.1646 3.70021 15.7953 5.31994C15.8967 5.42074 15.9416 5.51923 15.9416 5.66497C15.9376 9.90382 15.9387 14.1427 15.9381 18.3817C15.9379 19.5918 15.2753 20.4055 14.0888 20.6586C14.0701 20.6625 14.0535 20.676 14.0361 20.685C10.1419 20.685 6.24677 20.685 2.3519 20.685ZM10.2979 1.66279C10.2135 1.6588 10.1551 1.65376 10.0965 1.65376C7.64579 1.65586 5.19509 1.65754 2.7446 1.66174C2.10641 1.66279 1.78406 1.99018 1.78406 2.63278C1.78343 7.88509 1.78343 13.1376 1.78406 18.3899C1.78406 19.0384 2.1104 19.361 2.76539 19.3612C6.38831 19.3618 10.0114 19.3618 13.6344 19.361C14.2761 19.3608 14.6052 19.034 14.6039 18.3987C14.5966 14.3386 14.5882 10.2785 14.5802 6.21832C14.58 6.14734 14.5802 6.07657 14.5802 5.9848C14.4773 5.9848 14.3994 5.9848 14.3217 5.9848C13.4475 5.98438 12.5728 6.00055 11.6994 5.97787C11.0591 5.96128 10.5444 5.5333 10.3678 4.91359C10.3178 4.73845 10.3023 4.54861 10.3008 4.36528C10.2943 3.47194 10.2979 2.57839 10.2979 1.66279Z" fill="white"/>
<path d="M7.28384 10.516C7.28384 11.0521 7.28552 11.5882 7.28321 12.1243C7.28174 12.4927 7.0751 12.6968 6.70235 12.6974C5.63681 12.6989 4.57106 12.6989 3.50552 12.6974C3.11681 12.697 2.91101 12.4881 2.91059 12.0943C2.90933 11.0353 2.90933 9.97626 2.9108 8.91744C2.91122 8.53713 3.1208 8.32503 3.49586 8.32461C4.56812 8.32335 5.64038 8.32314 6.71243 8.32482C7.07153 8.32545 7.28111 8.53251 7.283 8.88783C7.28594 9.43047 7.28384 9.97311 7.28384 10.516ZM3.94967 9.35865C3.94967 10.1394 3.94967 10.8975 3.94967 11.6573C4.7252 11.6573 5.48813 11.6573 6.25022 11.6573C6.25022 10.8835 6.25022 10.1258 6.25022 9.35865C5.47826 9.35865 4.72016 9.35865 3.94967 9.35865Z" fill="white"/>
<path d="M7.28398 4.90329C7.28398 5.43291 7.28482 5.96232 7.28377 6.49194C7.28293 6.89157 7.08532 7.09338 6.69241 7.0938C5.62666 7.09485 4.56112 7.09506 3.49537 7.09359C3.11884 7.09317 2.91136 6.88296 2.91094 6.50118C2.90947 5.44215 2.90968 4.38312 2.91094 3.32409C2.91136 2.93097 3.11842 2.72118 3.50608 2.72076C4.56511 2.71971 5.62414 2.71971 6.68317 2.72076C7.08028 2.72118 7.28251 2.92131 7.28356 3.31485C7.28503 3.84426 7.28398 4.37367 7.28398 4.90329ZM3.94792 6.05829C4.72366 6.05829 5.48176 6.05829 6.24826 6.05829C6.24826 5.28486 6.24826 4.52298 6.24826 3.75606C5.4742 3.75606 4.71652 3.75606 3.94792 3.75606C3.94792 4.52466 3.94792 5.28255 3.94792 6.05829Z" fill="white"/>
<path d="M6.08823 18.3011C6.04287 18.3011 5.99331 18.3011 5.94396 18.3011C5.12958 18.3011 4.31541 18.3022 3.50103 18.3007C3.12303 18.3001 2.91156 18.0898 2.91093 17.7121C2.90925 16.6461 2.90925 15.5803 2.91093 14.5144C2.91156 14.1353 3.12072 13.9281 3.50124 13.9276C4.5672 13.9264 5.63295 13.9264 6.69891 13.9276C7.08111 13.9281 7.24869 14.1347 7.29174 14.5154C7.34823 15.014 7.21278 15.4014 6.80139 15.6942C6.72264 15.7502 6.66825 15.8405 6.61764 15.8979C6.15585 15.7076 6.2808 15.3172 6.26022 14.9665C5.48784 14.9665 4.7247 14.9665 3.94938 14.9665C3.94938 15.7269 3.94938 16.4852 3.94938 17.2759C4.24905 17.2759 4.5504 17.2824 4.85133 17.2729C4.98825 17.2685 5.08548 17.3093 5.18145 17.4071C5.47545 17.7074 5.77911 17.9979 6.08823 18.3011Z" fill="white"/>
<path d="M6.57758 16.6423C7.22102 15.9968 7.84808 15.3619 8.48396 14.7361C8.57783 14.6437 8.70593 14.5646 8.83172 14.5314C9.04844 14.4743 9.25193 14.5816 9.35504 14.7628C9.46172 14.9508 9.44576 15.1899 9.2954 15.3537C9.12131 15.5436 8.93441 15.7221 8.75213 15.9046C8.17253 16.4848 7.59293 17.065 7.01228 17.6442C6.71513 17.9407 6.43373 17.9409 6.13679 17.6455C5.79911 17.3097 5.46227 16.9731 5.12732 16.6345C4.88309 16.388 4.85957 16.0698 5.06516 15.859C5.27621 15.6425 5.60024 15.6654 5.85497 15.9178C6.09395 16.1545 6.32999 16.3939 6.57758 16.6423Z" fill="white"/>
</svg>
