<svg width="15" height="15" viewBox="0 0 15 15" fill="none" xmlns="http://www.w3.org/2000/svg">
<path d="M1.3418 8.01225C1.3418 7.1658 1.3418 6.33765 1.3418 5.47395C2.50565 5.47395 3.6617 5.47395 4.8419 5.47395C4.8419 6.31755 4.8419 7.1466 4.8419 8.01225C3.68045 8.01225 2.5238 8.01225 1.3418 8.01225Z" fill="#274698"/>
<path d="M4.846 8.4234C4.846 9.2874 4.846 10.1165 4.846 10.9724C3.6796 10.9724 2.5333 10.9724 1.35205 10.9724C1.35205 10.1346 1.35205 9.2961 1.35205 8.4234C2.5129 8.4234 3.65785 8.4234 4.846 8.4234Z" fill="#274698"/>
<path d="M4.83628 5.0604C3.66973 5.0604 2.52508 5.0604 1.34863 5.0604C1.34863 4.2237 1.34863 3.39885 1.34863 2.5326C2.49823 2.5326 3.65203 2.5326 4.83628 2.5326C4.83628 3.35265 4.83628 4.17855 4.83628 5.0604Z" fill="#274698"/>
<path d="M1.32366 11.3671C2.52576 11.3671 3.65916 11.3671 4.83726 11.3671C4.83726 12.1414 4.88091 12.9085 4.81926 13.6672C4.78731 14.0608 4.43586 14.2686 4.02486 14.2732C3.40431 14.2803 2.78331 14.2848 2.16291 14.2713C1.70046 14.2612 1.35231 13.9747 1.33236 13.5331C1.30026 12.8266 1.32366 12.1177 1.32366 11.3671ZM3.11661 12.0715C2.66166 12.0636 2.30106 12.4012 2.28321 12.8521C2.26491 13.3164 2.63061 13.7107 3.08646 13.7184C3.53376 13.7259 3.93756 13.3266 3.93246 12.8818C3.92751 12.4404 3.56391 12.0793 3.11661 12.0715Z" fill="#274698"/>
<path d="M11.0229 6C10.4599 6.67305 9.92654 7.3107 9.35594 7.9929C8.80379 7.5327 8.25959 7.0842 7.72409 6.62535C7.67114 6.5799 7.63289 6.45915 7.65374 6.39465C7.91714 5.5785 8.19254 4.76625 8.48849 3.8826C9.36374 4.6137 10.1823 5.29755 11.0229 6Z" fill="#274698"/>
<path d="M5.23926 5.32545C5.23926 4.38675 5.23926 3.51255 5.23926 2.58465C6.23856 2.91945 7.20561 3.24345 8.21256 3.58065C7.93806 4.40265 7.67601 5.18715 7.39251 6.036C6.66636 5.79645 5.95731 5.5623 5.23926 5.32545Z" fill="#274698"/>
<path d="M12.7318 8.9748C11.9908 9.44025 11.2887 9.8814 10.5334 10.3558C10.171 9.7782 9.80758 9.2133 9.46618 8.6352C9.42718 8.56905 9.48208 8.40495 9.54463 8.328C10.0503 7.7064 10.5682 7.0947 11.1322 6.42045C11.668 7.27575 12.1837 8.0994 12.7318 8.9748Z" fill="#274698"/>
<path d="M1.37011 2.10525C1.20511 1.16205 1.51891 0.781197 2.44531 0.780297C2.85436 0.779847 3.26341 0.780147 3.67246 0.780297C4.67506 0.780597 4.93591 1.07025 4.83481 2.10525C3.68116 2.10525 2.52421 2.10525 1.37011 2.10525Z" fill="#274698"/>
<path d="M11.2157 5.70075C10.4075 5.0256 9.58911 4.35495 8.79336 3.6585C8.70681 3.58275 8.68386 3.31995 8.74641 3.2082C9.01491 2.7285 9.59481 2.6238 10.0349 2.9637C10.4425 3.2784 10.8295 3.6198 11.2265 3.948C11.9719 4.56405 11.9756 5.01795 11.2157 5.70075Z" fill="#274698"/>
<path d="M5.22235 5.6913C5.92495 5.9274 6.5797 6.14745 7.2751 6.3813C6.9964 7.21155 6.72895 8.0082 6.4516 8.8347C6.0784 8.71335 5.74465 8.61825 5.4235 8.4915C5.33695 8.4573 5.2327 8.32785 5.23105 8.24055C5.2165 7.4088 5.22235 6.57675 5.22235 5.6913Z" fill="#274698"/>
<path d="M8.28063 3.2307C7.33083 2.91105 6.37293 2.5974 5.42223 2.26335C5.11982 2.157 5.10528 1.41 5.42988 1.2432C5.65953 1.12515 5.98143 1.08195 6.23403 1.1361C6.71838 1.2399 7.18218 1.4385 7.65543 1.5948C8.56563 1.8951 8.74383 2.33955 8.28063 3.2307Z" fill="#274698"/>
<path d="M13.0085 8.7525C12.4988 7.9368 12.0023 7.14195 11.5052 6.3474C11.2573 5.9511 11.678 5.82405 11.8313 5.61135C11.915 5.49525 12.1795 5.40045 12.3043 5.44815C12.4976 5.5221 12.6745 5.7027 12.7993 5.8797C13.078 6.2748 13.3211 6.6951 13.5775 7.10595C14.0789 7.9098 13.9459 8.3238 13.0085 8.7525Z" fill="#274698"/>
<path d="M9.14129 8.8023C9.52184 9.41055 9.86444 9.95805 10.2295 10.5414C9.49139 11.0052 8.77874 11.4529 8.03339 11.9212C7.84064 11.6151 7.64939 11.3439 7.49879 11.0515C7.45469 10.966 7.48709 10.7884 7.55219 10.7079C8.05709 10.0836 8.57864 9.47265 9.14129 8.8023Z" fill="#274698"/>
<path d="M9.13038 8.2635C8.56173 8.94165 8.01888 9.58905 7.47753 10.2346C6.56523 9.60495 6.56463 9.60465 6.89808 8.6127C7.08123 8.06805 7.26648 7.52415 7.48008 6.89355C8.04528 7.36275 8.57148 7.79955 9.13038 8.2635Z" fill="#274698"/>
<path d="M6.33783 9.17579C6.05658 10.0137 5.78868 10.812 5.52078 11.6103C5.47518 11.6227 5.42973 11.6352 5.38413 11.6476C5.33013 11.53 5.23143 11.4132 5.22948 11.2947C5.21568 10.4908 5.22228 9.68669 5.22228 8.81609C5.60823 8.94059 5.95563 9.05264 6.33783 9.17579Z" fill="#274698"/>
<path d="M5.52578 13.4934C5.45993 13.1576 6.07733 12.3231 7.16198 11.2089C7.34273 11.4929 7.51628 11.7653 7.73333 12.1064C7.00553 12.5637 6.28688 13.0152 5.52578 13.4934Z" fill="#274698"/>
<path d="M5.67676 12.2718C5.93176 11.5063 6.18676 10.7409 6.46576 9.9033C6.73246 10.1194 6.96721 10.3096 7.23451 10.5262C6.72361 11.1361 6.23356 11.7211 5.74351 12.3061C5.72131 12.2947 5.69911 12.2832 5.67676 12.2718Z" fill="#274698"/>
<path d="M3.11677 12.0715C3.56407 12.0793 3.92767 12.4404 3.93262 12.8818C3.93772 13.3267 3.53392 13.726 3.08662 13.7184C2.63077 13.7107 2.26507 13.3164 2.28337 12.8521C2.30122 12.4012 2.66167 12.0634 3.11677 12.0715ZM3.64507 12.9828C3.64417 12.9159 3.64342 12.849 3.64252 12.7819C3.46402 12.664 3.27442 12.4402 3.11017 12.4575C2.93947 12.4753 2.69647 12.7051 2.65822 12.8802C2.59552 13.1667 2.81992 13.3941 3.11707 13.3428C3.30802 13.3098 3.47002 13.1086 3.64507 12.9828Z" fill="white"/>
<path d="M3.64488 12.9828C3.46983 13.1087 3.30783 13.3098 3.11688 13.3428C2.81973 13.3941 2.59533 13.1667 2.65803 12.8802C2.69628 12.7052 2.93928 12.4754 3.10998 12.4575C3.27438 12.4403 3.46383 12.6641 3.64233 12.782C3.64323 12.849 3.64398 12.9159 3.64488 12.9828Z" fill="#274698"/>
<path d="M3.09131 13.5467C3.45482 13.5467 3.74951 13.252 3.74951 12.8885C3.74951 12.5249 3.45482 12.2303 3.09131 12.2303C2.72779 12.2303 2.43311 12.5249 2.43311 12.8885C2.43311 13.252 2.72779 13.5467 3.09131 13.5467Z" fill="#274698"/>
</svg>
