<svg width="21" height="21" viewBox="0 0 21 21" fill="none" xmlns="http://www.w3.org/2000/svg">
<path d="M1.22089 16.8554H19.7007C19.9008 16.8554 20.0629 17.0176 20.0629 17.2177V17.488C20.0629 17.6881 19.9008 17.8502 19.7007 17.8502H1.22089C1.02076 17.8502 0.858643 17.6881 0.858643 17.488V17.2177C0.858853 17.0176 1.02097 16.8554 1.22089 16.8554Z" fill="#274698"/>
<path d="M13.966 3.37807H6.88839C6.70254 3.37807 6.55176 3.52885 6.55176 3.7147V17.3754C6.55176 17.5613 6.70254 17.712 6.88839 17.712H13.966C14.1519 17.712 14.3026 17.5613 14.3026 17.3754V3.71449C14.3026 3.52864 14.1519 3.37807 13.966 3.37807ZM8.92056 15.8697C8.92014 16.0106 8.8059 16.1246 8.66499 16.1246H8.05347C7.91361 16.1234 7.80084 16.0096 7.80084 15.8697V14.9381C7.80084 14.7972 7.91508 14.6832 8.05578 14.6832H8.66709C8.808 14.6832 8.92245 14.7972 8.92266 14.9381L8.92056 15.8697ZM8.92056 13.8409C8.92014 13.982 8.8059 14.0963 8.66499 14.0965H8.05347C7.91256 14.096 7.79853 13.9818 7.79853 13.8409V12.9093C7.79853 12.7684 7.91277 12.6544 8.05347 12.6544H8.66478C8.80569 12.6544 8.92014 12.7684 8.92035 12.9093V13.8409H8.92056ZM8.92056 11.8763C8.92056 12.0175 8.80611 12.1319 8.66499 12.1319H8.05347C7.91277 12.1307 7.79979 12.0158 7.80084 11.8751V10.9435C7.80084 10.8026 7.91487 10.6882 8.05578 10.688H8.66709C8.80821 10.6884 8.92245 10.8026 8.92266 10.9435L8.92056 11.8763ZM8.92056 9.87568C8.92014 10.0166 8.8059 10.1306 8.66499 10.1306H8.05347C7.91256 10.1294 7.79937 10.0141 7.80084 9.87337C7.80084 9.87295 7.80084 9.87253 7.80084 9.87211V8.94055C7.80084 8.79964 7.91508 8.68561 8.05578 8.68561H8.66709C8.808 8.68561 8.92245 8.79964 8.92266 8.94055L8.92056 9.87568ZM8.92056 7.87501C8.92014 8.01592 8.8059 8.12995 8.66499 8.12995H8.05347C7.91298 8.12869 7.80021 8.01424 7.80084 7.87375V6.93925C7.80084 6.79834 7.91487 6.68389 8.05578 6.68368H8.66709C8.80821 6.6841 8.92245 6.79834 8.92266 6.93925L8.92056 7.87501ZM8.92056 5.90332C8.92014 6.04423 8.8059 6.15826 8.66499 6.15826H8.05347C7.91298 6.157 7.80021 6.04255 7.80084 5.90206V4.9705C7.80084 4.82959 7.91508 4.71556 8.05578 4.71556H8.66709C8.808 4.71556 8.92245 4.82959 8.92266 4.9705L8.92056 5.90332ZM10.9899 15.8697C10.9895 16.0106 10.8752 16.1246 10.7343 16.1246H10.123C9.98211 16.1246 9.86808 16.0104 9.86808 15.8697V14.9381C9.86808 14.7972 9.98232 14.6832 10.123 14.6832H10.7343C10.8752 14.6832 10.9897 14.7972 10.9899 14.9381V15.8697ZM10.9899 13.8409C10.9895 13.982 10.8752 14.0963 10.7343 14.0965H10.123C9.98211 14.096 9.86808 13.9818 9.86808 13.8409V12.9093C9.86808 12.7684 9.98232 12.6544 10.123 12.6544H10.7343C10.8752 12.6544 10.9897 12.7684 10.9899 12.9093V13.8409ZM10.9899 11.8763C10.9899 12.0175 10.8754 12.1319 10.7343 12.1319H10.123C9.98211 12.1319 9.86808 12.0177 9.86808 11.877C9.86808 11.8768 9.86808 11.8766 9.86808 11.8763V10.9448C9.86808 10.8039 9.98211 10.6894 10.123 10.6892H10.7343C10.8754 10.6896 10.9897 10.8039 10.9899 10.9448V11.8763ZM10.9899 9.87568C10.9895 10.0166 10.8752 10.1306 10.7343 10.1306H10.123C9.98211 10.1306 9.86787 10.0164 9.86787 9.87568C9.86787 9.87442 9.86787 9.87337 9.86787 9.87211V8.94055C9.86787 8.79964 9.98211 8.68561 10.1228 8.68561H10.7341C10.875 8.68561 10.9895 8.79964 10.9897 8.94055V9.87568H10.9899ZM10.9899 7.87501C10.9895 8.01592 10.8752 8.12995 10.7343 8.12995H10.123C9.98211 8.12995 9.86808 8.01571 9.86808 7.87501V6.93925C9.86808 6.79834 9.98211 6.68389 10.123 6.68368H10.7343C10.8754 6.6841 10.9897 6.79834 10.9899 6.93925V7.87501ZM10.9899 5.90332C10.9895 6.04423 10.8752 6.15826 10.7343 6.15826H10.123C9.98211 6.15826 9.86808 6.04402 9.86808 5.90332V4.97176C9.86808 4.83085 9.98232 4.71682 10.123 4.71682H10.7343C10.8752 4.71682 10.9897 4.83085 10.9899 4.97176V5.90332ZM13.0594 15.8697C13.059 16.0106 12.9448 16.1246 12.8039 16.1246H12.1926C12.0517 16.1259 11.9366 16.0127 11.9351 15.872C11.9351 15.8712 11.9351 15.8705 11.9351 15.8697V14.9381C11.9351 14.7972 12.0493 14.6832 12.19 14.6832H12.8014C12.9423 14.6832 13.0567 14.7972 13.0569 14.9381L13.0594 15.8697ZM13.0594 13.8409C13.059 13.982 12.9448 14.0963 12.8039 14.0965H12.1926C12.0517 14.096 11.9376 13.9818 11.9376 13.8409V12.9093C11.9376 12.7684 12.0519 12.6544 12.1926 12.6544H12.8039C12.9448 12.6544 13.0592 12.7684 13.0594 12.9093V13.8409ZM13.0594 11.8763C13.0594 12.0175 12.945 12.1319 12.8039 12.1319H12.1926C12.0517 12.1332 11.9366 12.02 11.9351 11.8793C11.9351 11.878 11.9351 11.8766 11.9351 11.8753V10.9437C11.9351 10.8028 12.0491 10.6884 12.19 10.6882H12.8014C12.9425 10.6886 13.0567 10.8028 13.0569 10.9437L13.0594 11.8763ZM13.0594 9.87568C13.059 10.0166 12.9448 10.1306 12.8039 10.1306H12.1926C12.0517 10.1319 11.9366 10.0187 11.9351 9.87799C11.9351 9.8761 11.9351 9.874 11.9351 9.87211V8.94055C11.9351 8.79964 12.0493 8.68561 12.19 8.68561H12.8014C12.9423 8.68561 13.0567 8.79964 13.0569 8.94055L13.0594 9.87568ZM13.0594 7.87501C13.059 8.01592 12.9448 8.12995 12.8039 8.12995H12.1926C12.0517 8.13121 11.9366 8.01802 11.9351 7.87732C11.9351 7.87606 11.9351 7.87501 11.9351 7.87375V6.93925C11.9351 6.79834 12.0491 6.68389 12.19 6.68368H12.8014C12.9425 6.6841 13.0567 6.79834 13.0569 6.93925L13.0594 7.87501ZM13.0594 5.90332C13.059 6.04423 12.9448 6.15826 12.8039 6.15826H12.1926C12.0517 6.15952 11.9366 6.04633 11.9351 5.90563C11.9351 5.90437 11.9351 5.90332 11.9351 5.90206V4.9705C11.9351 4.82959 12.0493 4.71556 12.19 4.71556H12.8014C12.9423 4.71556 13.0567 4.82959 13.0569 4.9705L13.0594 5.90332Z" fill="#274698"/>
<path d="M5.53003 6.90249L1.87792 9.06864C1.7494 9.14487 1.67065 9.28305 1.67065 9.43257V17.7295H5.79904V7.05915C5.79925 6.95982 5.71882 6.87918 5.61949 6.87897C5.58799 6.87876 5.55733 6.88695 5.53003 6.90249ZM3.24754 15.7679C3.24754 15.901 3.1396 16.0089 3.00646 16.0089H2.77357C2.64043 16.0094 2.53228 15.9016 2.53186 15.7685C2.53186 15.7683 2.53186 15.7681 2.53186 15.7679V10.1739C2.5306 10.0407 2.63749 9.93174 2.77063 9.93048C2.77105 9.93048 2.77147 9.93048 2.77189 9.93048H3.00478C3.13792 9.93048 3.24586 10.0384 3.24586 10.1716L3.24754 15.7679ZM4.80217 15.7679C4.80217 15.901 4.69423 16.0089 4.56109 16.0089C4.56088 16.0089 4.56067 16.0089 4.56046 16.0089H4.32757C4.19443 16.0094 4.08628 15.9016 4.08586 15.7685C4.08586 15.7683 4.08586 15.7681 4.08586 15.7679V10.1739C4.0846 10.0407 4.19149 9.93174 4.32463 9.93048C4.32505 9.93048 4.32547 9.93048 4.32589 9.93048H4.55878C4.69192 9.93006 4.80007 10.0378 4.80049 10.1709C4.80049 10.1711 4.80049 10.1714 4.80049 10.1716L4.80217 15.7679Z" fill="#274698"/>
<path d="M15.0095 7.05915V17.7295H19.1396V9.43425C19.1396 9.28494 19.0611 9.14676 18.933 9.07032L15.2809 6.90249C15.1952 6.85209 15.0849 6.88044 15.0345 6.96612C15.0177 6.99426 15.0091 7.02639 15.0095 7.05915ZM17.5604 10.1739C17.5604 10.0407 17.6683 9.93279 17.8015 9.93279C17.8017 9.93279 17.8019 9.93279 17.8021 9.93279H18.035C18.1681 9.93237 18.2763 10.0401 18.2767 10.1732C18.2767 10.1735 18.2767 10.1737 18.2767 10.1739V15.7679C18.2767 15.901 18.1688 16.0089 18.0356 16.0089C18.0354 16.0089 18.0352 16.0089 18.035 16.0089H17.8021C17.669 16.0094 17.5608 15.9016 17.5604 15.7685C17.5604 15.7683 17.5604 15.7681 17.5604 15.7679V10.1739ZM16.0064 10.1739C16.0064 10.0407 16.1143 9.93279 16.2475 9.93279H16.4804C16.6135 9.93279 16.7215 10.0407 16.7215 10.1739V15.7679C16.7215 15.901 16.6135 16.0089 16.4804 16.0089H16.2475C16.1143 16.0089 16.0064 15.901 16.0064 15.7679V10.1739Z" fill="#274698"/>
</svg>
