<svg width="17" height="17" viewBox="0 0 17 17" fill="none" xmlns="http://www.w3.org/2000/svg">
<path d="M8.5 15.9583L6.5 13.9583H3.83333C3.46667 13.9583 3.15267 13.8277 2.89133 13.5663C2.63 13.305 2.49956 12.9912 2.5 12.625V3.29168C2.5 2.92501 2.63067 2.61101 2.892 2.34968C3.15333 2.08834 3.46711 1.9579 3.83333 1.95834H13.1667C13.5333 1.95834 13.8473 2.08901 14.1087 2.35034C14.37 2.61168 14.5004 2.92546 14.5 3.29168V12.625C14.5 12.9917 14.3693 13.3057 14.108 13.567C13.8467 13.8283 13.5329 13.9588 13.1667 13.9583H10.5L8.5 15.9583ZM8.5 8.62501C9.14445 8.62501 9.69445 8.39723 10.15 7.94168C10.6056 7.48612 10.8333 6.93612 10.8333 6.29168C10.8333 5.64723 10.6056 5.09723 10.15 4.64168C9.69445 4.18612 9.14445 3.95834 8.5 3.95834C7.85556 3.95834 7.30556 4.18612 6.85 4.64168C6.39445 5.09723 6.16667 5.64723 6.16667 6.29168C6.16667 6.93612 6.39445 7.48612 6.85 7.94168C7.30556 8.39723 7.85556 8.62501 8.5 8.62501ZM8.5 14.0917L9.96667 12.625H13.1667V11.8583C12.5667 11.2695 11.8693 10.8057 11.0747 10.467C10.28 10.1283 9.42178 9.95879 8.5 9.95835C7.57778 9.95835 6.71933 10.1279 5.92467 10.467C5.13 10.8061 4.43289 11.2699 3.83333 11.8583V12.625H7.03333L8.5 14.0917Z" fill="#274698"/>
</svg>
