<svg width="90" height="30" viewBox="0 0 90 30" fill="none" xmlns="http://www.w3.org/2000/svg">
<rect width="90" height="30" rx="15" fill="#274698"/>
<path d="M37.1107 14.96C37.1107 15.7067 36.9893 16.3903 36.7467 17.011C36.504 17.627 36.161 18.1567 35.7177 18.6C35.279 19.0433 34.7493 19.3887 34.1287 19.636C33.5127 19.8787 32.8267 20 32.0707 20H28.2627V9.92H32.0707C32.8267 9.92 33.5127 10.0437 34.1287 10.291C34.7493 10.5337 35.279 10.8767 35.7177 11.32C36.161 11.7633 36.504 12.2953 36.7467 12.916C36.9893 13.532 37.1107 14.2133 37.1107 14.96ZM35.4377 14.96C35.4377 14.3813 35.3583 13.861 35.1997 13.399C35.0457 12.937 34.8217 12.5473 34.5277 12.23C34.2383 11.9127 33.886 11.67 33.4707 11.502C33.0553 11.3293 32.5887 11.243 32.0707 11.243H29.9077V18.677H32.0707C32.5887 18.677 33.0553 18.593 33.4707 18.425C33.886 18.257 34.2383 18.0143 34.5277 17.697C34.8217 17.375 35.0457 16.9853 35.1997 16.528C35.3583 16.066 35.4377 15.5433 35.4377 14.96ZM43.2203 15.625C43.2203 15.373 43.183 15.1397 43.1084 14.925C43.0384 14.7057 42.9334 14.5167 42.7934 14.358C42.6534 14.1947 42.4784 14.0687 42.2684 13.98C42.063 13.8867 41.825 13.84 41.5544 13.84C41.0084 13.84 40.579 13.9963 40.2664 14.309C39.9537 14.6217 39.7554 15.0603 39.6713 15.625H43.2203ZM39.6293 16.549C39.648 16.955 39.711 17.3073 39.8183 17.606C39.9257 17.9 40.068 18.145 40.2454 18.341C40.4274 18.537 40.642 18.684 40.8893 18.782C41.1414 18.8753 41.4214 18.922 41.7293 18.922C42.0234 18.922 42.2777 18.8893 42.4924 18.824C42.707 18.754 42.8937 18.6793 43.0524 18.6C43.211 18.516 43.3464 18.4413 43.4584 18.376C43.5704 18.306 43.673 18.271 43.7664 18.271C43.8877 18.271 43.981 18.3177 44.0464 18.411L44.4734 18.964C44.296 19.174 44.0954 19.3513 43.8714 19.496C43.6474 19.6407 43.4094 19.7597 43.1573 19.853C42.9054 19.9417 42.6464 20.0047 42.3803 20.042C42.1144 20.084 41.8554 20.105 41.6033 20.105C41.1087 20.105 40.649 20.0233 40.2243 19.86C39.8043 19.692 39.438 19.447 39.1253 19.125C38.8173 18.803 38.5747 18.404 38.3973 17.928C38.2247 17.452 38.1383 16.9037 38.1383 16.283C38.1383 15.7883 38.2153 15.3263 38.3693 14.897C38.528 14.4677 38.752 14.0943 39.0413 13.777C39.3353 13.4597 39.69 13.21 40.1054 13.028C40.5254 12.8413 40.999 12.748 41.5264 12.748C41.965 12.748 42.371 12.8203 42.7444 12.965C43.1177 13.105 43.4397 13.3127 43.7104 13.588C43.981 13.8633 44.191 14.2017 44.3404 14.603C44.4944 14.9997 44.5714 15.4523 44.5714 15.961C44.5714 16.1943 44.5457 16.3507 44.4944 16.43C44.443 16.5093 44.3497 16.549 44.2144 16.549H39.6293ZM48.1955 20.112C47.6028 20.112 47.1455 19.9463 46.8235 19.615C46.5062 19.279 46.3475 18.8077 46.3475 18.201V14.043H45.5635C45.4795 14.043 45.4072 14.0173 45.3465 13.966C45.2858 13.91 45.2555 13.8283 45.2555 13.721V13.112L46.4105 12.944L46.7395 10.879C46.7628 10.7997 46.8025 10.7367 46.8585 10.69C46.9145 10.6387 46.9892 10.613 47.0825 10.613H47.8525V12.958H49.8335V14.043H47.8525V18.096C47.8525 18.3527 47.9155 18.5487 48.0415 18.684C48.1675 18.8193 48.3355 18.887 48.5455 18.887C48.6622 18.887 48.7625 18.873 48.8465 18.845C48.9305 18.8123 49.0028 18.7797 49.0635 18.747C49.1242 18.7097 49.1755 18.677 49.2175 18.649C49.2642 18.6163 49.3085 18.6 49.3505 18.6C49.4345 18.6 49.5022 18.6467 49.5535 18.74L50.0015 19.475C49.7682 19.6803 49.4928 19.839 49.1755 19.951C48.8582 20.0583 48.5315 20.112 48.1955 20.112ZM54.8348 16.878C54.2981 16.8967 53.8454 16.941 53.4768 17.011C53.1081 17.0763 52.8094 17.1627 52.5808 17.27C52.3521 17.3727 52.1864 17.4963 52.0838 17.641C51.9858 17.7857 51.9368 17.9443 51.9368 18.117C51.9368 18.285 51.9624 18.4297 52.0138 18.551C52.0698 18.6677 52.1444 18.7657 52.2378 18.845C52.3358 18.9197 52.4478 18.9757 52.5738 19.013C52.7044 19.0457 52.8468 19.062 53.0008 19.062C53.3928 19.062 53.7288 18.9897 54.0088 18.845C54.2934 18.6957 54.5688 18.481 54.8348 18.201V16.878ZM50.8448 13.854C51.6521 13.1027 52.6134 12.727 53.7288 12.727C54.1394 12.727 54.5034 12.7947 54.8208 12.93C55.1428 13.0607 55.4111 13.2473 55.6258 13.49C55.8451 13.7327 56.0108 14.022 56.1228 14.358C56.2394 14.6893 56.2978 15.058 56.2978 15.464V20H55.6258C55.4811 20 55.3714 19.979 55.2968 19.937C55.2221 19.8903 55.1591 19.7993 55.1078 19.664L54.9608 19.083C54.7788 19.2463 54.5991 19.3933 54.4218 19.524C54.2444 19.65 54.0601 19.7573 53.8688 19.846C53.6821 19.9347 53.4791 20 53.2598 20.042C53.0451 20.0887 52.8071 20.112 52.5458 20.112C52.2564 20.112 51.9858 20.0723 51.7338 19.993C51.4864 19.9137 51.2718 19.7947 51.0898 19.636C50.9078 19.4727 50.7631 19.272 50.6558 19.034C50.5531 18.796 50.5018 18.516 50.5018 18.194C50.5018 17.9187 50.5741 17.6503 50.7188 17.389C50.8681 17.1277 51.1108 16.8943 51.4468 16.689C51.7874 16.479 52.2331 16.3063 52.7838 16.171C53.3391 16.0357 54.0228 15.9587 54.8348 15.94V15.464C54.8348 14.9507 54.7251 14.568 54.5058 14.316C54.2864 14.064 53.9644 13.938 53.5398 13.938C53.2504 13.938 53.0078 13.9753 52.8118 14.05C52.6158 14.12 52.4454 14.197 52.3008 14.281C52.1561 14.365 52.0278 14.4443 51.9158 14.519C51.8038 14.589 51.6848 14.624 51.5588 14.624C51.4561 14.624 51.3674 14.5983 51.2928 14.547C51.2228 14.491 51.1644 14.4233 51.1178 14.344L50.8448 13.854ZM59.6288 12.86V20H58.1238V12.86H59.6288ZM59.8808 10.704C59.8808 10.8393 59.8528 10.9677 59.7968 11.089C59.7455 11.2103 59.6731 11.3177 59.5798 11.411C59.4865 11.4997 59.3768 11.572 59.2508 11.628C59.1295 11.6793 58.9988 11.705 58.8588 11.705C58.7235 11.705 58.5951 11.6793 58.4738 11.628C58.3571 11.572 58.2545 11.4997 58.1658 11.411C58.0771 11.3177 58.0048 11.2103 57.9488 11.089C57.8975 10.9677 57.8718 10.8393 57.8718 10.704C57.8718 10.564 57.8975 10.4333 57.9488 10.312C58.0048 10.1907 58.0771 10.0857 58.1658 9.997C58.2545 9.90367 58.3571 9.83133 58.4738 9.78C58.5951 9.724 58.7235 9.696 58.8588 9.696C58.9988 9.696 59.1295 9.724 59.2508 9.78C59.3768 9.83133 59.4865 9.90367 59.5798 9.997C59.6731 10.0857 59.7455 10.1907 59.7968 10.312C59.8528 10.4333 59.8808 10.564 59.8808 10.704ZM63.0528 9.64V20H61.5478V9.64H63.0528Z" fill="white"/>
</svg>
