<svg width="23" height="18" viewBox="0 0 23 18" fill="none" xmlns="http://www.w3.org/2000/svg">
<path d="M9.11784 0.236654C10.2524 0.236654 11.3866 0.236654 12.5211 0.236654C12.7236 0.236654 12.8765 0.373659 12.8941 0.583532C12.9042 0.703073 12.9045 0.825022 12.8935 0.944261C12.8739 1.15624 12.7196 1.28572 12.4897 1.28692C11.9658 1.28933 11.4417 1.28753 10.9178 1.28753C10.6871 1.28753 10.4563 1.29114 10.2258 1.28572C10.1275 1.28361 10.0868 1.31643 10.0908 1.42333C10.0972 1.59375 10.0989 1.76478 10.0902 1.93491C10.0842 2.05897 10.1228 2.09962 10.2446 2.09871C10.9943 2.09329 11.7443 2.10142 12.494 2.09239C12.7135 2.08968 12.8791 2.16677 13.0308 2.32635C13.7854 3.12068 14.5461 3.90898 15.3016 4.70241C15.3826 4.78762 15.4649 4.82436 15.58 4.82195C16.4159 4.80539 17.2519 4.79274 18.0881 4.7831C18.483 4.77859 18.6653 4.97581 18.665 5.39225C18.6648 6.03451 18.6679 6.67678 18.6622 7.31905C18.661 7.45274 18.7017 7.49429 18.8277 7.49038C19.0966 7.48225 19.366 7.49098 19.6351 7.48616C19.7387 7.48436 19.7774 7.51718 19.7768 7.6328C19.7725 8.54095 19.7725 9.44909 19.7768 10.3572C19.7774 10.4756 19.7341 10.5024 19.6334 10.5009C19.3594 10.4967 19.0853 10.503 18.8116 10.4979C18.6994 10.4958 18.6619 10.537 18.6625 10.6562C18.6671 11.4138 18.6627 12.1714 18.6671 12.929C18.6682 13.122 18.6105 13.2756 18.4778 13.4123C17.3465 14.5794 16.218 15.7498 15.0893 16.9196C14.9554 17.0584 14.8086 17.1304 14.6078 17.1289C13.3628 17.1196 12.1178 17.1208 10.8731 17.1283C10.6989 17.1295 10.57 17.0705 10.454 16.9485C9.46428 15.91 8.47341 14.873 7.48601 13.832C7.41216 13.7544 7.34063 13.7194 7.23534 13.7197C6.07688 13.723 4.91841 13.7218 3.76024 13.7218C3.33649 13.7218 3.16255 13.5279 3.16428 13.085C3.16861 11.9911 3.16457 10.8974 3.16803 9.8035C3.16832 9.69299 3.12649 9.66619 3.03159 9.6677C2.75755 9.67161 2.48351 9.66619 2.20976 9.67041C2.10534 9.67192 2.06668 9.63578 2.06841 9.52136C2.07447 9.13504 2.07418 8.74871 2.0687 8.36239C2.06697 8.25038 2.09986 8.21123 2.20832 8.21364C2.47745 8.21997 2.74688 8.21003 3.01572 8.21846C3.14438 8.22238 3.1787 8.1736 3.1787 8.04382C3.17697 6.97518 3.18361 5.90654 3.18188 4.83791C3.18159 4.64399 3.24245 4.48982 3.37255 4.35402C4.0213 3.67623 4.66947 2.99753 5.31332 2.31461C5.45755 2.16195 5.61591 2.08908 5.82476 2.09149C6.54101 2.09992 7.25726 2.09209 7.97322 2.09751C8.09322 2.09841 8.13678 2.06168 8.13043 1.93581C8.12236 1.77081 8.12265 1.60459 8.13015 1.43929C8.13563 1.32035 8.0938 1.28331 7.98072 1.28421C7.2838 1.28843 6.58688 1.28632 5.88966 1.28662C5.40649 1.28662 5.3237 1.19749 5.32255 0.687716C5.32226 0.545894 5.34159 0.411599 5.45755 0.32518C5.51841 0.280014 5.59918 0.239665 5.6713 0.239364C6.81995 0.235149 7.9689 0.236654 9.11784 0.236654ZM5.56457 5.72377C5.53342 6.29046 5.63755 6.72917 5.92284 7.22119C6.13313 7.58372 6.34428 7.94536 6.55688 8.30639C7.12197 9.26632 7.68765 10.2257 8.25332 11.185C8.72149 11.9787 9.18851 12.7733 9.65899 13.5656C9.94918 14.054 10.2376 14.5384 10.6888 14.8989C11.2911 15.3803 11.9644 15.6366 12.7158 15.6658C13.135 15.6821 13.5446 15.5993 13.9383 15.4448C14.6075 15.1819 15.1513 14.7459 15.5534 14.1289C15.8987 13.5993 16.0972 13.0136 16.1272 12.3687C16.1471 11.9348 16.1044 11.5099 15.9826 11.0947C15.7975 10.4638 15.3988 9.97453 14.9736 9.51594C14.6208 9.13504 14.2233 8.7993 13.846 8.44309C13.1808 7.81437 12.5174 7.18355 11.851 6.55604C11.0205 5.77436 10.1854 4.9981 9.35697 4.21371C8.68111 3.57355 7.91553 3.39288 7.04697 3.69128C6.2439 3.9671 5.59716 4.8099 5.56457 5.72377Z" fill="#274698"/>
<path d="M22.1606 8.99683C22.1606 10.2365 22.1606 11.4759 22.1606 12.7155C22.1606 12.9829 22.0291 13.1259 21.7758 13.128C21.4824 13.1305 21.1893 13.1302 20.896 13.1283C20.6346 13.1268 20.4953 12.9811 20.4953 12.7104C20.4947 10.2314 20.4947 7.75234 20.4953 5.27301C20.4953 5.0002 20.6312 4.85537 20.8942 4.85176C21.1873 4.84784 21.481 4.85567 21.7741 4.84905C21.9843 4.84453 22.1681 5.01044 22.1658 5.26307C22.1545 6.50756 22.1606 7.75234 22.1606 8.99683Z" fill="#274698"/>
<path d="M0.128002 8.94052C0.128002 8.0926 0.128002 7.24498 0.128002 6.39705C0.128002 6.14412 0.256367 6.00561 0.497809 6.0029C0.709252 6.00049 0.920694 5.99959 1.13214 6.0032C1.34906 6.00681 1.49675 6.15616 1.49704 6.38049C1.49877 8.08627 1.49877 9.79176 1.49733 11.4975C1.49704 11.7339 1.35367 11.8784 1.12637 11.8809C0.914925 11.8833 0.703483 11.883 0.49204 11.8809C0.255502 11.8784 0.12829 11.7435 0.12829 11.499C0.127713 10.646 0.128002 9.79326 0.128002 8.94052Z" fill="#274698"/>
<path d="M12.822 14.8793C11.7968 14.8347 11.0462 14.3915 10.5301 13.5186C10.0106 12.64 9.48561 11.7649 8.96667 10.886C8.36263 9.86312 7.76263 8.83754 7.16061 7.81347C6.9483 7.45214 6.72589 7.09713 6.52484 6.72948C6.02205 5.80959 6.41493 4.73854 7.35301 4.41214C7.90051 4.22154 8.40128 4.37089 8.83022 4.77467C9.52916 5.4326 10.2287 6.08932 10.9273 6.74754C11.3834 7.17723 11.8371 7.60962 12.2932 8.039C12.9668 8.67314 13.651 9.29553 14.3127 9.94322C14.7137 10.3359 15.0855 10.768 15.256 11.3319C15.3792 11.7396 15.4184 12.1561 15.3451 12.5903C15.2447 13.1844 14.9955 13.6881 14.5894 14.1033C14.2239 14.477 13.7874 14.7287 13.2737 14.8128C13.1087 14.8402 12.9428 14.8618 12.822 14.8793ZM12.7689 14.0175C13.7566 14.0591 14.5565 13.1618 14.5723 12.2042C14.5902 11.1142 13.7606 10.2693 12.7775 10.2762C11.7633 10.2835 10.9879 11.0877 10.979 12.1576C10.9703 13.1696 11.7797 14.0449 12.7689 14.0175ZM8.6658 5.90022C8.65195 5.36997 8.28878 4.99629 7.79984 4.98997C7.31897 4.98364 6.94166 5.39857 6.93416 5.88276C6.92638 6.39223 7.33888 6.80355 7.79061 6.80234C8.26888 6.80114 8.65426 6.41692 8.6658 5.90022Z" fill="#274698"/>
</svg>
