<svg width="19" height="19" viewBox="0 0 19 19" fill="none" xmlns="http://www.w3.org/2000/svg">
<path d="M3.17705 7.25414C3.18573 7.08691 3.1944 6.9722 3.19787 6.85838C3.21783 6.21571 3.56052 5.86548 4.2034 5.85847C4.92609 5.84972 5.64879 5.85584 6.37148 5.85584C8.61244 5.85584 10.8534 5.85584 13.0935 5.85584C14.2986 5.85584 14.4565 5.99856 14.5875 7.25414C14.951 7.25414 15.3206 7.25414 15.691 7.25414C16.4285 7.25414 17.1659 7.24889 17.9025 7.25677C18.292 7.26114 18.4256 7.44151 18.2625 7.77773C17.6596 9.02018 17.0471 10.2591 16.4137 11.4867C16.3486 11.6136 16.1257 11.7143 15.9686 11.7248C15.5088 11.7564 15.0455 11.7362 14.5519 11.7362C14.5363 11.8649 14.5155 11.9752 14.512 12.0864C14.4851 12.8254 14.1736 13.131 13.4292 13.1336C12.6632 13.1363 11.8971 13.1345 11.131 13.1345C8.99157 13.1345 6.85212 13.1345 4.7118 13.1345C3.42865 13.1345 3.32974 13.0496 3.14408 11.7362C2.49253 11.7362 1.83143 11.7213 1.17207 11.7423C0.802484 11.7537 0.654995 11.6329 0.661068 11.2424C0.679287 10.0752 0.676685 8.90723 0.661936 7.74009C0.657598 7.38373 0.774721 7.23926 1.13737 7.24976C1.80107 7.26727 2.46477 7.25414 3.17705 7.25414ZM14.5909 11.1207C15.0074 11.1207 15.3934 11.1286 15.7786 11.1146C15.8637 11.1119 15.9877 11.055 16.0224 10.9867C16.53 9.96668 17.0245 8.93962 17.5329 7.89419C16.5239 7.89419 15.5652 7.89419 14.5909 7.89419C14.5909 8.96414 14.5909 10.0078 14.5909 11.1207ZM3.16577 11.1084C3.16577 10.0148 3.16577 8.96151 3.16577 7.88806C2.5255 7.88806 1.91125 7.88806 1.27618 7.88806C1.27618 8.96677 1.27618 10.0315 1.27618 11.1084C1.91559 11.1084 2.51856 11.1084 3.16577 11.1084Z" fill="#274698"/>
<path d="M4.63635 16.0274C3.9874 16.0274 3.33672 16.0449 2.68864 16.0143C2.53594 16.0073 2.39019 15.8374 2.24097 15.7429C2.38151 15.6369 2.52033 15.4399 2.66261 15.4373C4.03339 15.4145 5.40416 15.4075 6.77494 15.432C7.54361 15.4452 8.08151 15.9635 8.15613 16.678C8.23681 17.4397 7.84553 18.0754 7.16448 18.2645C7.01526 18.3057 6.84695 18.3267 6.69686 18.3004C6.6101 18.2855 6.49558 18.1647 6.4817 18.0771C6.46695 17.9878 6.55457 17.8775 6.6101 17.7838C6.62745 17.7549 6.68731 17.7505 6.72809 17.7357C7.3753 17.4984 7.60695 17.2103 7.5306 16.741C7.45252 16.2577 7.09161 16.0274 6.41056 16.0274C5.81887 16.0265 5.22804 16.0274 4.63635 16.0274Z" fill="#274698"/>
<path d="M6.82096 14.883C6.14165 14.883 5.46233 14.9006 4.78388 14.869C4.63292 14.862 4.48977 14.6808 4.34229 14.5792C4.48977 14.4759 4.63553 14.285 4.78388 14.2833C6.14165 14.2605 7.50028 14.257 8.85804 14.2745C9.63539 14.285 10.1724 14.7937 10.2696 15.5485C10.3642 16.2813 9.95639 16.9196 9.25452 17.1175C9.11831 17.156 8.96128 17.1884 8.83114 17.1552C8.73224 17.1306 8.60297 17.0028 8.59343 16.91C8.58388 16.8154 8.69493 16.7007 8.77128 16.6097C8.80165 16.5738 8.87886 16.5764 8.93439 16.5633C9.46621 16.4337 9.75945 16.0721 9.69699 15.622C9.63279 15.1615 9.27621 14.8857 8.72703 14.883C8.09283 14.8804 7.4569 14.883 6.82096 14.883Z" fill="#274698"/>
<path d="M10.515 3.63364C9.85128 3.63364 9.18758 3.63452 8.52388 3.63364C8.29831 3.63364 8.03283 3.61875 8.08662 3.31405C8.10657 3.2011 8.37205 3.05839 8.52648 3.05576C9.83913 3.03475 11.1526 3.0435 12.4662 3.0435C12.8418 3.0435 13.1958 2.92005 13.3051 2.55493C13.3823 2.29663 13.3502 1.94728 13.2331 1.70562C13.1463 1.527 12.8323 1.47184 12.6388 1.3335C12.5095 1.24157 12.4141 1.1006 12.3031 0.98152C12.4514 0.90622 12.6024 0.76175 12.7473 0.768755C13.4491 0.7994 14.0105 1.44382 14.0148 2.17843C14.0191 2.96382 13.4431 3.59336 12.6371 3.62576C11.9309 3.65465 11.2229 3.63189 10.5158 3.63189C10.515 3.63189 10.515 3.63276 10.515 3.63364Z" fill="#274698"/>
<path d="M12.6086 4.79553C11.9587 4.79553 11.3072 4.81567 10.6591 4.78152C10.4882 4.77276 10.201 4.6099 10.1863 4.48995C10.1516 4.21064 10.4075 4.1835 10.6435 4.18437C11.9579 4.18963 13.2723 4.18613 14.5866 4.187C14.964 4.187 15.3093 4.06092 15.4178 3.69055C15.4907 3.44189 15.4664 3.10654 15.3527 2.87889C15.2616 2.69765 14.9797 2.58908 14.761 2.50677C14.5589 2.4306 14.3238 2.38331 14.4227 2.12327C14.4652 2.01119 14.7107 1.9105 14.8599 1.91663C15.5453 1.94553 16.0477 2.49977 16.1101 3.24663C16.1682 3.93921 15.7136 4.64493 15.0282 4.7141C14.2292 4.79378 13.4163 4.73249 12.6094 4.73249C12.6086 4.7535 12.6086 4.77451 12.6086 4.79553Z" fill="#274698"/>
</svg>
