<svg width="20" height="17" viewBox="0 0 20 17" fill="none" xmlns="http://www.w3.org/2000/svg">
<path d="M9.99183 16.9872C7.28114 16.9872 4.57044 16.9872 1.85975 16.9866C1.73156 16.9866 1.60337 16.9747 1.4758 16.9753C1.04642 16.9766 0.755186 16.7472 0.534895 16.4015C0.429106 16.2356 0.383057 16.059 0.383057 15.8541C0.388035 10.9289 0.38679 6.00367 0.384301 1.07844C0.384301 0.935148 0.414171 0.811342 0.482623 0.688164C0.615171 0.44935 0.785056 0.246357 1.03335 0.130721C1.15718 0.0735312 1.29907 0.0276538 1.43348 0.0263968C3.13109 0.0119423 4.82869 0.00125847 6.5263 0.000630009C10.4984 -0.00125537 14.4704 0.00502924 18.4425 1.56629e-06C18.852 -0.000626892 19.1438 0.187911 19.3847 0.487057C19.5402 0.680622 19.6174 0.898069 19.6168 1.16516C19.6087 6.05017 19.6087 10.9352 19.6155 15.8196C19.6162 16.2406 19.4264 16.5316 19.1245 16.7761C18.9565 16.9118 18.7611 16.9728 18.5446 16.974C17.5875 16.9803 16.631 16.996 15.674 16.9979C13.7803 17.0017 11.8861 16.9992 9.99245 16.9992C9.99183 16.9954 9.99183 16.9916 9.99183 16.9872ZM10.0018 0.820769C7.18281 0.820769 4.36384 0.820769 1.54487 0.820769C1.34698 0.820769 1.17772 0.991081 1.17772 1.18967C1.17648 2.34604 1.17399 3.50303 1.17399 4.65939C1.17461 8.21396 1.17585 11.7685 1.1771 15.3231C1.1771 15.4928 1.18021 15.6631 1.18892 15.8321C1.1995 16.0345 1.31587 16.152 1.51438 16.1658C1.65439 16.1759 1.79441 16.1847 1.93442 16.186C2.79941 16.1929 3.66439 16.2023 4.52937 16.2023C8.51762 16.2029 12.5059 16.2023 16.4941 16.1985C17.1506 16.1979 17.8072 16.1816 18.4637 16.1665C18.6852 16.1614 18.7985 16.0389 18.8084 15.8152C18.8153 15.6618 18.819 15.5078 18.819 15.3545C18.8196 10.6436 18.8196 5.93202 18.819 1.2211C18.819 0.977255 18.6641 0.820769 18.4226 0.820769C15.6161 0.820769 12.8089 0.820769 10.0018 0.820769Z" fill="#274698"/>
<path d="M2.00283 8.49677C1.88398 5.04213 4.82492 1.67359 8.69867 1.61892C12.4081 1.56613 15.5694 4.64369 15.6079 8.42638C15.6472 12.27 12.5065 15.4073 8.76214 15.3784C4.70419 15.347 1.86904 11.8666 2.00283 8.49677ZM8.78579 14.5476C11.6371 14.6795 14.7853 12.2399 14.8058 8.51059C14.8232 5.32054 12.2638 2.42272 8.76712 2.42649C5.51379 2.43026 2.77634 5.13137 2.78505 8.50494C2.79439 12.2581 5.98424 14.6827 8.78579 14.5476Z" fill="#274698"/>
<path d="M15.5512 15.391C14.8947 15.391 14.2382 15.391 13.5823 15.391C13.4286 15.391 13.2307 15.2024 13.2121 15.0403C13.1903 14.8467 13.3228 14.6406 13.502 14.6092C13.6116 14.5897 13.7248 14.5846 13.8368 14.5846C15.1256 14.5853 16.4144 14.5884 17.7031 14.5897C17.8593 14.5897 17.9079 14.7179 17.967 14.8203C18.041 14.9479 18.0286 15.0855 17.944 15.21C17.8599 15.3338 17.7349 15.3815 17.5924 15.3859C17.3522 15.3928 17.1119 15.3985 16.8724 15.3998C16.4324 15.4016 15.9918 15.4004 15.5519 15.4004C15.5512 15.3966 15.5512 15.3935 15.5512 15.391Z" fill="#274698"/>
<path d="M9.80144 11.8527C9.80144 11.5492 9.81513 11.2456 9.79584 10.9433C9.78651 10.7913 9.7249 10.6404 9.67263 10.494C9.64027 10.4048 9.56808 10.3878 9.46665 10.4073C9.21214 10.455 8.95326 10.4777 8.69812 10.5191C8.62469 10.5311 8.54317 10.5562 8.48717 10.6027C7.96693 11.0326 7.45728 11.475 6.93331 11.8999C6.7012 12.0878 6.43424 12.2223 6.13118 12.2625C5.69247 12.3197 5.32034 12.16 4.98679 11.8911C4.53376 11.5253 4.20208 11.0615 3.95877 10.5355C3.59473 9.74802 3.38377 8.92285 3.44476 8.04678C3.45783 7.85825 3.5157 7.66342 3.59473 7.4906C3.75964 7.12798 4.10376 6.9916 4.46656 7.15123C4.71796 7.26184 4.95256 7.41455 5.18966 7.55596C5.51014 7.74701 5.8219 7.95377 6.14674 8.1354C6.28364 8.21207 6.44481 8.24852 6.5979 8.29188C6.70182 8.32142 6.77027 8.26863 6.8101 8.16493C6.919 7.88338 7.03661 7.60561 7.14365 7.32343C7.16169 7.27566 7.15796 7.21282 7.14613 7.16066C7.01608 6.58499 6.87482 6.01121 6.84184 5.4192C6.82628 5.14896 6.83001 4.87747 6.8269 4.6066C6.82503 4.43 6.88975 4.27352 6.98558 4.13086C7.18783 3.8292 7.4467 3.59541 7.7902 3.46595C8.08019 3.3566 8.37516 3.27867 8.68879 3.26861C9.56248 3.2397 10.4212 3.30444 11.2221 3.69282C11.4941 3.8248 11.7455 4.0014 12.0006 4.16605C12.0728 4.21256 12.1307 4.28546 12.1873 4.35333C12.5072 4.73858 12.4785 5.12948 12.0691 5.41354C11.7374 5.64356 11.3709 5.82204 11.0211 6.02629C10.7927 6.15952 10.565 6.29527 10.341 6.43542C10.2738 6.47752 10.2134 6.53345 10.1568 6.59002C9.97133 6.77541 9.98128 6.82317 10.1505 7.01548C10.3061 7.19271 10.4443 7.3869 10.5793 7.58172C10.6278 7.65211 10.677 7.69736 10.7585 7.72564C11.3068 7.91732 11.8562 8.1046 12.3976 8.31451C12.6198 8.40061 12.832 8.52378 13.0311 8.65702C13.4045 8.90651 13.6074 9.26348 13.6254 9.72288C13.6372 10.0245 13.6105 10.318 13.5084 10.6059C13.0772 11.8282 12.262 12.7169 11.1686 13.3629C11.0392 13.4396 10.8911 13.4905 10.7448 13.5295C10.1891 13.6771 9.80704 13.3918 9.78589 12.8099C9.77406 12.4906 9.78402 12.1714 9.78402 11.8515C9.789 11.8527 9.79522 11.8527 9.80144 11.8527ZM7.69437 10.247C7.68068 10.2256 7.67632 10.2137 7.66824 10.2055C7.3434 9.90639 7.04843 9.58588 6.89162 9.15853C6.88166 9.13213 6.83001 9.10385 6.79952 9.10574C6.32222 9.13025 5.90529 8.94925 5.50889 8.71169C5.1517 8.49739 4.80446 8.26486 4.45224 8.04176C4.38939 8.00216 4.32343 7.96823 4.23195 7.91732C4.222 8.04678 4.19586 8.15236 4.21017 8.25166C4.26493 8.63879 4.31223 9.02844 4.39873 9.40865C4.55928 10.115 4.91149 10.7215 5.43608 11.2174C5.74536 11.5102 5.99988 11.5335 6.36018 11.3079C6.57052 11.1765 6.7684 11.0232 6.96194 10.8679C7.21023 10.6668 7.45043 10.4538 7.69437 10.247ZM11.5569 4.78697C11.4406 4.71218 11.3534 4.64494 11.257 4.59466C10.466 4.18428 9.62471 4.01019 8.73857 4.0655C8.4517 4.08309 8.17789 4.15788 7.92897 4.30808C7.70557 4.4432 7.5724 4.63425 7.60103 4.90763C7.64023 5.28094 7.68255 5.65424 7.7342 6.02566C7.76531 6.24813 7.81696 6.46747 7.8599 6.69308C7.99556 6.64469 8.11442 6.59567 8.23639 6.55985C8.53322 6.47312 8.83752 6.47375 9.14182 6.50517C9.22956 6.51397 9.27748 6.49198 9.31668 6.40588C9.36335 6.3047 9.4262 6.20791 9.49777 6.12244C9.71246 5.86603 9.97631 5.67184 10.2682 5.51347C10.6204 5.32242 10.9726 5.12948 11.3236 4.93591C11.392 4.89758 11.4567 4.85107 11.5569 4.78697ZM10.8089 8.60988C10.799 8.65639 10.7921 8.68341 10.7878 8.71106C10.7206 9.12082 10.5756 9.49601 10.3186 9.82532C10.2962 9.8536 10.2999 9.92713 10.3204 9.96107C10.5189 10.2841 10.6036 10.6392 10.6023 11.0131C10.6011 11.5222 10.5818 12.0312 10.5749 12.5403C10.5743 12.6044 10.603 12.6691 10.6179 12.7338C10.6801 12.7137 10.7492 12.7055 10.8033 12.6722C11.3142 12.358 11.7573 11.9627 12.1307 11.492C12.4443 11.0961 12.6808 10.6543 12.7915 10.1584C12.9054 9.64684 12.7872 9.39797 12.318 9.18492C11.8811 8.98633 11.4275 8.82481 10.9801 8.64948C10.9303 8.62999 10.8743 8.62496 10.8089 8.60988ZM7.61534 8.48733C7.55249 9.18995 8.21149 9.71408 8.75911 9.70843C9.44923 9.70152 9.97942 9.20189 9.98253 8.53132C9.98626 7.83939 9.45794 7.292 8.79085 7.29012C8.17042 7.28886 7.55436 7.86453 7.61534 8.48733Z" fill="#274698"/>
<path d="M7.69422 10.247C7.45029 10.4544 7.2107 10.6668 6.96054 10.8679C6.76701 11.0238 6.56912 11.1765 6.35879 11.3079C5.99849 11.5335 5.74459 11.5102 5.43469 11.2174C4.9101 10.7215 4.55851 10.1157 4.39733 9.40865C4.31084 9.02843 4.26292 8.63879 4.20878 8.25166C4.19447 8.15236 4.2206 8.04678 4.23056 7.91732C4.32204 7.96885 4.388 8.00216 4.45085 8.04175C4.80307 8.26486 5.1503 8.49739 5.5075 8.71169C5.9039 8.94925 6.32083 9.13024 6.79813 9.10573C6.82924 9.10385 6.88089 9.13213 6.89023 9.15853C7.04704 9.58588 7.34201 9.90639 7.66684 10.2055C7.67618 10.2131 7.68053 10.2256 7.69422 10.247Z" fill="#274698"/>
<path d="M11.5569 4.78696C11.4567 4.85107 11.3926 4.89757 11.3236 4.93591C10.9726 5.1301 10.621 5.32241 10.2681 5.51346C9.9763 5.67183 9.71182 5.86665 9.49776 6.12244C9.42619 6.20791 9.36334 6.30469 9.31667 6.40587C9.27746 6.49197 9.22955 6.51397 9.14181 6.50517C8.83751 6.47375 8.53383 6.47312 8.23637 6.55984C8.11378 6.59567 7.99555 6.64469 7.85989 6.69308C7.81695 6.46809 7.76468 6.24813 7.73419 6.02565C7.68254 5.65424 7.64022 5.28093 7.60102 4.90763C7.57239 4.63425 7.70556 4.44382 7.92896 4.30808C8.17788 4.15725 8.45169 4.08309 8.73856 4.06549C9.62533 4.01019 10.466 4.18427 11.257 4.59465C11.3534 4.64493 11.4405 4.71218 11.5569 4.78696Z" fill="#274698"/>
<path d="M10.8088 8.60989C10.8741 8.62435 10.9307 8.63 10.9811 8.65012C11.4286 8.82546 11.8822 8.98697 12.3191 9.18556C12.7877 9.39861 12.9065 9.64811 12.7926 10.159C12.6819 10.6543 12.4454 11.0967 12.1318 11.4926C11.7584 11.9633 11.3153 12.3587 10.8044 12.6729C10.7503 12.7062 10.6812 12.7144 10.619 12.7345C10.604 12.6697 10.5754 12.605 10.576 12.5409C10.5829 12.0319 10.6022 11.5228 10.6034 11.0137C10.604 10.6404 10.5194 10.2847 10.3215 9.96171C10.3004 9.92777 10.2973 9.85424 10.3197 9.82596C10.5767 9.49665 10.7217 9.12146 10.7889 8.7117C10.792 8.68405 10.7988 8.65703 10.8088 8.60989Z" fill="#274698"/>
<path d="M7.61526 8.48733C7.55428 7.86389 8.17097 7.28823 8.79077 7.29011C9.45848 7.292 9.98619 7.83938 9.98245 8.53132C9.97934 9.20188 9.44915 9.70088 8.75903 9.70842C8.21142 9.71408 7.55241 9.18994 7.61526 8.48733ZM8.79637 9.29992C9.24815 9.29804 9.58543 8.94861 9.58543 8.48418C9.58543 8.0606 9.21393 7.6961 8.78517 7.69861C8.37632 7.70112 8.00482 8.06626 8.00482 8.4647C8.00482 8.95364 8.33525 9.30181 8.79637 9.29992Z" fill="#274698"/>
</svg>
