<svg width="9" height="14" viewBox="0 0 9 14" fill="none" xmlns="http://www.w3.org/2000/svg">
<path d="M1.78341 0.277045L8.77189 6.48285C8.85484 6.55673 8.91346 6.63676 8.94774 6.72295C8.98258 6.80915 9 6.90149 9 7C9 7.0985 8.98258 7.19085 8.94774 7.27704C8.91346 7.36324 8.85484 7.44327 8.77189 7.51715L1.78341 13.7414C1.58986 13.9138 1.34793 14 1.0576 14C0.767282 14 0.518435 13.9077 0.311061 13.723C0.103687 13.5383 8.9447e-07 13.3228 8.72941e-07 13.0765C8.51412e-07 12.8303 0.103687 12.6148 0.311061 12.4301L6.40783 7L0.31106 1.56992C0.117512 1.39754 0.0207365 1.18526 0.0207365 0.933087C0.0207365 0.680423 0.124424 0.461741 0.331796 0.277045C0.53917 0.0923488 0.781106 -2.35156e-07 1.0576 -2.59328e-07C1.3341 -2.835e-07 1.57604 0.0923487 1.78341 0.277045Z" fill="#AEB9D6"/>
</svg>
