<svg width="11" height="15" viewBox="0 0 11 15" fill="none" xmlns="http://www.w3.org/2000/svg">
<path d="M5.50008 6.89583C5.03043 6.89583 4.58001 6.70926 4.24791 6.37717C3.91582 6.04507 3.72925 5.59465 3.72925 5.125C3.72925 4.65534 3.91582 4.20492 4.24791 3.87283C4.58001 3.54073 5.03043 3.35416 5.50008 3.35416C5.96974 3.35416 6.42015 3.54073 6.75225 3.87283C7.08435 4.20492 7.27091 4.65534 7.27091 5.125C7.27091 5.35755 7.22511 5.58782 7.13612 5.80267C7.04713 6.01751 6.91669 6.21273 6.75225 6.37717C6.58781 6.5416 6.3926 6.67204 6.17775 6.76103C5.9629 6.85003 5.73263 6.89583 5.50008 6.89583ZM5.50008 0.166664C4.18505 0.166664 2.92388 0.689058 1.99401 1.61893C1.06414 2.54879 0.541748 3.80997 0.541748 5.125C0.541748 8.84375 5.50008 14.3333 5.50008 14.3333C5.50008 14.3333 10.4584 8.84375 10.4584 5.125C10.4584 3.80997 9.93602 2.54879 9.00615 1.61893C8.07628 0.689058 6.81511 0.166664 5.50008 0.166664Z" fill="#274698"/>
</svg>
