<svg width="21" height="17" viewBox="0 0 21 17" fill="none" xmlns="http://www.w3.org/2000/svg">
<path d="M0.0065097 14.7371C0.337554 14.8223 0.665349 14.9241 1.00046 14.9876C1.35222 15.0543 1.70073 14.999 2.03055 14.861C3.03993 14.4386 3.22028 13.23 2.375 12.5484C1.97694 12.2274 1.50291 12.0885 1.00046 12.0223C0.86885 12.0049 0.736026 11.9935 0.572332 11.9757C1.01102 11.4697 1.52403 11.1297 2.16784 11.0003C3.05415 10.822 3.85191 11.0547 4.58873 11.5288C4.89784 11.728 5.19599 11.9438 5.50347 12.1453C5.87676 12.3899 6.2862 12.5133 6.74276 12.5047C8.87688 12.4644 11.011 12.4305 13.1455 12.3954C13.5797 12.3883 13.9656 12.2368 14.3141 12.0014C14.6517 11.773 14.9701 11.5178 15.304 11.2843C15.5502 11.1123 15.7988 10.9411 16.062 10.7956C16.6879 10.4497 17.3508 10.3976 18.0373 10.6039C19.0166 10.8981 19.6332 11.5635 20.0719 12.4853C19.9602 12.4479 19.8895 12.4258 19.82 12.4009C19.3021 12.2155 18.7745 12.1292 18.2347 12.2917C17.6672 12.4625 17.2878 12.8186 17.19 13.4024C17.0929 13.983 17.3557 14.422 17.826 14.7541C18.2424 15.048 18.7266 15.1608 19.2298 15.2089C19.309 15.2164 19.3883 15.2199 19.5048 15.2274C19.4512 15.2961 19.4212 15.3426 19.3834 15.382C18.5418 16.2565 17.3752 16.5042 16.2139 16.0589C15.7297 15.8735 15.3158 15.5832 14.921 15.2613C14.6017 15.001 14.254 14.7868 13.8352 14.7206C13.6098 14.6847 13.3787 14.6642 13.1508 14.6681C11.3542 14.6997 9.55806 14.7383 7.76148 14.7774C7.43734 14.7845 7.11361 14.8003 6.78988 14.8196C6.42471 14.8413 6.0892 14.9533 5.79187 15.1627C5.52947 15.3473 5.26748 15.5327 5.01158 15.7256C4.3633 16.2151 3.7073 16.6872 2.84374 16.7432C2.80312 16.7432 2.76251 16.7432 2.72229 16.7432C2.60369 16.7243 2.48467 16.7085 2.36647 16.686C1.31525 16.488 0.60767 15.868 0.127148 14.9687C0.0914033 14.902 0.0467225 14.8397 0.00610352 14.7754C0.00650971 14.7636 0.0065097 14.7506 0.0065097 14.7371Z" fill="#274698"/>
<path d="M20.7092 9.90062C20.5792 9.83949 20.4301 9.80044 20.3217 9.71406C19.4463 9.0171 18.4394 8.65185 17.3175 8.57336C17.1903 8.56468 17.1424 8.52603 17.0969 8.40612C16.9442 8.00104 16.7789 7.59951 16.5953 7.20705C16.4442 6.88401 16.46 6.68127 16.72 6.42489C17.0705 6.07898 17.4231 5.73503 17.7757 5.39109C17.9426 5.22819 17.9548 5.05819 17.7878 4.8945C17.3317 4.44682 16.8715 4.00348 16.408 3.56329C16.2285 3.3929 16.0546 3.40434 15.8597 3.59051C15.5416 3.89383 15.2293 4.20267 14.9128 4.50756C14.6529 4.75803 14.4181 4.76394 14.0903 4.60144C13.5931 4.35531 13.0862 4.12496 12.5716 3.91513C12.2088 3.76721 12.0833 3.62916 12.0829 3.24104C12.0821 2.79533 12.0837 2.34923 12.0825 1.90352C12.0813 1.59981 11.9521 1.47557 11.6381 1.47517C11.0301 1.47438 10.422 1.47399 9.81394 1.47517C9.50686 1.47596 9.38419 1.5935 9.38216 1.89327C9.37932 2.31965 9.38338 2.74564 9.38054 3.17202C9.3781 3.51359 9.21116 3.68636 8.8793 3.79522C8.35085 3.96837 7.82686 4.15731 7.31263 4.36635C6.95965 4.50993 6.76305 4.50125 6.4909 4.24053C6.13996 3.90408 5.79063 3.56645 5.44131 3.22842C5.26178 3.05487 5.09524 3.04383 4.9153 3.21619C4.45427 3.65914 3.99731 4.10564 3.54359 4.55529C3.36609 4.7312 3.37706 4.90633 3.57649 5.10631C3.86814 5.39819 4.16791 5.68218 4.46361 5.97011C4.77475 6.27264 4.78125 6.47301 4.58141 6.84496C4.33282 7.30803 4.10576 7.78332 3.90063 8.2661C3.74019 8.64318 3.60737 8.75835 3.17884 8.75835C2.75315 8.75875 2.32746 8.75835 1.90218 8.75835C1.48827 8.75835 1.40135 8.83763 1.38104 9.23088C1.011 9.39654 0.640963 9.5626 0.252239 9.73694C0.239647 9.16817 0.160847 8.59111 0.608061 8.11109C0.899299 7.7983 1.25106 7.61608 1.68812 7.60819C2.05288 7.60148 2.41804 7.61134 2.78239 7.59912C2.84779 7.59675 2.93959 7.53601 2.96965 7.47842C3.11222 7.2039 3.23286 6.91872 3.37218 6.64262C3.41889 6.54993 3.41199 6.49392 3.33562 6.42213C3.13131 6.23123 2.9339 6.03322 2.73609 5.83601C2.13574 5.23687 2.12477 4.349 2.72065 3.74789C3.19386 3.27062 3.67398 2.80007 4.161 2.33661C4.73007 1.79466 5.66065 1.80768 6.22566 2.3583C6.50187 2.6277 6.77036 2.90499 7.03317 3.16926C7.42433 3.02963 7.78462 2.90538 8.13922 2.76891C8.18025 2.75313 8.21396 2.66793 8.21559 2.6139C8.2233 2.35199 8.2164 2.0893 8.22005 1.82701C8.23143 0.967933 8.86265 0.336448 9.75017 0.317516C10.4119 0.303316 11.0743 0.302922 11.736 0.318304C12.6175 0.33842 13.2239 0.93914 13.2471 1.79703C13.2556 2.11139 13.2572 2.42694 13.2454 2.7409C13.2402 2.88408 13.2958 2.94522 13.427 2.99689C13.7016 3.10496 13.9705 3.22803 14.2357 3.35661C14.332 3.40315 14.3884 3.39329 14.4608 3.32032C14.6529 3.12666 14.8519 2.9397 15.0501 2.75195C15.6773 2.15754 16.5628 2.13821 17.1948 2.72158C17.6989 3.18661 18.194 3.66229 18.6782 4.14666C19.2335 4.70162 19.2087 5.60132 18.6413 6.15116C18.3975 6.38742 18.1583 6.62842 17.9113 6.86153C17.8333 6.93489 17.8126 6.99169 17.8589 7.097C17.9836 7.37942 18.0961 7.66735 18.1977 7.95844C18.233 8.05981 18.2797 8.09018 18.3833 8.08782C18.6465 8.0819 18.9102 8.08545 19.1738 8.08584C20.1068 8.08821 20.7612 8.72877 20.7624 9.63951C20.7624 9.7042 20.7624 9.76849 20.7624 9.83318C20.7449 9.85566 20.727 9.87814 20.7092 9.90062Z" fill="#274698"/>
<path d="M13.7455 9.84106C13.3795 7.92097 11.7974 7.11475 10.4858 7.11515C9.18723 7.11554 7.59903 7.91308 7.22778 9.84422C6.85571 9.84422 6.4812 9.84422 6.06201 9.84422C6.12619 9.56772 6.16437 9.29635 6.25211 9.04076C6.79478 7.46146 7.88499 6.42647 9.57474 6.08884C11.2832 5.74726 12.7341 6.2616 13.8848 7.53324C14.3089 8.00144 14.579 8.55877 14.7569 9.1583C14.7914 9.27387 14.7752 9.34921 14.661 9.41666C14.5116 9.50501 14.3678 9.60598 14.237 9.7184C14.0932 9.84146 13.9405 9.88997 13.7455 9.84106Z" fill="#274698"/>
</svg>
