<svg width="21" height="17" viewBox="0 0 21 17" fill="none" xmlns="http://www.w3.org/2000/svg">
<path d="M8.22444 4.55693C8.3853 4.56871 8.48652 4.58239 8.58795 4.58258C9.67008 4.5841 10.7522 4.58353 11.9895 4.58353C11.7298 4.34337 11.5584 4.18244 11.3841 4.02436C10.7178 3.41978 10.0565 2.81045 9.37797 2.21727C9.25323 2.10821 9.05751 2.00352 8.89392 2.00257C6.4827 1.99003 4.07148 1.99535 1.66047 1.99839C1.61175 1.99839 1.56303 2.02176 1.47714 2.0438C1.47714 6.31557 1.47714 10.5902 1.47714 14.9167C1.69995 14.9167 1.8879 14.9167 2.07585 14.9167C3.91041 14.9167 5.74518 14.9157 7.57974 14.9184C7.75278 14.9186 7.9758 14.8859 8.08752 14.9672C8.27043 15.1008 8.48295 15.3121 8.4903 15.4969C8.4966 15.6507 8.25216 15.8494 8.06883 15.9602C7.94283 16.0362 7.73094 16.0054 7.55748 16.0056C5.67042 16.008 3.78336 16.0092 1.8963 16.0063C0.724921 16.0046 0.258721 15.5731 0.258511 14.5012C0.258301 10.4528 0.258091 6.4043 0.258721 2.35597C0.258931 1.33396 0.711061 0.925462 1.85262 0.924322C4.26384 0.921852 6.67506 0.930402 9.08628 0.916722C9.48612 0.914442 9.7713 1.02464 10.0491 1.28418C11.0219 2.19257 12.0183 3.08006 13.0082 3.97325C13.2512 4.19251 13.5108 4.4245 13.2926 4.75206C13.0362 5.137 12.9343 5.6804 12.2422 5.67736C10.757 5.6709 9.27171 5.67945 7.78659 5.67052C7.24584 5.66729 7.05474 5.49135 7.04466 5.01692C7.035 4.55845 7.04277 4.09979 7.04613 3.64113C7.04865 3.30255 7.24626 3.0831 7.6104 3.07702C8.00016 3.07056 8.21205 3.29666 8.22276 3.65272C8.23116 3.93639 8.22444 4.21987 8.22444 4.55693Z" fill="#274698"/>
<path d="M9.70239 13.8945C9.53838 12.6813 10.118 11.6985 10.787 10.7019C12.6187 7.97389 14.3925 5.21414 16.1901 2.46731C16.7468 1.61649 17.4342 1.45518 18.3855 1.95431C18.914 2.23171 19.4432 2.50892 19.9619 2.80133C20.7805 3.26265 20.9615 3.92271 20.4785 4.66219C18.4523 7.76394 16.4331 10.8697 14.382 13.9581C14.151 14.306 13.773 14.6045 13.3957 14.8359C12.7176 15.2516 11.992 15.6047 11.2795 15.9731C10.42 16.4175 9.6982 16.0267 9.70198 15.128C9.70387 14.7166 9.70239 14.3056 9.70239 13.8945ZM17.4312 2.69816C17.3017 2.88987 17.2015 3.03427 17.1055 3.18076C15.2649 5.9939 13.4801 8.83877 11.5567 11.6048C10.8221 12.6612 11.0157 13.7303 10.9065 14.9235C11.5886 14.5623 12.1835 14.2714 12.7476 13.9378C12.9994 13.7888 13.2457 13.5848 13.3982 13.3537C15.3932 10.3297 17.3714 7.29654 19.3523 4.2649C19.4296 4.14672 19.4939 4.02189 19.593 3.85032C18.8668 3.46329 18.1679 3.0907 17.4312 2.69816Z" fill="#274698"/>
<path d="M6.77248 8.92256C5.65591 8.92256 4.53913 8.91896 3.42256 8.92447C3.00319 8.92656 2.67433 8.81293 2.67286 8.38524C2.67139 7.94919 3.01306 7.85438 3.42697 7.85514C5.64268 7.85875 7.8586 7.8599 10.0743 7.8542C10.4968 7.85306 10.8326 7.97123 10.8295 8.38942C10.8265 8.80381 10.4935 8.92827 10.0699 8.92523C8.97097 8.91725 7.87183 8.92256 6.77248 8.92256Z" fill="#274698"/>
<path d="M6.05164 11.1C5.17993 11.1 4.30822 11.0969 3.43672 11.1013C3.02344 11.1034 2.68618 10.9972 2.67232 10.5708C2.65804 10.1357 2.99257 10.0238 3.40858 10.0242C5.16922 10.0259 6.93007 10.0255 8.69071 10.0247C9.08614 10.0246 9.40051 10.1378 9.4024 10.5457C9.4045 10.9723 9.08677 11.1017 8.66656 11.1005C7.79506 11.0982 6.92335 11.1 6.05164 11.1Z" fill="#274698"/>
<path d="M17.4312 2.69816C18.1679 3.0907 18.8668 3.46329 19.5932 3.85032C19.4941 4.02189 19.4296 4.14691 19.3525 4.2649C17.3714 7.29654 15.3934 10.3297 13.3984 13.3537C13.2459 13.5848 12.9994 13.7888 12.7478 13.9378C12.1837 14.2714 11.5888 14.5623 10.9067 14.9235C11.0159 13.7303 10.8223 12.6612 11.5569 11.6048C13.4805 8.83896 15.2653 5.99409 17.1057 3.18095C17.2015 3.03408 17.3017 2.88987 17.4312 2.69816Z" fill="#274698"/>
</svg>
