<svg width="30" height="25" viewBox="0 0 30 25" fill="none" xmlns="http://www.w3.org/2000/svg">
<path d="M15.5768 22.9832C15.2577 22.6557 14.9449 22.3331 14.6301 22.0123C12.2371 19.5734 9.84338 17.1349 7.45037 14.696C6.94081 14.1766 6.43419 13.6539 5.92243 13.1364C5.06801 12.2727 4.66103 11.2195 4.62316 10.0089C4.61471 9.74218 4.62426 9.47504 4.61434 9.20827C4.60257 8.89642 4.68713 8.64344 5.04449 8.48584C4.92206 8.37854 4.81912 8.29508 4.72426 8.2038C4.53309 8.02012 4.34118 7.83718 4.15882 7.64456C3.91066 7.38264 3.90993 7.17623 4.16066 6.91766C4.60735 6.45715 5.05993 6.00261 5.51066 5.5462C6.01801 5.03279 6.525 4.51975 7.03456 4.00894C7.10809 3.93517 7.18824 3.86476 7.27647 3.8111C7.44596 3.70827 7.59191 3.73063 7.7739 3.90537C7.99154 4.11438 8.19816 4.33569 8.40074 4.55999C8.48934 4.65835 8.57169 4.69486 8.70404 4.65164C8.96691 4.56557 9.23346 4.53353 9.51654 4.56222C10.2261 4.63376 10.7739 4.30403 11.2577 3.8085C12.1235 2.92176 12.9879 2.03279 13.8801 1.17399C15.1842 -0.0819666 17.0239 -0.0409831 18.2978 1.24404C19.2923 2.24702 20.2853 3.25112 21.2798 4.25373C21.336 4.31036 21.3908 4.38413 21.4607 4.40835C21.9118 4.56483 22.1882 4.94188 22.5184 5.25112C22.6257 5.35172 22.7257 5.46088 22.8305 5.56744C22.5665 5.84017 22.307 6.10842 22.0471 6.37668C21.9397 6.48733 21.8268 6.59315 21.7265 6.70976C21.3607 7.13562 21.3636 7.68145 21.7287 8.05365C22.0993 8.43145 22.6551 8.44411 23.068 8.05961C23.4015 7.74888 23.7118 7.41319 24.0309 7.08681C24.0735 7.04322 24.107 6.99069 24.157 6.92623C24.4206 7.21572 24.6596 7.47802 24.9026 7.74479C24.5596 8.11736 24.2235 8.47876 23.8919 8.84352C23.4919 9.28353 23.493 9.85134 23.886 10.2425C24.1647 10.5201 24.7974 10.6677 25.2603 10.1874C25.5978 9.83718 25.9448 9.4959 26.2926 9.14568C26.7772 9.65052 27.2588 10.152 27.7169 10.6293C23.6912 14.7258 19.6426 18.8454 15.5768 22.9832ZM15.4757 10.4326C15.6004 11.0309 15.7063 11.5712 15.8265 12.1084C16.046 13.089 16.2838 14.0645 16.7342 14.9702C17.1875 15.8823 17.914 16.3726 18.9268 16.3435C19.9544 16.3141 20.6676 15.7697 21.0691 14.8253C21.6165 13.5373 21.011 11.9996 19.7173 11.5976C18.9923 11.3722 18.2765 11.1136 17.5452 10.911C16.8805 10.7265 16.2011 10.5976 15.4757 10.4326ZM19.1191 4.44672C19.0346 4.35283 18.9805 4.28614 18.9199 4.22616C18.4551 3.76677 17.9893 3.3085 17.5235 2.85022C17.3257 2.65574 17.1342 2.4538 16.9265 2.27087C16.4051 1.81185 15.6765 1.81036 15.1717 2.28726C14.4548 2.96423 13.7548 3.65909 13.0478 4.3465C13.0232 4.37034 13.004 4.39941 12.9654 4.44672C15.0206 4.44672 17.0485 4.44672 19.1191 4.44672Z" fill="#274698"/>
<path d="M29.0058 11.7455C29.2117 11.9672 29.4142 12.1807 29.6095 12.4009C29.647 12.4434 29.6771 12.5138 29.6734 12.5686C29.6253 13.3238 29.5992 14.0816 29.5091 14.832C29.4168 15.6017 28.9973 16.2206 28.4683 16.7571C26.2205 19.0361 23.9753 21.3178 21.7117 23.5805C20.6183 24.6736 19.2845 25.0205 17.7867 24.7172C17.394 24.6379 17.0698 24.4147 16.8069 24.155C20.8753 20.0168 24.9334 15.8882 29.0058 11.7455Z" fill="#274698"/>
<path d="M3.51759 14.0529C4.63634 15.6032 5.73487 17.1256 6.46795 18.8778C7.28597 20.8338 6.02604 23.054 3.94075 23.3301C2.28156 23.5496 0.734866 22.4169 0.351043 20.7172C0.205822 20.0753 0.315014 19.4758 0.563175 18.886C1.13965 17.513 1.93891 16.2735 2.79112 15.0659C3.02531 14.7336 3.26465 14.405 3.51759 14.0529Z" fill="#274698"/>
</svg>
