<svg width="18" height="18" viewBox="0 0 18 18" fill="none" xmlns="http://www.w3.org/2000/svg">
<path d="M4.14884 14.8826C3.6605 14.8336 3.1772 14.8352 2.71856 14.7297C1.44308 14.4363 0.698597 13.458 0.698417 12.1469C0.698057 9.19259 0.734597 6.23771 0.684557 3.28427C0.655217 1.55861 1.99064 0.484909 3.49058 0.492469C5.35484 0.501649 7.2191 0.494629 9.08336 0.494809C9.78626 0.494809 10.4901 0.516409 11.1921 0.490669C12.609 0.438649 14.071 1.37753 14.094 3.11111C14.4542 3.12875 14.8185 3.12533 15.1774 3.16763C16.6072 3.33629 17.5396 4.39649 17.5396 5.83559C17.5398 8.81027 17.5151 11.7853 17.5497 14.7596C17.568 16.3389 16.3485 17.4544 14.8848 17.4668C12.2159 17.4895 9.54668 17.483 6.87764 17.4688C5.50514 17.4614 4.44134 16.612 4.19798 15.3759C4.16684 15.2175 4.16504 15.0534 4.14884 14.8826ZM16.6403 10.3309C16.6403 8.79227 16.6408 7.25381 16.6401 5.71517C16.6398 4.74173 15.9086 3.97151 14.9366 3.96773C12.2161 3.95711 9.49556 3.95603 6.77504 3.96863C5.78216 3.97331 5.05748 4.73705 5.05334 5.72957C5.05028 6.44165 5.0537 7.15391 5.05244 7.86599C5.04866 10.0321 5.042 12.1982 5.042 14.3645C5.042 14.6795 5.04092 14.9997 5.09384 15.3083C5.22218 16.0569 5.94632 16.6323 6.81194 16.637C9.50186 16.6516 12.1918 16.6433 14.8817 16.6433C14.9427 16.6433 15.0037 16.6365 15.0646 16.6313C15.9633 16.5524 16.6394 15.8177 16.6399 14.916C16.6408 13.3877 16.6401 11.8593 16.6403 10.3309ZM4.16 13.9903C4.16 13.8755 4.16 13.7763 4.16 13.6773C4.16144 10.9989 4.16378 8.32049 4.16342 5.64191C4.16324 5.03333 4.3715 4.50719 4.77398 4.05719C5.37104 3.38957 6.13982 3.13145 7.01408 3.13145C8.94926 3.13145 10.8844 3.13145 12.8196 3.13145C12.9386 3.13145 13.0574 3.13145 13.1794 3.13145C13.1991 2.68757 13.0947 2.32307 12.8401 2.01005C12.4389 1.51649 11.9103 1.31885 11.2812 1.32047C8.6942 1.32677 6.10724 1.32299 3.5201 1.32371C3.39806 1.32371 3.27548 1.32731 3.15398 1.33883C2.27018 1.42325 1.59878 2.15657 1.59842 3.04001C1.59752 6.12611 1.59878 9.21221 1.59752 12.2981C1.59734 12.8702 1.83728 13.3122 2.2907 13.6535C2.8514 14.076 3.49058 14.0182 4.16 13.9903Z" fill="white"/>
<path d="M10.0839 7.20414C8.97511 7.20396 7.86613 7.20468 6.75733 7.20288C6.65689 7.2027 6.53071 7.21998 6.46177 7.1685C6.35935 7.09182 6.23803 6.96258 6.23515 6.85278C6.23245 6.7437 6.34999 6.6132 6.44629 6.52698C6.50209 6.47694 6.61963 6.4854 6.70927 6.48522C8.96791 6.48324 11.2266 6.4836 13.485 6.48378C13.536 6.48378 13.588 6.47802 13.6373 6.48684C13.8409 6.52248 13.9788 6.63264 13.9737 6.85134C13.9687 7.06806 13.8369 7.18938 13.624 7.19712C13.3293 7.20792 13.0341 7.20378 12.7391 7.20396C11.854 7.20468 10.969 7.20432 10.0839 7.20414Z" fill="white"/>
<path d="M11.354 9.59597C10.2754 9.59597 9.19685 9.59849 8.11829 9.59435C7.78673 9.59309 7.58783 9.36485 7.72769 9.12041C7.79519 9.00269 7.99661 8.89901 8.13899 8.89685C9.34787 8.87885 10.5569 8.88479 11.766 8.88569C12.6908 8.88641 13.6158 8.88929 14.5407 8.89325C14.8566 8.89451 15.011 9.01115 14.9986 9.24857C14.9829 9.54575 14.7781 9.59939 14.5286 9.59885C13.4704 9.59615 12.4122 9.59777 11.354 9.59777C11.354 9.59705 11.354 9.59651 11.354 9.59597Z" fill="white"/>
<path d="M11.7449 13.687C12.6705 13.687 13.5962 13.6861 14.5218 13.6875C14.8506 13.6881 15.0191 13.8144 15.0009 14.0576C14.9784 14.3562 14.7639 14.3966 14.5194 14.3964C12.6778 14.3948 10.8363 14.3967 8.99467 14.3924C8.87677 14.3921 8.72143 14.3863 8.65105 14.3156C8.56555 14.2299 8.48257 14.0394 8.52343 13.9543C8.58013 13.836 8.75023 13.7041 8.87677 13.6989C9.50641 13.6735 10.1377 13.6877 10.7684 13.6879C11.094 13.6881 11.4195 13.6879 11.7451 13.6879C11.7449 13.6877 11.7449 13.6874 11.7449 13.687Z" fill="white"/>
<path d="M9.62765 11.9867C8.65025 11.9867 7.67303 11.9837 6.69563 11.9889C6.44435 11.9901 6.23861 11.9439 6.22349 11.6451C6.21179 11.4125 6.37487 11.2923 6.68807 11.2921C8.66303 11.2909 10.638 11.2914 12.6129 11.2917C12.6639 11.2917 12.7146 11.2941 12.7656 11.2959C12.9863 11.3042 13.1117 11.4253 13.1133 11.639C13.1151 11.8721 12.9773 11.9873 12.7427 11.9869C12.0708 11.9862 11.3988 11.9869 10.7269 11.9869C10.3606 11.9869 9.99413 11.9867 9.62765 11.9867Z" fill="white"/>
</svg>
