<svg width="15" height="16" viewBox="0 0 15 16" fill="none" xmlns="http://www.w3.org/2000/svg">
<path d="M8.57727 2.59746C8.59212 2.53798 8.61777 2.4822 8.65274 2.43334C8.68772 2.38447 8.73134 2.34347 8.78111 2.31267C8.83088 2.28187 8.88582 2.26188 8.94281 2.25384C8.99979 2.24581 9.05769 2.24988 9.11321 2.26582C9.92426 2.49255 10.6642 2.94683 11.2569 3.58186C11.8496 4.21689 12.2736 5.00973 12.4852 5.87871C12.5001 5.93819 12.5039 6.00023 12.4964 6.06129C12.4889 6.12234 12.4703 6.18121 12.4415 6.23454C12.4128 6.28786 12.3745 6.3346 12.3289 6.37207C12.2833 6.40954 12.2312 6.43702 12.1757 6.45293C12.1388 6.46333 12.1007 6.46865 12.0625 6.46875C11.9662 6.46879 11.8725 6.43475 11.7961 6.37192C11.7196 6.3091 11.6647 6.221 11.6398 6.12129C11.4673 5.4118 11.1213 4.76445 10.6375 4.24597C10.1536 3.72749 9.5495 3.35665 8.88735 3.17168C8.83178 3.15583 8.77966 3.1284 8.734 3.09096C8.68833 3.05351 8.65 3.00678 8.6212 2.95345C8.5924 2.90012 8.57369 2.84123 8.56616 2.78014C8.55862 2.71906 8.5624 2.65698 8.57727 2.59746ZM8.44985 5.04668C9.20399 5.26231 9.68852 5.78203 9.88977 6.59004C9.9147 6.68975 9.96964 6.77785 10.0461 6.84067C10.1225 6.9035 10.2162 6.93754 10.3125 6.9375C10.3507 6.9374 10.3888 6.93208 10.4257 6.92168C10.4812 6.90577 10.5333 6.87829 10.5789 6.84082C10.6245 6.80335 10.6628 6.75661 10.6915 6.70329C10.7203 6.64996 10.7389 6.59109 10.7464 6.53004C10.7539 6.46898 10.7501 6.40694 10.7352 6.34746C10.4552 5.22481 9.72352 4.44082 8.67571 4.14082C8.62019 4.12493 8.5623 4.12092 8.50534 4.129C8.44837 4.13708 8.39345 4.1571 8.34371 4.18793C8.29397 4.21875 8.25038 4.25977 8.21544 4.30864C8.18049 4.35751 8.15487 4.41328 8.14004 4.47276C8.12521 4.53224 8.12146 4.59426 8.12901 4.6553C8.13655 4.71633 8.15524 4.77517 8.18401 4.82847C8.21277 4.88176 8.25106 4.92846 8.29667 4.9659C8.34228 5.00334 8.39433 5.03079 8.44985 5.04668ZM12.4109 9.65977L9.83454 8.42286L9.82743 8.41934C9.69368 8.35805 9.54778 8.33345 9.40292 8.34777C9.25807 8.3621 9.11884 8.41489 8.99782 8.50137C8.98357 8.51145 8.96987 8.52241 8.9568 8.53418L7.62571 9.75C6.78243 9.31114 5.9118 8.38535 5.50219 7.49356L6.6386 6.04571C6.64954 6.03106 6.65993 6.01641 6.66977 6.00059C6.74875 5.87127 6.79668 5.72304 6.80927 5.56909C6.82186 5.41514 6.79874 5.26023 6.74196 5.11817V5.11114L5.58422 2.3461C5.50916 2.16051 5.38009 2.00591 5.21628 1.90538C5.05247 1.80484 4.86271 1.76377 4.67532 1.78828C3.93429 1.89276 3.25409 2.28268 2.76177 2.88522C2.26944 3.48775 1.99867 4.2617 2 5.0625C2 9.71485 5.53282 13.5 9.875 13.5C10.6224 13.5014 11.3448 13.2113 11.9071 12.6838C12.4695 12.1563 12.8334 11.4276 12.9309 10.6336C12.9539 10.4329 12.9156 10.2296 12.8219 10.0541C12.7282 9.87862 12.584 9.74029 12.4109 9.65977Z" fill="#274698"/>
</svg>
