<svg width="34" height="34" viewBox="0 0 34 34" fill="none" xmlns="http://www.w3.org/2000/svg">
<path d="M15.6667 33.3333C15.1145 33.3333 14.6667 32.8856 14.6667 32.3333V20.3333C14.6667 19.781 14.219 19.3333 13.6667 19.3333H1.66675C1.11446 19.3333 0.666748 18.8856 0.666748 18.3333V15.6666C0.666748 15.1143 1.11446 14.6666 1.66675 14.6666H13.6667C14.219 14.6666 14.6667 14.2189 14.6667 13.6666V1.66663C14.6667 1.11434 15.1145 0.666626 15.6667 0.666626H18.3334C18.8857 0.666626 19.3334 1.11434 19.3334 1.66663V13.6666C19.3334 14.2189 19.7811 14.6666 20.3334 14.6666H32.3334C32.8857 14.6666 33.3334 15.1143 33.3334 15.6666V18.3333C33.3334 18.8856 32.8857 19.3333 32.3334 19.3333H20.3334C19.7811 19.3333 19.3334 19.781 19.3334 20.3333V32.3333C19.3334 32.8856 18.8857 33.3333 18.3334 33.3333H15.6667Z" fill="#274698"/>
</svg>
