<svg width="17" height="11" viewBox="0 0 17 11" fill="none" xmlns="http://www.w3.org/2000/svg">
<path d="M8.35734 10.6104C6.49635 10.6101 4.63553 10.6137 2.77454 10.6089C1.28942 10.6052 0.48753 9.8094 0.48498 8.34043C0.48158 6.46023 0.48005 4.58019 0.48566 2.69999C0.48991 1.29834 1.30387 0.472825 2.70416 0.470105C6.50043 0.462965 10.2969 0.463135 14.0931 0.470105C15.4604 0.472485 16.2934 1.29953 16.3004 2.65749C16.3104 4.59345 16.3115 6.52941 16.2992 8.46537C16.2911 9.75856 15.4531 10.5992 14.1635 10.6075C12.2282 10.62 10.2928 10.6108 8.35734 10.6104ZM8.3706 9.75618C10.2671 9.75618 12.1636 9.76128 14.0602 9.75397C14.9812 9.7504 15.4297 9.2977 15.4319 8.38055C15.4366 6.48351 15.4372 4.58631 15.4312 2.68928C15.4283 1.78063 14.9695 1.32656 14.0476 1.32554C10.2731 1.32146 6.49873 1.32163 2.72422 1.32656C1.8086 1.32775 1.35623 1.7859 1.35385 2.70169C1.34909 4.5802 1.34994 6.4587 1.35368 8.3372C1.35572 9.32439 1.78973 9.75261 2.79256 9.75499C4.65185 9.75907 6.51131 9.75601 8.3706 9.75618Z" fill="#274698"/>
<path d="M14.5246 4.37314C14.5246 5.1718 14.5246 5.91317 14.5246 6.70163C10.4504 6.70163 6.39218 6.70163 2.28906 6.70163C2.28906 5.94445 2.28906 5.17724 2.28906 4.37314C6.35223 4.37314 10.4115 4.37314 14.5246 4.37314ZM4.65444 6.45241C5.12432 6.30553 5.63874 6.29312 5.84206 6.03523C6.01138 5.82069 5.94168 5.2143 5.74397 4.9729C5.56054 4.74884 5.06788 4.77791 4.65427 4.68254C4.65444 5.2942 4.65444 5.76884 4.65444 6.45241ZM4.31512 6.39869C4.3481 6.3499 4.38108 6.30111 4.41406 6.25215C4.241 5.811 4.08358 5.36237 3.87941 4.93601C3.84592 4.86597 3.49912 4.84404 3.48025 4.88467C3.27047 5.33772 3.09656 5.80743 2.91313 6.27272C2.94832 6.31284 2.98368 6.35279 3.01887 6.39291C3.45186 5.84772 3.88383 5.81967 4.31512 6.39869ZM7.51146 5.17435C7.28961 4.71926 6.95641 4.65313 6.60298 4.79882C6.17169 4.97647 6.09842 5.37257 6.18903 5.78193C6.27624 6.17599 6.55521 6.41008 6.95998 6.32355C7.16126 6.28054 7.32718 6.07212 7.50908 5.9385C7.47661 5.91589 7.44431 5.89328 7.41184 5.8705C7.14579 5.90059 6.87974 5.93068 6.61369 5.96077C6.58955 5.71427 6.47548 5.43054 6.55878 5.22824C6.77638 4.70073 7.14052 5.27584 7.51146 5.17435ZM12.1863 4.98055C12.2373 5.01336 12.2883 5.04617 12.3393 5.07898C12.2381 5.26445 12.1494 5.45825 12.0324 5.63318C11.8978 5.83429 11.7383 6.01874 11.4946 6.33307C11.9893 6.31012 12.3073 6.2955 12.6252 6.28088C12.6286 6.2309 12.6319 6.18109 12.6353 6.13111C12.4675 6.07773 12.2997 6.02435 12.2693 6.01466C12.3767 5.64168 12.4933 5.30644 12.5464 4.96117C12.5528 4.91918 12.2094 4.75717 12.0408 4.77451C11.8942 4.78947 11.7657 4.9797 11.6292 5.09241C11.6676 5.13525 11.7059 5.17826 11.7443 5.2211C11.8917 5.14103 12.0391 5.06079 12.1863 4.98055ZM12.8767 4.97069C12.9066 5.02985 12.9365 5.08901 12.9664 5.14817C13.1306 5.10431 13.2949 5.06028 13.6184 4.97375C13.4372 5.24932 13.3544 5.37512 13.3285 5.41456C13.4147 5.62944 13.4756 5.78125 13.5364 5.93289C13.3289 5.9487 13.1215 5.96434 12.8576 5.9844C12.9987 6.28394 13.2269 6.42317 13.5432 6.29652C13.8372 6.17888 13.9546 5.94581 13.7982 5.62094C13.752 5.52489 13.7901 5.39025 13.7498 5.28893C13.678 5.10839 13.6027 4.82194 13.4803 4.79406C13.3017 4.75343 13.08 4.90252 12.8767 4.97069ZM11.1032 4.67438C10.8515 4.89181 10.667 5.0511 10.3962 5.28519C10.626 5.30338 10.7343 5.31188 10.8379 5.32004C10.8695 5.66514 10.8996 5.99188 10.9295 6.31879C10.9875 6.31641 11.0454 6.31403 11.1032 6.31165C11.1032 5.80726 11.1032 5.30287 11.1032 4.67438Z" fill="#274698"/>
<path d="M2.28023 3.81265C2.13641 2.21108 2.13641 2.21108 3.67032 2.21091C7.03921 2.21057 10.4081 2.20972 13.777 2.21023C14.5399 2.2104 14.5401 2.21261 14.5411 2.99019C14.5415 3.24995 14.5411 3.50971 14.5411 3.81282C10.4467 3.81265 6.38318 3.81265 2.28023 3.81265ZM12.101 2.41151C11.8813 2.70085 11.6593 2.86592 11.6712 3.01195C11.6839 3.16852 11.9131 3.41825 12.0545 3.42284C12.2004 3.4276 12.4491 3.20354 12.4772 3.04782C12.5028 2.90468 12.2949 2.71955 12.101 2.41151ZM5.34805 3.03337C5.04358 2.83328 4.86661 2.6252 4.71497 2.64237C4.55636 2.66022 4.42223 2.89465 4.27739 3.03422C4.42189 3.17464 4.55568 3.41026 4.71412 3.42828C4.86542 3.44545 5.04239 3.23601 5.34805 3.03337Z" fill="#274698"/>
<path d="M14.4673 7.25752C14.5008 7.31158 14.517 7.32603 14.5185 7.34184C14.6657 8.87286 14.6657 8.87337 13.1337 8.87371C9.78348 8.87439 6.43329 8.87456 3.0831 8.87473C2.24636 8.87473 2.24619 8.87422 2.24568 8.05465C2.24551 7.79897 2.24568 7.54329 2.24568 7.25752C6.35016 7.25752 10.4001 7.25752 14.4673 7.25752ZM4.69147 7.43058C4.49512 7.73182 4.28466 7.91338 4.3071 8.05873C4.33107 8.21275 4.57961 8.44089 4.72428 8.43664C4.86793 8.43239 5.10202 8.18793 5.11545 8.03306C5.12837 7.88584 4.90686 7.71839 4.69147 7.43058ZM12.7049 8.05295C12.4025 7.85014 12.2274 7.64053 12.0768 7.65685C11.9192 7.67385 11.7851 7.90811 11.6407 8.04751C11.7842 8.18759 11.9165 8.42185 12.0746 8.44089C12.2245 8.45874 12.4017 8.25151 12.7049 8.05295Z" fill="#274698"/>
<path d="M4.65479 6.4524C4.65479 5.76883 4.65479 5.29419 4.65479 4.68236C5.0684 4.7779 5.56106 4.74866 5.74449 4.97272C5.94203 5.21412 6.01173 5.82051 5.84258 6.03505C5.63892 6.29311 5.1245 6.30552 4.65479 6.4524Z" fill="#274698"/>
<path d="M4.31539 6.39868C3.8841 5.81966 3.45196 5.84771 3.01931 6.3929C2.98412 6.35278 2.94876 6.31283 2.91357 6.27271C3.097 5.80742 3.27091 5.33771 3.48069 4.88466C3.49956 4.84403 3.84636 4.86596 3.87985 4.936C4.08402 5.36236 4.24144 5.81099 4.4145 6.25214C4.38135 6.30111 4.34837 6.34989 4.31539 6.39868Z" fill="#274698"/>
<path d="M7.51145 5.17434C7.14051 5.276 6.7762 4.70072 6.55877 5.22806C6.47547 5.43019 6.58954 5.71392 6.61368 5.96059C6.87973 5.9305 7.14578 5.90041 7.41183 5.87032C7.4443 5.89293 7.4766 5.91554 7.50907 5.93832C7.32717 6.07194 7.16125 6.28036 6.95997 6.32337C6.55537 6.4099 6.2764 6.17598 6.18902 5.78175C6.09841 5.37239 6.17168 4.97629 6.60297 4.79864C6.9564 4.65312 7.28977 4.71925 7.51145 5.17434Z" fill="#274698"/>
<path d="M12.1862 4.98054C12.039 5.06078 11.8916 5.14102 11.7444 5.22109C11.7059 5.17825 11.6677 5.13524 11.6293 5.0924C11.7658 4.97969 11.8943 4.78946 12.0408 4.7745C12.2095 4.75716 12.5529 4.91917 12.5464 4.96116C12.4934 5.30626 12.3766 5.64167 12.2693 6.01465C12.2997 6.02434 12.4675 6.07772 12.6353 6.1311C12.6319 6.18108 12.6287 6.23089 12.6253 6.28087C12.3074 6.29549 11.9893 6.31028 11.4946 6.33306C11.7384 6.0189 11.898 5.83445 12.0325 5.63317C12.1495 5.45824 12.2382 5.26444 12.3394 5.07897C12.2884 5.04616 12.2372 5.01335 12.1862 4.98054Z" fill="#274698"/>
<path d="M12.8766 4.97069C13.08 4.90252 13.3016 4.7536 13.4801 4.79406C13.6025 4.82194 13.6778 5.10839 13.7496 5.28893C13.7899 5.39008 13.7518 5.52489 13.798 5.62094C13.9544 5.94581 13.837 6.17888 13.543 6.29652C13.2267 6.42317 12.9987 6.28394 12.8574 5.9844C13.1213 5.96434 13.3288 5.9487 13.5362 5.93289C13.4754 5.78125 13.4145 5.62944 13.3283 5.41456C13.3542 5.37512 13.437 5.24932 13.6182 4.97375C13.2948 5.06028 13.1304 5.10414 12.9662 5.14817C12.9365 5.08901 12.9066 5.02985 12.8766 4.97069Z" fill="#274698"/>
<path d="M11.1035 4.67438C11.1035 5.30287 11.1035 5.80726 11.1035 6.31165C11.0455 6.31403 10.9876 6.31641 10.9298 6.31879C10.8999 5.99205 10.8698 5.66514 10.8381 5.32004C10.7348 5.31188 10.6265 5.30338 10.3965 5.28519C10.6673 5.0511 10.8517 4.89181 11.1035 4.67438Z" fill="#274698"/>
<path d="M12.1006 2.4115C12.2946 2.71954 12.5025 2.90484 12.4768 3.04798C12.4488 3.20353 12.2001 3.42776 12.0542 3.423C11.9128 3.41841 11.6836 3.16868 11.6709 3.01211C11.659 2.86591 11.8808 2.70084 12.1006 2.4115Z" fill="#274698"/>
<path d="M5.348 3.03336C5.04234 3.23583 4.86537 3.44527 4.71407 3.42827C4.55563 3.41042 4.42184 3.1748 4.27734 3.03421C4.42218 2.89447 4.55631 2.66021 4.71492 2.64236C4.86656 2.62536 5.04353 2.83327 5.348 3.03336Z" fill="#274698"/>
<path d="M4.69168 7.43059C4.90707 7.71857 5.12858 7.88585 5.11566 8.0329C5.10223 8.18777 4.86814 8.43223 4.72449 8.43648C4.57999 8.44073 4.33128 8.21276 4.30731 8.05857C4.28487 7.91322 4.49533 7.73166 4.69168 7.43059Z" fill="#274698"/>
<path d="M12.7048 8.05295C12.4015 8.25151 12.2244 8.45874 12.0745 8.44072C11.9164 8.42168 11.7841 8.1876 11.6406 8.04735C11.785 7.90812 11.9191 7.67385 12.0767 7.65668C12.2273 7.64053 12.4024 7.85014 12.7048 8.05295Z" fill="#274698"/>
</svg>
