<svg width="21" height="21" viewBox="0 0 21 21" fill="none" xmlns="http://www.w3.org/2000/svg">
<path d="M8.45762 7.32082C8.45762 6.91195 8.4593 6.4741 8.4572 6.03625C8.45342 5.2246 8.46623 4.41232 8.43725 3.60172C8.40176 2.608 8.86523 1.95931 9.73589 1.54078C10.6261 1.1128 11.5702 0.889148 12.5411 0.772598C14.2072 0.572258 15.8675 0.605018 17.5101 0.982598C18.2375 1.14976 18.945 1.3753 19.5706 1.80097C19.8766 2.00908 20.1363 2.26234 20.2817 2.61199C20.3778 2.84341 20.431 3.07693 20.323 3.3241C20.2884 3.40348 20.2726 3.49714 20.2714 3.5845C20.2592 4.41064 20.246 5.23678 20.2456 6.06313C20.2451 6.79246 20.2647 7.52158 20.268 8.25091C20.2722 9.16588 20.2691 10.0808 20.2691 10.9958C20.2691 11.9257 20.2527 12.8558 20.2745 13.7852C20.2909 14.4824 19.9923 14.9837 19.4282 15.3542C18.7766 15.7819 18.0441 16.0058 17.2934 16.1671C15.8335 16.4808 14.3584 16.5274 12.8752 16.3741C12.7956 16.3659 12.7154 16.3632 12.611 16.3563C12.611 16.7847 12.5866 17.1946 12.6163 17.6007C12.674 18.3941 12.2815 18.9143 11.6456 19.3001C11.0211 19.6791 10.3346 19.899 9.62501 20.043C7.50149 20.4746 5.3828 20.4622 3.27692 19.9277C2.69165 19.7793 2.12885 19.5665 1.62191 19.2259C1.07024 18.8553 0.782122 18.3687 0.787582 17.6763C0.806272 15.2267 0.795352 12.777 0.793672 10.3274C0.793672 10.2165 0.793882 10.1004 0.763432 9.9958C0.610342 9.4729 0.816142 9.06256 1.16747 8.70535C1.60742 8.25826 2.1698 8.01886 2.75171 7.82419C3.81872 7.46719 4.9208 7.3015 6.04178 7.28407C6.83432 7.27126 7.62812 7.30633 8.45762 7.32082ZM6.7016 8.29627C5.59196 8.3011 4.53503 8.39308 3.50183 8.67532C2.96192 8.82295 2.43335 9.00208 1.98962 9.35971C1.67105 9.61654 1.65467 9.84775 1.99088 10.0729C2.32646 10.2974 2.69522 10.4895 3.07427 10.6289C3.87416 10.9229 4.71416 11.0458 5.56277 11.1017C6.94247 11.1926 8.31356 11.1443 9.66239 10.8093C10.2487 10.6638 10.8229 10.4784 11.3109 10.1035C11.6641 9.83221 11.6776 9.59239 11.3077 9.34627C10.9837 9.1306 10.6273 8.94454 10.2605 8.81602C9.09686 8.40799 7.88306 8.30257 6.7016 8.29627ZM14.3494 4.54063C15.5021 4.53265 16.5666 4.44298 17.6065 4.1557C18.1458 4.0066 18.675 3.82768 19.1162 3.46627C19.4312 3.20818 19.4444 2.99587 19.1132 2.76781C18.805 2.5555 18.4652 2.37322 18.1157 2.23966C17.2621 1.91353 16.3631 1.7848 15.455 1.72663C14.0069 1.63402 12.5707 1.70269 11.1656 2.10106C10.6351 2.25142 10.1128 2.43034 9.69473 2.81422C9.45953 3.0301 9.44399 3.2191 9.69767 3.40726C9.97466 3.61285 10.2771 3.80395 10.5965 3.92974C11.826 4.41442 13.1209 4.52299 14.3494 4.54063ZM11.9191 13.8968C8.43431 15.2248 4.96385 15.3046 1.47932 13.8974C1.47932 14.2783 1.48856 14.628 1.47575 14.9768C1.4684 15.1775 1.53413 15.3357 1.69877 15.4314C2.0186 15.6175 2.33696 15.8151 2.67779 15.955C3.63791 16.3493 4.65557 16.4812 5.68247 16.5491C7.16822 16.6473 8.64116 16.573 10.0851 16.1786C10.6465 16.0253 11.1901 15.8199 11.6591 15.4646C11.7691 15.3815 11.8978 15.2433 11.9073 15.1217C11.9386 14.7231 11.9191 14.3203 11.9191 13.8968ZM11.9191 16.657C11.0547 16.9035 10.2153 17.2114 9.34865 17.371C8.48366 17.5302 7.59158 17.5974 6.71105 17.6007C5.82296 17.6041 4.93298 17.4957 4.04678 17.4067C3.15323 17.317 2.33885 16.943 1.47953 16.5709C1.47953 16.8512 1.5104 17.0699 1.47386 17.2765C1.36004 17.9174 1.68701 18.265 2.22818 18.488C2.27627 18.5077 2.32331 18.53 2.37056 18.5518C3.16247 18.9176 4.00457 19.0909 4.86389 19.1932C6.56867 19.3958 8.26337 19.3576 9.93602 18.9399C10.5505 18.7864 11.1475 18.5737 11.6603 18.1862C11.7702 18.1033 11.8983 17.9647 11.9077 17.8429C11.9386 17.4449 11.9191 17.0428 11.9191 16.657ZM1.47932 11.1808C1.47932 11.5378 1.49654 11.8736 1.47386 12.2067C1.45622 12.466 1.55513 12.6521 1.76576 12.7617C2.17946 12.977 2.58791 13.2302 3.03017 13.3583C5.39141 14.0414 7.77323 14.0501 10.1471 13.4333C10.6492 13.3029 11.1171 13.0292 11.587 12.7945C11.721 12.7275 11.8882 12.5729 11.9006 12.4452C11.9405 12.0301 11.9155 11.6088 11.9155 11.1796C8.42675 12.5053 4.96679 12.5792 1.47932 11.1808ZM9.26885 4.68133C9.26885 4.96483 9.2888 5.26954 9.26339 5.57026C9.23651 5.88778 9.3728 6.09106 9.62081 6.25801C10.0784 6.56608 10.59 6.74353 11.116 6.88087C12.2685 7.1818 13.4434 7.26937 14.6312 7.25173C15.6545 7.23661 16.6663 7.13896 17.6571 6.87814C18.2333 6.72652 18.7999 6.53815 19.2838 6.17401C19.3969 6.08875 19.5431 5.95918 19.5526 5.84032C19.5855 5.42221 19.5654 5.00011 19.5654 4.57213C16.1361 5.95141 12.7206 5.86951 9.26885 4.68133ZM12.6658 9.87946C13.0604 9.90802 13.4451 9.94666 13.8307 9.96157C15.1675 10.0136 16.4929 9.93448 17.7892 9.57349C18.314 9.42733 18.8257 9.24253 19.2667 8.91346C19.3898 8.82148 19.5412 8.67595 19.5532 8.54344C19.5903 8.13247 19.5668 7.71604 19.5668 7.21624C18.0252 8.09593 16.3736 8.26099 14.7009 8.28619C13.0245 8.31139 11.3808 8.11861 9.8411 7.38592C9.77936 7.57324 9.92342 7.5976 10.0526 7.64212C10.5501 7.81306 11.0608 7.95502 11.5385 8.17006C12.0148 8.38447 12.41 8.72173 12.5612 9.25723C12.615 9.44791 12.6286 9.64993 12.6658 9.87946ZM19.567 10C19.4549 10.0319 19.3589 10.0481 19.2724 10.0857C19.021 10.1947 18.781 10.3352 18.5229 10.4225C17.1178 10.898 15.6629 11.0269 14.1906 11.0038C13.6717 10.9956 13.1532 10.9547 12.6154 10.9276C12.6154 11.4328 12.615 11.9375 12.6156 12.4421C12.6158 12.5643 12.6828 12.6006 12.8 12.6069C13.2082 12.6288 13.6154 12.6743 14.0237 12.6876C15.2935 12.7292 16.5514 12.6378 17.781 12.2953C18.3341 12.1414 18.8755 11.9501 19.3297 11.5836C19.4318 11.5013 19.5483 11.3673 19.5563 11.2501C19.5843 10.844 19.567 10.4343 19.567 10ZM19.5668 12.6962C19.3115 12.7993 19.0872 12.8871 18.8652 12.9805C18.7153 13.0437 18.5742 13.1321 18.4202 13.1807C16.7877 13.6945 15.1111 13.793 13.4153 13.6985C13.1526 13.6838 12.8905 13.6578 12.62 13.6361C12.62 14.2044 12.62 14.7447 12.62 15.2792C12.6419 15.2933 12.6534 15.3067 12.6664 15.3082C12.7992 15.3237 12.9319 15.339 13.0648 15.3512C14.6612 15.4982 16.2436 15.4268 17.7982 15.011C18.352 14.863 18.8919 14.6649 19.3423 14.2924C19.4385 14.2128 19.5496 14.0862 19.5568 13.9751C19.5822 13.5685 19.5668 13.1592 19.5668 12.6962Z" fill="white"/>
</svg>
