<svg width="19" height="19" viewBox="0 0 19 19" fill="none" xmlns="http://www.w3.org/2000/svg">
<path d="M8.97093 0.00460815C9.34313 0.00460815 9.71553 0.00460815 10.0877 0.00460815C10.1937 0.0188082 10.2993 0.0414082 10.4057 0.0456082C10.8397 0.0622082 11.0635 0.285608 11.0391 0.715808C11.0365 0.763608 11.0413 0.811808 11.0441 0.859608C11.1093 1.92421 11.9867 2.75001 13.0505 2.74281C13.6417 2.73881 14.1449 2.52281 14.5675 2.10701C14.7961 1.88201 15.0651 1.86141 15.2957 2.04621C15.8313 2.47561 16.3107 2.96221 16.7361 3.50081C16.8807 3.68381 16.8913 3.89061 16.7753 4.08941C16.7161 4.19101 16.6233 4.27401 16.5425 4.36221C15.6015 5.39101 16.0037 7.10621 17.3105 7.59241C17.5477 7.68061 17.8095 7.71481 18.0633 7.74481C18.4679 7.79281 18.6587 7.97041 18.6923 8.36781C18.7013 8.47441 18.7195 8.58021 18.7335 8.68621C18.7335 9.05841 18.7335 9.43081 18.7335 9.80301C18.7107 9.97461 18.6913 10.1468 18.6641 10.3178C18.6257 10.5598 18.4249 10.7352 18.1815 10.7476C18.0557 10.754 17.9299 10.7576 17.8045 10.769C16.5603 10.881 15.7051 12.1434 16.0565 13.3388C16.1663 13.7122 16.3707 14.0196 16.6401 14.2942C16.8487 14.5068 16.8739 14.7796 16.7029 14.9948C16.2641 15.5466 15.7661 16.0406 15.2089 16.473C15.0067 16.6298 14.7429 16.6126 14.5471 16.4452C14.4787 16.3868 14.4147 16.3232 14.3475 16.2634C13.7613 15.7416 12.7977 15.6064 12.1053 15.9638C11.4029 16.3264 11.0259 16.9106 10.9793 17.7008C10.9475 18.24 10.8097 18.3954 10.2689 18.4096C9.73013 18.4238 9.19033 18.4142 8.65113 18.4068C8.17413 18.4004 7.95993 18.1762 7.98293 17.7164C7.98493 17.6746 7.98093 17.6324 7.97833 17.5904C7.91973 16.6578 7.22853 15.8806 6.30592 15.737C5.60332 15.6276 4.99233 15.8344 4.47713 16.3272C4.19813 16.594 3.93153 16.6114 3.65473 16.3444C3.19793 15.9036 2.75333 15.4492 2.31913 14.986C2.09973 14.752 2.12293 14.4852 2.33893 14.2442C2.37492 14.204 2.41272 14.1652 2.44833 14.1246C2.98573 13.514 3.14333 12.8144 2.87093 12.0506C2.61133 11.3226 2.07613 10.883 1.31233 10.7374C1.14233 10.705 0.964325 10.7102 0.796325 10.6714C0.575525 10.6206 0.385725 10.5042 0.354325 10.2562C0.264925 9.55061 0.260925 8.84301 0.361125 8.13821C0.400525 7.86141 0.568725 7.73141 0.853725 7.70481C1.04453 7.68701 1.23693 7.67281 1.42412 7.63461C2.37392 7.44121 3.03273 6.63901 3.03913 5.67541C3.04293 5.08541 2.81473 4.59481 2.40193 4.17921C2.16673 3.94241 2.14533 3.67501 2.33553 3.43741C2.76873 2.89661 3.26012 2.41281 3.80573 1.98581C4.01513 1.82181 4.28033 1.83761 4.48133 2.01281C4.54473 2.06801 4.60493 2.12661 4.66753 2.18261C5.44413 2.87821 6.69373 2.85241 7.43493 2.12381C7.85513 1.71061 8.03893 1.20261 8.05553 0.618408C8.06573 0.258408 8.24333 0.0904081 8.59973 0.0502082C8.72353 0.0368082 8.84713 0.0200082 8.97093 0.00460815ZM12.3613 13.703C12.3089 13.6482 12.2687 13.6042 12.2267 13.5622C11.5351 12.8698 10.8409 12.1798 10.1539 11.483C10.0557 11.3832 9.98053 11.3646 9.84613 11.4134C9.13973 11.6698 8.42213 11.6846 7.71173 11.4384C6.10553 10.8818 5.22473 9.30361 5.57293 7.63461C5.60893 7.46201 5.65533 7.30481 5.84193 7.24401C6.04053 7.17921 6.16932 7.29721 6.29653 7.42441C6.74213 7.87041 7.19292 8.31121 7.63533 8.76041C7.75213 8.87901 7.87593 8.92601 8.03793 8.89901C8.34533 8.84801 8.65353 8.80081 8.96212 8.75661C9.07413 8.74061 9.13133 8.68421 9.14753 8.57301C9.19413 8.25281 9.24253 7.93261 9.29393 7.61321C9.31813 7.46301 9.26772 7.35301 9.15913 7.24601C8.68873 6.78261 8.22353 6.31361 7.76113 5.84201C7.52533 5.60141 7.60553 5.26781 7.92213 5.20381C8.20293 5.14701 8.49173 5.09401 8.77633 5.09721C11.0303 5.12261 12.5719 7.35161 11.8039 9.46681C11.7607 9.58581 11.7735 9.65601 11.8639 9.74541C12.5641 10.4376 13.2585 11.1358 13.9551 11.8316C13.9911 11.8676 14.0315 11.8994 14.0713 11.9344C15.3099 9.94521 15.0785 6.96801 12.9055 5.13501C10.8413 3.39361 7.71053 3.53201 5.75973 5.46161C3.82693 7.37321 3.67153 10.5126 5.40873 12.605C7.20613 14.77 10.2341 15.0874 12.3613 13.703Z" fill="#274698"/>
</svg>
