<svg width="14" height="18" viewBox="0 0 14 18" fill="none" xmlns="http://www.w3.org/2000/svg">
<path d="M10.1684 15.5682C10.2223 15.5682 10.2769 15.5682 10.3308 15.5682C11.069 15.5682 11.8078 15.5682 12.546 15.5682C12.8363 15.5682 13.0902 15.6606 13.2896 15.8756C13.5466 16.1535 13.6235 16.4827 13.5096 16.8397C13.3944 17.1997 13.1369 17.4213 12.7617 17.498C12.695 17.5113 12.626 17.5156 12.5581 17.5156C8.93747 17.5162 5.31747 17.5168 1.69686 17.515C1.29989 17.515 0.999892 17.3307 0.822922 16.9786C0.647164 16.6295 0.683528 16.2864 0.912013 15.9662C0.925346 15.9481 0.938074 15.9294 0.93868 15.9288C0.848377 15.8044 0.745952 15.698 0.684134 15.5718C0.472619 15.1369 0.685346 14.6138 1.14474 14.4531C1.75262 14.2405 2.36595 14.0436 2.97747 13.8419C3.59141 13.6389 4.20656 13.4384 4.8205 13.236C5.72959 12.9364 6.63868 12.6362 7.54838 12.3366C8.62292 11.9821 9.69747 11.6275 10.7726 11.2735C10.9563 11.2131 11.1399 11.1515 11.3253 11.0978C11.7932 10.9625 12.2381 11.2005 12.3787 11.6565C12.5114 12.089 12.2672 12.5408 11.8169 12.6894C10.6896 13.0615 9.56232 13.4317 8.43504 13.8026C8.22413 13.8721 8.01323 13.9427 7.80474 14.0219C8.02959 14.0092 8.25504 13.9965 8.47989 13.9838C8.74535 13.9687 9.0108 13.9542 9.27565 13.9385C9.61504 13.918 9.95444 13.8962 10.2938 13.8763C10.6332 13.8564 10.9726 13.8382 11.3126 13.8189C11.5635 13.8044 11.815 13.7954 12.0653 13.7718C12.555 13.7253 12.9411 14.0074 13.0314 14.487C13.1132 14.9213 12.7526 15.3972 12.3114 15.4274C11.8326 15.4607 11.3532 15.486 10.8738 15.5144C10.6387 15.5283 10.4029 15.5428 10.1678 15.5573C10.1678 15.5603 10.1684 15.5639 10.1684 15.5682Z" fill="#274698"/>
<path d="M4.42714 6.42926C3.09805 6.52832 1.82472 5.67724 1.46835 4.32845C1.08896 2.89328 1.83502 1.51127 3.11381 0.967644C4.41805 0.413752 5.94472 0.907242 6.67078 2.11167C7.07623 2.78456 7.18714 3.50939 7.0029 4.26805C6.81866 5.02791 6.37138 5.61019 5.70835 6.02637C6.07866 7.12509 6.44714 8.21838 6.81502 9.31227C6.95199 9.71878 6.76169 10.0987 6.36775 10.2111C6.0235 10.3095 5.67138 10.115 5.55199 9.76046C5.18532 8.67201 4.81926 7.58355 4.45259 6.49509C4.44472 6.47456 4.43623 6.45402 4.42714 6.42926Z" fill="#274698"/>
<path d="M1.22041 12.9316C1.2192 12.5825 1.41798 12.2793 1.74707 12.1597C2.23011 11.9845 2.71677 11.8196 3.20283 11.6517C4.3398 11.2584 5.47738 10.8658 6.61495 10.4726C7.83798 10.0498 9.06283 9.63301 10.2828 9.20234C10.8022 9.01932 11.3077 9.331 11.4143 9.79912C11.5028 10.1851 11.2853 10.6182 10.9071 10.7535C10.3192 10.9631 9.72829 11.1648 9.13859 11.369C8.14041 11.7139 7.14223 12.0576 6.14465 12.4019C4.92768 12.8217 3.71071 13.2427 2.49314 13.6619C2.39435 13.6957 2.29374 13.7283 2.19071 13.7495C1.71374 13.8479 1.20889 13.4595 1.22041 12.9316Z" fill="#274698"/>
</svg>
