<svg width="36" height="37" viewBox="0 0 36 37" fill="none" xmlns="http://www.w3.org/2000/svg">
<path d="M32.3895 0.458801C32.3939 2.206 32.3983 3.9536 32.4023 5.7008C32.4031 6.1224 32.4023 6.544 32.4023 6.9712C31.5195 7.0024 30.6639 6.8004 29.7811 7.0448C29.5079 6.0436 28.6827 5.95 27.8191 5.9224C26.6743 5.886 25.5295 5.8504 24.3851 5.8096C19.0731 5.6184 13.7631 5.7176 8.45355 5.9144C8.16755 5.9252 7.88275 5.9584 7.59675 5.9744C7.01995 6.0072 6.61195 6.2836 6.36915 6.8076C6.33195 6.8876 6.28715 6.9644 6.24715 7.04C5.39635 6.8004 4.54275 6.9968 3.64795 6.9748C3.64795 4.8104 3.64795 2.6344 3.64795 0.458401C13.2291 0.458801 22.8091 0.458801 32.3895 0.458801Z" fill="#274698"/>
<path d="M0.448798 10.118C0.489198 9.8768 0.541198 9.6364 0.568398 9.3936C0.664398 8.5396 0.951598 8.2728 1.802 8.2712C2.1472 8.2704 2.4936 8.2976 2.8368 8.2756C3.2908 8.2468 3.3508 8.4704 3.354 8.8056C3.3608 9.476 3.3704 10.1476 3.334 10.8164C3.2848 11.7216 3.1936 12.6244 3.1204 13.5284C3.1172 13.5676 3.1128 13.6068 3.1076 13.646C3.014 14.344 2.9364 14.4172 2.2332 14.424C1.948 14.4268 1.6624 14.4084 1.3768 14.3944C0.987598 14.3752 0.704798 14.1964 0.547198 13.8316C0.529998 13.792 0.481998 13.7656 0.447998 13.7328C0.448798 12.528 0.448798 11.3228 0.448798 10.118Z" fill="#274698"/>
<path d="M35.5896 13.5552C35.4576 14.202 35.0224 14.4312 34.4072 14.418C34.102 14.4116 33.7968 14.4076 33.492 14.4108C33.168 14.414 33.03 14.2188 32.9948 13.9364C32.9288 13.4088 32.856 12.8804 32.8272 12.35C32.766 11.2188 32.7304 10.0864 32.6872 8.9544C32.6832 8.8468 32.6836 8.7352 32.7068 8.6308C32.7548 8.4144 32.8472 8.2652 33.1228 8.2772C33.5852 8.2972 34.0492 8.2656 34.512 8.2768C35.014 8.2892 35.316 8.522 35.4056 9.014C35.4848 9.448 35.4972 9.894 35.5412 10.3344C35.5536 10.46 35.5732 10.5852 35.5896 10.7104C35.5896 11.6588 35.5896 12.6068 35.5896 13.5552Z" fill="#274698"/>
<path d="M17.9888 32.1752C14.572 32.1752 11.1548 32.1968 7.73835 32.1592C6.92795 32.1504 6.11835 31.9488 5.31155 31.818C5.20515 31.8008 5.07755 31.6964 5.02715 31.5976C4.93515 31.4168 4.84555 31.2124 4.83835 31.0144C4.79315 29.7616 4.75075 28.508 4.75275 27.2548C4.75315 26.8828 4.93355 26.5144 4.96875 26.1384C5.01555 25.6384 5.00275 25.1324 5.01195 24.6292C5.01355 24.5412 5.02155 24.4408 4.98555 24.3664C4.75755 23.8964 4.82715 23.4008 4.85195 22.9112C4.96115 20.7816 5.04435 18.6496 5.19755 16.5232C5.39915 13.7272 5.64835 10.9336 6.14355 8.1712C6.22715 7.704 6.43315 7.2544 6.61595 6.8104C6.77115 6.4336 7.08435 6.2292 7.49315 6.2016C8.32035 6.146 9.14755 6.0676 9.97555 6.0552C13.658 6.0004 17.3408 5.9304 21.0236 5.9364C23.3528 5.94 25.6816 6.0872 28.0112 6.1288C28.9132 6.1448 29.4836 6.5316 29.7024 7.3836C29.8812 8.0788 30.0368 8.7864 30.12 9.4984C30.3636 11.586 30.6144 13.6748 30.772 15.77C30.9696 18.3976 31.078 21.0324 31.2224 23.664C31.2276 23.7608 31.2312 23.8672 31.1976 23.9548C30.8744 24.8052 30.9516 25.7056 31.1416 26.5256C31.3208 27.2992 31.2932 28.0468 31.2996 28.8068C31.306 29.546 31.2632 30.2876 31.2096 31.0256C31.166 31.6264 31.0036 31.784 30.408 31.8936C29.4464 32.07 28.4836 32.194 27.4984 32.1872C24.3288 32.1656 21.1584 32.1792 17.9888 32.1792C17.9888 32.1776 17.9888 32.1764 17.9888 32.1752ZM18.0164 16.7944C18.0164 16.8192 18.0164 16.8436 18.0168 16.8684C20.7024 16.8368 23.388 16.8124 26.0732 16.77C27.0496 16.7544 28.0296 16.7432 28.9996 16.6456C30.0304 16.5416 30.3488 16.112 30.2912 15.082C30.2504 14.3528 30.2172 13.6212 30.1296 12.8968C29.9348 11.2908 29.7068 9.6888 29.4944 8.0848C29.4416 7.6868 29.2252 7.4632 28.8204 7.4296C28.0044 7.362 27.1896 7.2532 26.3724 7.2324C20.804 7.09 15.2348 7.092 9.66595 7.232C8.87795 7.252 8.08915 7.3272 7.30555 7.4196C6.73395 7.4868 6.62995 7.5832 6.54835 8.156C6.31475 9.7968 6.09475 11.44 5.90635 13.0864C5.81555 13.8792 5.79675 14.6812 5.76715 15.48C5.74755 16.0084 6.01875 16.3572 6.51915 16.5232C6.66835 16.5728 6.82155 16.634 6.97515 16.642C8.07875 16.7 9.18275 16.7792 10.2872 16.7884C12.8632 16.8088 15.44 16.7944 18.0164 16.7944ZM5.16795 22.3452C5.15915 22.44 5.13915 22.604 5.12875 22.7688C5.09315 23.3412 5.17795 23.8996 5.25155 24.4676C5.33675 25.126 5.27955 25.8104 5.21955 26.4776C5.18995 26.8064 5.32155 26.9172 5.57635 27.0128C6.33635 27.2968 7.13195 27.36 7.93075 27.4184C9.12795 27.5056 10.3456 27.3748 11.5164 27.7528C11.6064 27.782 11.7124 27.7648 11.8108 27.7648C15.6624 27.766 19.514 27.7656 23.3656 27.7692C23.9972 27.77 24.6284 27.7932 25.2384 27.5784C25.3384 27.5432 25.452 27.5384 25.56 27.5332C26.428 27.4924 27.2964 27.464 28.164 27.4132C28.9924 27.3648 29.8184 27.292 30.5968 26.9604C30.7732 26.8852 30.8512 26.7896 30.8372 26.582C30.802 26.0604 30.7748 25.536 30.786 25.0136C30.794 24.644 30.8944 24.2768 30.9096 23.9068C30.932 23.3632 30.9152 22.8176 30.9152 22.3204C30.1316 22.5128 29.4244 22.7548 28.698 22.8472C27.874 22.952 27.316 23.364 26.8884 24.0264C26.824 24.126 26.7492 24.2204 26.6992 24.3268C26.282 25.2188 25.8708 26.114 25.4528 27.006C25.4064 27.1048 25.3428 27.2472 25.2608 27.2692C24.8816 27.3696 24.4936 27.5 24.108 27.5012C20.0392 27.5176 15.97 27.5176 11.9012 27.5012C11.526 27.4996 11.1492 27.3624 10.7788 27.2664C10.7088 27.2484 10.6488 27.1328 10.6136 27.05C10.3748 26.4872 10.1652 25.9116 9.90555 25.3588C9.57835 24.6616 9.20995 23.9856 8.66675 23.4212C8.43195 23.1772 8.16755 23.026 7.83275 22.9548C6.94875 22.7668 6.07075 22.5536 5.16795 22.3452ZM29.0572 17.0368C29.006 17.0144 28.9552 16.9924 28.904 16.97C28.8484 17.0808 28.76 17.1864 28.742 17.3028C28.5968 18.258 28.3208 19.168 27.8484 20.014C27.3628 20.884 26.8736 21.752 26.394 22.6256C26.3072 22.7836 26.2052 22.844 26.0228 22.8436C20.6916 22.8388 15.3604 22.8388 10.0292 22.8432C9.84755 22.8432 9.74435 22.786 9.65715 22.6272C9.26755 21.9184 8.87235 21.212 8.46755 20.5116C7.87875 19.4932 7.44835 18.4216 7.29955 17.2456C7.28715 17.1476 7.17835 17.062 7.11435 16.9704C7.08835 16.9868 7.06275 17.0028 7.03675 17.0192C7.03275 17.0768 7.01395 17.1376 7.02675 17.1912C7.17555 17.8132 7.23075 18.4816 7.50155 19.0456C8.17035 20.4392 8.93555 21.7868 9.67435 23.146C9.71475 23.2204 9.86595 23.2712 9.96595 23.2712C15.3368 23.2772 20.7072 23.276 26.078 23.2804C26.2468 23.2804 26.346 23.2308 26.4292 23.0812C26.7596 22.486 27.1044 21.8988 27.4404 21.3068C28.0152 20.2936 28.5984 19.2828 28.8532 18.1284C28.932 17.7676 28.9896 17.4012 29.0572 17.0368ZM18.0504 28.5476C18.0504 28.5468 18.0504 28.546 18.0504 28.5456C17.3308 28.5456 16.6108 28.5404 15.8912 28.5476C15.4948 28.5516 15.4396 28.6044 15.4276 28.9884C15.4172 29.3228 15.4296 29.6584 15.4324 29.9932C15.434 30.1848 15.5376 30.296 15.7224 30.2964C17.26 30.2996 18.7972 30.3016 20.3344 30.2836C20.4288 30.2824 20.5908 30.1144 20.6016 30.0112C20.6392 29.6604 20.6244 29.304 20.6276 28.9496C20.6304 28.6684 20.496 28.5416 20.2092 28.5448C19.49 28.5532 18.77 28.5476 18.0504 28.5476ZM9.98075 23.5576C10.0976 23.8784 10.2644 23.998 10.5864 23.9972C15.5524 23.9852 20.5184 23.9836 25.484 23.996C25.8204 23.9968 25.9536 23.8456 26.0776 23.5576C20.702 23.5576 15.3556 23.5576 9.98075 23.5576ZM25.6024 24.2876C20.5312 24.2876 15.5096 24.2876 10.4336 24.2876C10.6716 24.56 10.9064 24.6512 11.204 24.6516C13.5144 24.6544 15.8244 24.6748 18.1348 24.6744C20.3856 24.674 22.6368 24.6532 24.8876 24.648C25.174 24.6476 25.3928 24.5528 25.6024 24.2876Z" fill="#274698"/>
<path d="M5.87871 7.9388C5.55031 10.984 5.22271 14.0192 4.88911 17.1104C4.61951 17.1104 4.29631 17.174 4.02111 17.0864C3.85711 17.034 3.71031 16.7584 3.66111 16.5576C3.59951 16.3064 3.64591 16.0284 3.64591 15.762C3.64591 13.2264 3.64871 10.6908 3.64031 8.1552C3.63951 7.9296 3.69191 7.788 3.92471 7.772C4.39391 7.7396 4.86431 7.6904 5.33231 7.7068C5.52991 7.7132 5.72191 7.868 5.87871 7.9388Z" fill="#274698"/>
<path d="M31.1592 17.1072C30.826 14.0152 30.4992 10.98 30.1628 7.8556C30.5428 7.7984 30.9876 7.7312 31.4324 7.6652C31.4612 7.6608 31.4916 7.6644 31.5212 7.6656C32.3152 7.6904 32.4028 7.7784 32.4028 8.548C32.4028 11.1724 32.4032 13.7972 32.4024 16.4216C32.4024 16.9568 32.2312 17.1216 31.7012 17.108C31.5152 17.1032 31.3292 17.1072 31.1592 17.1072Z" fill="#274698"/>
<path d="M9.27078 32.498C9.27078 33.4728 9.28919 34.4472 9.26279 35.4204C9.25039 35.8768 9.06599 36.006 8.61919 36.0072C8.06719 36.0084 7.51519 35.9992 6.96359 36.014C6.67639 36.022 6.49479 35.8952 6.37759 35.6532C6.31759 35.5296 6.24399 35.4016 6.22879 35.2696C6.11399 34.2848 6.01239 33.2984 5.90479 32.2924C7.08079 32.3644 8.18398 32.4316 9.27078 32.498Z" fill="#274698"/>
<path d="M26.7709 32.4984C27.8589 32.432 28.9569 32.3652 30.1017 32.2956C30.0705 32.8088 30.0489 33.328 30.0045 33.8448C29.9665 34.2868 29.9165 34.7288 29.8433 35.166C29.8117 35.3556 29.7217 35.5404 29.6345 35.7152C29.5349 35.9152 29.3669 36.014 29.1305 36.0108C28.4889 36.0028 27.8465 36.0144 27.2053 36.0008C27.1137 35.9988 26.9857 35.92 26.9421 35.84C26.8593 35.6884 26.7809 35.5104 26.7781 35.3424C26.7629 34.3956 26.7709 33.4488 26.7709 32.4984Z" fill="#274698"/>
<path d="M4.8551 25.8276C4.3967 25.8276 4.0439 25.8276 3.6687 25.8276C3.6687 23.2004 3.6687 20.5808 3.6687 17.9612C3.6947 17.944 3.7211 17.9272 3.7471 17.91C3.7959 17.9876 3.8791 18.062 3.8863 18.1432C3.9067 18.3684 3.8851 18.5972 3.8983 18.8232C3.9291 19.3472 4.3039 19.8768 4.7699 20.0652C4.7259 21.2548 4.6767 22.4472 4.6431 23.64C4.6375 23.8412 4.7091 24.0432 4.7275 24.2464C4.7747 24.7616 4.8115 25.2776 4.8551 25.8276Z" fill="#274698"/>
<path d="M32.3764 25.8232C32.0088 25.8232 31.6492 25.8232 31.2632 25.8232C31.2488 25.2352 31.1332 24.662 31.3684 24.0948C31.4324 23.9404 31.4184 23.7464 31.4124 23.5716C31.3712 22.4084 31.3228 21.2456 31.2768 20.0828C31.8244 19.7576 32.1832 19.3176 32.1576 18.6412C32.1512 18.4736 32.1404 18.304 32.1596 18.1388C32.1696 18.0544 32.2412 17.9768 32.2848 17.896C32.3152 17.908 32.346 17.9196 32.3764 17.9316C32.3764 20.5568 32.3764 23.182 32.3764 25.8232Z" fill="#274698"/>
<path d="M4.71831 19.7856C4.09831 19.3224 3.90671 18.5968 4.19231 17.8968C4.16911 17.8748 4.14511 17.8316 4.11431 17.8256C3.59391 17.73 3.32191 17.3524 3.07071 16.9372C2.71271 16.3464 2.33871 15.7652 1.9735 15.1788C1.9067 15.072 1.84871 14.9596 1.77271 14.8252C2.02991 14.7552 2.19311 14.7776 2.33431 15.012C2.74151 15.6884 3.18151 16.3448 3.59231 17.0188C3.72111 17.23 3.86991 17.326 4.11791 17.3048C4.34191 17.2856 4.56911 17.3008 4.84391 17.3008C4.80231 18.118 4.76151 18.9304 4.71831 19.7856Z" fill="#274698"/>
<path d="M31.3331 19.7808C31.2887 18.9364 31.2467 18.1328 31.2031 17.3016C31.4711 17.3016 31.7139 17.2888 31.9551 17.3052C32.1775 17.3204 32.3195 17.2428 32.4375 17.0504C32.8551 16.3704 33.2979 15.7056 33.7091 15.0216C33.8491 14.7888 34.0151 14.7588 34.2763 14.8176C34.2095 14.9412 34.1599 15.0464 34.0987 15.144C33.6911 15.7956 33.2751 16.442 32.8743 17.0976C32.6659 17.4388 32.4199 17.7152 32.0059 17.7944C31.9535 17.8044 31.9071 17.8484 31.8607 17.8752C32.1363 18.6328 31.9467 19.3484 31.3331 19.7808Z" fill="#274698"/>
<path d="M2.11548 7.748C2.71868 7.5564 3.31068 7.2976 3.92868 7.192C4.52348 7.0904 5.14548 7.1304 5.75468 7.1396C6.10348 7.1448 6.20948 7.3396 6.02548 7.584C5.97868 7.6464 5.82388 7.6992 5.76348 7.6684C5.11148 7.3364 4.45148 7.4452 3.78308 7.5932C3.29708 7.7008 2.80508 7.7832 2.31508 7.8728C2.26108 7.8828 2.20228 7.8656 2.14548 7.8608C2.13588 7.8228 2.12588 7.7852 2.11548 7.748Z" fill="#274698"/>
<path d="M33.8929 7.9148C33.5137 7.8584 33.1205 7.8476 32.7585 7.736C32.1189 7.5388 31.4825 7.3912 30.8121 7.492C30.6613 7.5148 30.5189 7.5864 30.3697 7.624C30.2737 7.648 30.1333 7.696 30.0829 7.6524C30.0053 7.5852 29.9477 7.444 29.9589 7.3428C29.9669 7.272 30.1029 7.2144 30.1837 7.1532C30.1977 7.1424 30.2217 7.1432 30.2413 7.1416C31.4897 7.0524 32.7017 7.1796 33.8389 7.7488C33.8689 7.7636 33.8909 7.7944 33.9165 7.818C33.9085 7.8504 33.9005 7.8824 33.8929 7.9148Z" fill="#274698"/>
<path d="M21.9273 36.84C21.9161 36.69 21.9053 36.5404 21.8921 36.3636C22.2513 36.4764 22.2701 36.6036 21.9273 36.84Z" fill="white"/>
</svg>
