<svg width="29" height="31" viewBox="0 0 29 31" fill="none" xmlns="http://www.w3.org/2000/svg">
<path d="M14.5746 14.5182C14.715 14.5182 14.844 14.5182 14.973 14.5182C19.1065 14.5182 23.24 14.517 27.3736 14.5213C27.5831 14.5216 27.8023 14.5375 28.0001 14.5998C28.5693 14.7796 28.8966 15.3521 28.8089 15.9647C28.7295 16.5211 28.2376 16.9598 27.6588 16.9877C27.5379 16.9936 27.4164 16.9917 27.2952 16.9917C23.192 16.992 19.0888 16.9917 14.9854 16.9917C14.8558 16.9917 14.7259 16.9917 14.5982 16.9917C14.5427 17.36 14.5151 17.7106 14.4348 18.0485C14.0551 19.6416 12.6635 20.6466 10.9724 20.5651C9.48008 20.4935 8.16289 19.2606 7.95953 17.7202C7.91241 17.3628 7.93194 16.9958 7.93225 16.6331C7.93287 15.7446 7.90559 14.8543 7.95178 13.968C8.03858 12.3076 9.46613 10.9818 11.1643 10.9359C12.8116 10.8912 14.2959 12.1545 14.4974 13.7745C14.5263 14.0049 14.5455 14.2361 14.5746 14.5182ZM12.068 15.7359C12.0673 15.7359 12.0667 15.7359 12.0661 15.7359C12.0661 15.2517 12.0714 14.7675 12.0645 14.2836C12.0574 13.7826 11.7139 13.4196 11.2508 13.4094C10.7963 13.3994 10.4321 13.7296 10.4206 14.2225C10.3977 15.2102 10.3977 16.1987 10.4014 17.187C10.4033 17.7453 10.7399 18.1025 11.2316 18.1021C11.7353 18.1018 12.0633 17.7345 12.0673 17.1582C12.0707 16.6839 12.068 16.2099 12.068 15.7359Z" fill="#274698"/>
<path d="M24.2041 4.93427C24.3297 4.93427 24.4382 4.93427 24.547 4.93427C25.5371 4.93427 26.5273 4.92962 27.5171 4.93613C28.2896 4.94109 28.8275 5.46406 28.8219 6.18822C28.8166 6.89998 28.2859 7.4028 27.5211 7.40652C26.4907 7.41148 25.4603 7.4121 24.4298 7.40435C24.2336 7.4028 24.1601 7.45581 24.1189 7.6632C23.7866 9.3341 22.425 10.4244 20.7523 10.3794C19.1418 10.3363 17.8327 9.14841 17.5977 7.49084C17.5472 7.13465 17.5667 6.7673 17.5673 6.40491C17.5692 5.51676 17.537 4.62613 17.5949 3.74139C17.7037 2.07297 19.1455 0.766942 20.8378 0.744312C22.5168 0.721992 23.976 2.01004 24.1452 3.67691C24.1858 4.0765 24.1843 4.48074 24.2041 4.93427ZM21.7071 5.55923C21.7052 5.55923 21.703 5.55923 21.7012 5.55923C21.7012 5.04494 21.713 4.53003 21.6975 4.01636C21.6851 3.60437 21.3881 3.28941 20.9935 3.22586C20.6348 3.1682 20.2433 3.37838 20.1146 3.72496C20.0597 3.87221 20.0387 4.03992 20.0377 4.19833C20.0309 5.13639 20.0272 6.07445 20.0402 7.0122C20.0427 7.1858 20.0945 7.37552 20.1785 7.52711C20.3561 7.84765 20.7383 7.98064 21.0961 7.88547C21.4526 7.79061 21.6938 7.47255 21.7043 7.04165C21.7164 6.54813 21.7071 6.05368 21.7071 5.55923Z" fill="#274698"/>
<path d="M24.1974 26.576C24.2089 27.4031 24.0409 28.1313 23.5991 28.7795C22.8338 29.9023 21.4623 30.4426 20.1495 30.1435C18.8158 29.8397 17.8015 28.7665 17.6065 27.4118C17.551 27.0255 17.5681 26.6275 17.5684 26.2347C17.569 25.3462 17.5383 24.455 17.596 23.5699C17.7045 21.9055 19.1568 20.5958 20.8479 20.5797C22.5176 20.5639 23.9733 21.8491 24.1472 23.4927C24.1674 23.6828 24.1885 23.8725 24.2136 24.1025C24.3224 24.1025 24.4299 24.1025 24.5375 24.1025C25.5382 24.1025 26.5389 24.0941 27.5396 24.1053C28.4702 24.1155 29.0691 24.9649 28.7445 25.7936C28.5582 26.2694 28.1276 26.5692 27.5888 26.5729C26.5782 26.5797 25.5673 26.5757 24.5564 26.576C24.4473 26.576 24.3385 26.576 24.1974 26.576ZM21.7069 25.3825C21.7047 25.3825 21.7026 25.3825 21.7004 25.3825C21.7004 24.8682 21.7128 24.3533 21.6964 23.8396C21.6837 23.441 21.3954 23.1362 21.0103 23.0652C20.6514 22.9989 20.2573 23.197 20.1231 23.5454C20.0599 23.7097 20.0385 23.8988 20.0369 24.0771C20.0289 24.995 20.023 25.9129 20.0416 26.8305C20.0456 27.0305 20.1154 27.2518 20.2211 27.422C20.4055 27.7187 20.8033 27.82 21.1362 27.7094C21.4794 27.5953 21.6954 27.2887 21.7041 26.8655C21.7147 26.3711 21.7069 25.8766 21.7069 25.3825Z" fill="#274698"/>
<path d="M7.91652 7.40745C5.77349 7.40745 3.63046 7.40962 1.48712 7.4059C0.769468 7.40466 0.236887 6.93129 0.188837 6.27006C0.135827 5.54373 0.684837 4.95318 1.44651 4.93675C2.03241 4.92435 2.61924 4.93396 3.20545 4.93396C6.89507 4.93396 10.585 4.93334 14.2746 4.93458C15.0574 4.93489 15.6113 5.4064 15.6467 6.09367C15.6851 6.83736 15.1476 7.40311 14.376 7.40528C12.2937 7.41117 10.2111 7.40745 8.12856 7.40776C8.05788 7.40776 7.9872 7.40776 7.91652 7.40745Z" fill="#274698"/>
<path d="M7.9064 26.5757C5.75314 26.5754 3.59988 26.5809 1.44693 26.5729C0.554441 26.5695 -0.0330087 25.7377 0.259321 24.9218C0.442841 24.4097 0.903191 24.1056 1.51761 24.1037C2.69034 24.1003 3.86276 24.1028 5.03549 24.1028C8.11875 24.1028 11.202 24.1019 14.2853 24.1037C15.0755 24.1044 15.631 24.5976 15.648 25.3031C15.6654 26.0205 15.1359 26.5695 14.3963 26.5735C12.9811 26.5816 11.5656 26.5763 10.1505 26.5763C9.40246 26.576 8.65443 26.576 7.9064 26.5757Z" fill="#274698"/>
<path d="M3.2558 16.9914C2.65967 16.9914 2.06354 16.9964 1.46741 16.9902C0.733954 16.9827 0.195484 16.4672 0.187114 15.775C0.178434 15.0734 0.721864 14.5272 1.46431 14.521C2.65657 14.5111 3.84883 14.5123 5.04078 14.5204C5.79315 14.5254 6.3341 15.0524 6.33596 15.757C6.33751 16.461 5.79439 16.9837 5.04388 16.9902C4.44806 16.9958 3.85193 16.9914 3.2558 16.9914Z" fill="#274698"/>
</svg>
