<svg width="20" height="21" viewBox="0 0 20 21" fill="none" xmlns="http://www.w3.org/2000/svg">
<path d="M0.406006 20.5341C0.508518 19.7258 0.540679 18.9347 0.722589 18.1795C0.930126 17.3166 1.24319 16.4749 1.56229 15.6444C1.7658 15.1147 2.19194 14.7704 2.71706 14.5354C4.16832 13.8853 5.61003 13.213 7.05726 12.5543C7.24068 12.4709 7.32108 12.3627 7.32359 12.1484C7.33013 11.6662 7.24872 11.2451 7.00651 10.7957C6.61907 10.0774 6.26782 9.34798 5.79545 8.67314C5.36229 8.05391 5.20751 7.32651 5.31354 6.55613C5.35274 6.27255 5.43967 6.04761 5.77033 5.97835C5.77033 5.2646 5.74219 4.55943 5.77586 3.8573C5.86631 1.9627 6.78641 0.914814 8.64018 0.584726C9.61957 0.410331 10.604 0.426507 11.5774 0.63932C13.201 0.995188 14.0759 2.06633 14.1588 3.82444C14.1919 4.52708 14.1643 5.23275 14.1643 5.96875C14.5412 6.05064 14.6005 6.3413 14.6316 6.66633C14.7301 7.70158 14.309 8.54475 13.702 9.3313C13.5397 9.54158 13.4226 9.79029 13.3015 10.0299C13.1673 10.2953 13.101 10.6107 12.9186 10.8331C12.5698 11.2593 12.596 11.739 12.6281 12.2227C12.6357 12.338 12.7693 12.4922 12.8834 12.5452C14.3241 13.2191 15.7683 13.8848 17.2191 14.5359C17.7437 14.7714 18.1256 15.1364 18.3824 15.6434C19.1427 17.1432 19.4271 18.7522 19.4628 20.4178C19.4633 20.4502 19.4442 20.483 19.4286 20.5336C13.1186 20.5341 6.81003 20.5341 0.406006 20.5341ZM5.92108 6.70323C5.87184 6.71688 5.82259 6.73103 5.77284 6.74468C5.86882 7.16475 5.87083 7.64042 6.07837 7.99426C6.63917 8.94965 7.12912 9.94851 7.71153 10.8842C8.33867 11.8911 9.32711 12.343 10.5357 12.0827C11.4743 11.8805 12.1236 11.2618 12.5145 10.4222C12.8301 9.7453 13.1457 9.09018 13.6045 8.49066C13.9859 7.99275 14.1613 7.37958 14.0598 6.61881C13.7779 7.09297 13.5462 7.4827 13.3145 7.87244C13.2402 7.58532 13.2266 7.3164 13.2442 7.0495C13.2593 6.81747 13.1789 6.69262 12.9663 6.58191C10.9382 5.5229 8.92058 5.52695 6.91405 6.6264C6.80902 6.68402 6.71455 6.8473 6.70148 6.97064C6.67033 7.26332 6.69143 7.56106 6.69143 7.85728C6.6643 7.8593 6.63716 7.86081 6.61003 7.86284C6.38138 7.47664 6.15123 7.08994 5.92108 6.70323ZM5.11304 14.1072C4.38189 14.4201 3.71304 14.7229 3.03163 14.9918C2.53515 15.1875 2.16329 15.5226 1.98993 16.0058C1.68942 16.8424 1.43013 17.6962 1.204 18.5561C1.08591 19.0065 1.07485 19.4852 1.01304 19.9669C2.21606 19.9669 3.3452 19.9669 4.46982 19.9669C4.4849 19.9007 4.49897 19.8663 4.49947 19.8319C4.50148 19.057 4.50199 18.2816 4.50249 17.5067C4.50249 16.8829 4.50249 16.8829 5.11304 16.7322C5.11304 15.8815 5.11304 15.0257 5.11304 14.1072ZM18.9 19.975C18.8467 18.8937 18.6306 17.8984 18.3367 16.9132C18.0206 15.8557 17.4553 15.0535 16.3372 14.7431C16.0427 14.6612 15.7673 14.5091 15.4829 14.3898C15.2708 14.3008 15.0578 14.2139 14.8201 14.1158C14.8201 15.0297 14.8201 15.8855 14.8201 16.7373C15.4281 16.8743 15.4291 16.8743 15.4291 17.5122C15.4291 18.1203 15.4271 18.7284 15.4261 19.3366C15.4256 19.5458 15.4261 19.7551 15.4261 19.975C16.608 19.975 17.7286 19.975 18.9 19.975ZM12.9065 16.7884C12.9161 16.6397 12.9286 16.5346 12.9286 16.4295C12.9301 15.4635 12.9211 14.4969 12.9357 13.5309C12.9397 13.2529 12.8397 13.1053 12.5618 13.0527C12.1688 14.366 11.3869 15.3027 9.93666 15.2886C8.51957 15.2744 7.75776 14.3453 7.37083 13.0527C7.0844 13.1053 6.99043 13.2646 6.99545 13.5537C7.01204 14.5076 7.01304 15.4624 6.99445 16.4163C6.98842 16.7216 7.09294 16.7959 7.37988 16.7939C9.09897 16.7823 10.8186 16.7884 12.5377 16.7878C12.6542 16.7884 12.7698 16.7884 12.9065 16.7884ZM12.0588 11.9973C10.6377 12.9572 9.26982 12.9365 7.87334 12.0059C7.82962 13.0538 8.10802 13.8742 8.93113 14.4373C9.56329 14.87 10.4171 14.8574 11.0412 14.4095C11.8367 13.8388 12.104 13.0275 12.0588 11.9973ZM8.32058 0.970419C8.20148 1.07506 8.12259 1.14481 8.04369 1.21407C8.13766 1.27978 8.23214 1.39706 8.32611 1.39706C8.42108 1.39706 8.51656 1.28079 8.61153 1.21558C8.5246 1.14229 8.43716 1.06848 8.32058 0.970419ZM11.7618 0.87488C11.506 1.06444 11.413 1.13369 11.3196 1.20295C11.4095 1.2722 11.498 1.39402 11.5899 1.39655C11.6879 1.39908 11.8422 1.30961 11.8738 1.22317C11.905 1.13976 11.8105 1.01035 11.7618 0.87488Z" fill="#AEB9D6"/>
</svg>
