<svg width="36" height="37" viewBox="0 0 36 37" fill="none" xmlns="http://www.w3.org/2000/svg">
<path d="M18 0.820984C8.23603 0.820984 0.321045 8.73597 0.321045 18.5C0.321045 28.264 8.23603 36.179 18 36.179C27.7641 36.179 35.679 28.264 35.679 18.5C35.679 8.73597 27.7641 0.820984 18 0.820984ZM18.0823 6.37405C21.2485 6.38745 23.7846 8.98905 23.7742 12.2126C23.7638 15.3892 21.1741 17.9298 17.9539 17.9227C14.7691 17.9156 12.2211 15.3345 12.2259 12.1203C12.2304 8.89936 14.8182 6.36028 18.0823 6.37405ZM27.6543 26.9602C25.069 29.2946 21.5958 30.6267 16.5809 30.6259C14.2934 30.598 11.084 29.3463 8.3153 26.9219C7.91929 26.575 7.86049 26.2903 8.11134 25.8254C10.2287 21.8996 13.4649 19.6932 17.9587 19.6791C22.4808 19.6649 25.749 21.8579 27.888 25.8094C28.1586 26.3096 28.0588 26.5951 27.6543 26.9602Z" fill="#274698"/>
</svg>
