<svg width="15" height="9" viewBox="0 0 15 9" fill="none" xmlns="http://www.w3.org/2000/svg">
<path d="M14.5799 8.21841C9.93162 8.21841 5.30677 8.21841 0.660156 8.21841C0.660156 5.72893 0.660156 3.25288 0.660156 0.742325C5.28858 0.742325 9.91904 0.742325 14.5799 0.742325C14.5799 3.21854 14.5799 5.70207 14.5799 8.21841ZM12.0631 5.1251C12.0355 5.13139 12.0082 5.13767 11.9806 5.14396C11.9383 5.08871 11.8956 5.0338 11.8538 4.97838C11.1529 4.05087 10.4535 3.12232 9.75023 2.1965C9.59094 1.98689 9.36671 1.80618 9.11698 1.94235C8.95378 2.03126 8.77766 2.27317 8.77409 2.44997C8.7457 3.82663 8.75352 5.20431 8.76083 6.58148C8.76236 6.87524 8.92981 7.02875 9.23615 7.0415C9.55082 7.05476 9.73663 6.92132 9.78525 6.61379C9.80548 6.48595 9.79766 6.35334 9.79783 6.22295C9.79868 5.45744 9.79834 4.69176 9.79834 3.92625C10.3175 4.4932 10.7673 5.08225 11.2168 5.67164C11.5118 6.05839 11.8028 6.44803 12.1027 6.83104C12.2797 7.05697 12.5318 7.08706 12.7818 7.01209C13.0385 6.93508 13.0851 6.71137 13.0834 6.46827C13.079 5.83893 13.0821 5.20975 13.0821 4.58041C13.0819 3.87985 13.0863 3.17927 13.0795 2.47887C13.0759 2.11881 12.8991 1.94762 12.5591 1.94524C12.2501 1.94303 12.0877 2.11286 12.0675 2.46901C12.0593 2.61113 12.0638 2.75394 12.0638 2.8964C12.0629 3.6393 12.0631 4.3822 12.0631 5.1251ZM4.21248 5.23406C3.8259 4.20573 3.47927 3.26359 3.11615 2.32774C2.97556 1.9653 2.71019 1.82982 2.43037 1.93216C2.14018 2.03824 2.01948 2.34458 2.14273 2.70515C2.23827 2.98446 2.35217 3.25764 2.45995 3.53287C2.85605 4.54522 3.25674 5.55604 3.6474 6.5706C3.75433 6.84821 3.90121 7.04099 4.23084 7.04541C4.55826 7.04966 4.68372 6.84464 4.77433 6.58165C4.82057 6.44769 4.87973 6.31832 4.93124 6.18623C5.38208 5.0304 5.83564 3.87577 6.28121 2.7179C6.43404 2.32078 6.30365 2.03433 5.94665 1.93165C5.6653 1.85073 5.43036 2.00032 5.28875 2.37228C4.93634 3.29793 4.5909 4.2263 4.21248 5.23406ZM7.86986 4.48062C7.86935 4.48062 7.86867 4.48062 7.86816 4.48062C7.86816 3.8047 7.87734 3.12844 7.86442 2.4527C7.85779 2.10284 7.65277 1.90614 7.34048 1.89696C7.06168 1.8888 6.84153 2.08396 6.83796 2.42804C6.82351 3.80351 6.82368 5.17932 6.83626 6.55479C6.83932 6.89309 7.12118 7.08163 7.45421 7.01431C7.76633 6.95124 7.86799 6.72531 7.86918 6.43733C7.87156 5.78521 7.86986 5.13291 7.86986 4.48062Z" fill="#274698"/>
</svg>
