<svg width="17" height="18" viewBox="0 0 17 18" fill="none" xmlns="http://www.w3.org/2000/svg">
<path d="M16.5481 8.91647C16.5689 13.5782 12.9278 17.4635 8.32084 17.3529C4.04995 17.2506 0.386192 13.5335 0.509879 8.68765C0.623401 4.23118 4.14313 0.398824 8.77832 0.532353C13.0385 0.654706 16.5334 4.31353 16.5481 8.91647ZM8.53716 3.34529C5.57882 3.33882 3.19486 5.83353 3.1847 8.94706C3.1751 12.0212 5.57204 14.5318 8.52134 14.5371C11.4718 14.5418 13.9003 12.0241 13.8761 8.93588C13.8506 5.72765 11.382 3.32529 8.53716 3.34529Z" fill="#274698"/>
<path d="M3.719 8.95824C3.67212 6.21235 5.87139 3.81235 8.64448 3.8853C11.3453 3.95647 13.3429 6.29824 13.3457 8.93941C13.3486 11.6953 11.1623 14.0782 8.39823 13.9971C5.71777 13.9182 3.69528 11.5935 3.719 8.95824ZM4.28717 9.13647C4.31033 9.96706 4.55149 10.7259 4.9892 11.4182C5.18969 11.7359 5.39528 11.7424 5.59747 11.4271C5.83185 11.0618 6.0589 10.6912 6.27577 10.3141C6.54518 9.84647 6.3989 9.40588 5.91092 9.19941C5.5472 9.04588 5.17896 8.90353 4.81242 8.75824C4.29395 8.55294 4.27418 8.56824 4.28717 9.13647ZM12.7714 9.20294C12.7714 9.12235 12.7708 9.07353 12.7714 9.02471C12.7742 8.61177 12.7273 8.57 12.354 8.71C11.9411 8.86471 11.5305 9.02824 11.1261 9.20588C10.6625 9.40941 10.5201 9.85941 10.7777 10.3118C10.9979 10.6976 11.2318 11.0753 11.4729 11.4476C11.661 11.7376 11.8609 11.7335 12.0473 11.4465C12.4929 10.7588 12.7386 10.0018 12.7714 9.20294ZM8.49989 13.4524C8.92179 13.3759 9.32956 13.3176 9.72999 13.2229C10.0079 13.1576 10.0886 12.92 9.91863 12.6894C9.63342 12.3024 9.34255 11.9171 9.02684 11.5571C8.72581 11.2129 8.31973 11.2188 8.0187 11.5671C7.71202 11.9224 7.42568 12.2988 7.14724 12.6788C6.97272 12.9171 7.04614 13.1488 7.32119 13.2176C7.71089 13.3147 8.10906 13.3765 8.49989 13.4524ZM7.55445 5.17353C7.58212 4.75235 7.40421 4.61588 7.02355 4.77118C6.29159 5.06882 5.67767 5.53765 5.19478 6.18353C4.96886 6.4853 5.02817 6.68471 5.37438 6.78706C5.7782 6.90706 6.18428 7.01824 6.59262 7.11882C7.06308 7.23412 7.41156 6.99471 7.47029 6.49059C7.52169 6.05412 7.52847 5.61294 7.55445 5.17353ZM9.4973 5.11941C9.52837 5.58412 9.53853 6.07412 9.60009 6.55706C9.65544 6.99059 10.0169 7.22882 10.4213 7.13177C10.8302 7.03412 11.2351 6.91941 11.6407 6.80647C12.0281 6.69824 12.1032 6.47588 11.8417 6.14941C11.3357 5.51824 10.7331 5.01941 9.97229 4.75353C9.6673 4.64706 9.50069 4.76647 9.4973 5.11941ZM8.52305 7.7653C7.94471 7.75588 7.41043 8.30824 7.40308 8.92294C7.39518 9.55765 7.90122 10.0988 8.51966 10.1176C9.10082 10.1353 9.6385 9.59353 9.65262 8.97588C9.66674 8.32588 9.15335 7.7753 8.52305 7.7653ZM8.27003 4.47588C8.22258 5.32706 8.17401 6.12588 8.13561 6.9253C8.11979 7.25588 8.16893 7.29353 8.52136 7.29412C8.8992 7.29471 8.93591 7.26882 8.92122 6.91177C8.89016 6.17 8.84498 5.42941 8.81222 4.68765C8.80601 4.54412 8.76421 4.46706 8.61624 4.47471C8.50611 4.48 8.39597 4.47588 8.27003 4.47588ZM4.40295 7.82294C5.17558 8.13706 5.91262 8.43824 6.65023 8.73647C6.9394 8.85353 6.97611 8.61118 7.04162 8.42412C7.11166 8.22235 7.16475 8.02294 6.8784 7.94412C6.11594 7.7353 5.35461 7.52177 4.57069 7.30412C4.51478 7.47824 4.46225 7.63941 4.40295 7.82294ZM6.24302 12.7053C6.75302 12.0506 7.24664 11.4129 7.74534 10.7794C7.88202 10.6059 7.86847 10.4671 7.69282 10.3412C7.62335 10.2918 7.55558 10.24 7.48893 10.1859C7.36016 10.0818 7.23817 10.0935 7.15119 10.2324C6.70501 10.9465 6.26504 11.6641 5.8183 12.3876C5.96853 12.5 6.0973 12.5965 6.24302 12.7053ZM12.4816 7.30706C11.7547 7.50765 11.0697 7.70059 10.3823 7.88471C9.91129 8.01118 9.90734 8.02588 10.0491 8.51471C10.1236 8.77118 10.2502 8.80824 10.4693 8.71235C10.7873 8.57294 11.1126 8.45118 11.4339 8.31941C11.8389 8.15353 12.2433 7.98588 12.6499 7.81824C12.5872 7.62765 12.5364 7.47294 12.4816 7.30706ZM11.2385 12.3882C10.798 11.6724 10.3693 10.9759 9.94009 10.28C9.82431 10.0918 9.70176 10.0829 9.52385 10.22C9.12906 10.5241 9.12172 10.5206 9.42388 10.9065C9.4476 10.9365 9.4668 10.9706 9.49053 11.0006C9.92936 11.5671 10.3682 12.1335 10.8116 12.7053C10.9573 12.5971 11.086 12.5018 11.2385 12.3882Z" fill="#274698"/>
</svg>
