<svg width="21" height="16" viewBox="0 0 21 16" fill="none" xmlns="http://www.w3.org/2000/svg">
<path d="M6.09442 10.5227C5.77396 10.5227 5.48157 10.5238 5.18917 10.5222C4.71886 10.52 4.46238 10.2726 4.45958 9.82067C4.45845 9.66568 4.45958 9.5107 4.45958 9.32635C3.28044 9.32635 2.11703 9.32635 0.942383 9.32635C0.942383 8.54707 0.942383 7.79716 0.942383 7.02605C2.11029 7.02605 3.26978 7.02605 4.45958 7.02605C4.45958 6.83191 4.45733 6.65789 4.46014 6.48387C4.46575 6.08254 4.7256 5.82586 5.14315 5.81771C5.44958 5.81173 5.75657 5.81662 6.09498 5.81662C6.09498 5.7171 6.09498 5.63879 6.09498 5.56049C6.09667 4.63765 6.08208 3.71426 6.10396 2.79197C6.1309 1.6429 6.99351 0.694505 8.17376 0.556378C8.71085 0.493297 9.26254 0.545502 9.8232 0.545502C9.8232 5.62466 9.8232 10.7098 9.8232 15.8205C8.95106 15.783 8.06039 15.9689 7.26345 15.4697C6.54453 15.0195 6.12866 14.3837 6.10565 13.5506C6.07983 12.6354 6.09667 11.7186 6.09498 10.8022C6.09442 10.7218 6.09442 10.6413 6.09442 10.5227ZM9.24682 3.49837C9.17723 3.35861 9.15085 3.24387 9.07958 3.17154C8.73611 2.82405 8.38422 2.48309 8.02728 2.14864C7.84095 1.97463 7.59514 1.98333 7.42621 2.1481C7.25504 2.31505 7.2483 2.54889 7.43014 2.72997C7.7809 3.08018 8.14009 3.42333 8.49815 3.76647C8.63621 3.89861 8.81805 3.94973 8.97575 3.84478C9.09248 3.76756 9.15815 3.61638 9.24682 3.49837ZM9.24682 5.6116C9.17667 5.45934 9.1531 5.33426 9.07733 5.25759C8.72993 4.90411 8.37299 4.55934 8.00932 4.22163C7.83254 4.05741 7.58896 4.07426 7.42565 4.23469C7.25896 4.39783 7.24549 4.62732 7.41723 4.7997C7.77697 5.16079 8.14514 5.51318 8.51442 5.86502C8.63958 5.98411 8.80907 6.03577 8.95555 5.94115C9.07565 5.86284 9.15197 5.72254 9.24682 5.6116ZM7.79044 12.5321C7.53902 12.5364 7.406 12.6283 7.33305 12.7893C7.25391 12.9644 7.30667 13.121 7.44248 13.2526C7.7882 13.5887 8.13335 13.9253 8.48243 14.2581C8.53575 14.3087 8.6031 14.3555 8.67325 14.3772C8.84891 14.4321 9.0083 14.3941 9.12111 14.2451C9.2457 14.0803 9.22606 13.8215 9.06667 13.6627C8.72544 13.3228 8.37917 12.9867 8.02616 12.6583C7.95095 12.5881 7.83759 12.5566 7.79044 12.5321ZM8.81187 12.3249C8.93254 12.2346 9.07565 12.1737 9.14131 12.0677C9.24738 11.8964 9.20136 11.7104 9.05376 11.5647C8.70468 11.2215 8.35504 10.8789 7.99922 10.5428C7.80055 10.3552 7.56034 10.3558 7.38299 10.5287C7.20004 10.7071 7.20789 10.942 7.41611 11.1399C7.76575 11.4728 8.1182 11.8028 8.47682 12.1264C8.55932 12.2004 8.67157 12.2433 8.81187 12.3249ZM9.22606 9.83861C9.17442 9.71027 9.16208 9.6026 9.1009 9.54115C8.71871 9.15668 8.33259 8.77547 7.93299 8.40786C7.77136 8.2594 7.54294 8.29094 7.38468 8.44266C7.23034 8.59058 7.19386 8.82387 7.34595 8.97396C7.74218 9.36387 8.14682 9.74725 8.57223 10.1062C8.65922 10.1796 8.8708 10.1752 8.99315 10.1285C9.09641 10.0882 9.15366 9.93487 9.22606 9.83861ZM9.2384 7.70635C9.18172 7.56278 9.16881 7.43879 9.09866 7.36756C8.73106 6.99505 8.3556 6.62961 7.96835 6.27614C7.81458 6.13583 7.58784 6.16738 7.43463 6.30985C7.2758 6.45777 7.23539 6.68943 7.38468 6.84224C7.76463 7.23106 8.15861 7.60792 8.55708 7.97934C8.67718 8.09136 8.85004 8.11148 8.98473 8.0136C9.0908 7.93583 9.15759 7.8075 9.2384 7.70635Z" fill="#274698"/>
<path d="M16.0691 7.0652C17.2573 7.0652 18.4167 7.0652 19.5863 7.0652C19.5863 7.83578 19.5863 8.58569 19.5863 9.35626C18.4195 9.35626 17.2601 9.35626 16.0691 9.35626C16.0691 9.54985 16.0714 9.72333 16.0686 9.8968C16.063 10.2992 15.8042 10.5564 15.3878 10.5646C15.0674 10.5711 14.7463 10.5657 14.4029 10.5657C14.3984 10.6549 14.3916 10.7267 14.3916 10.7979C14.3911 11.6457 14.3776 12.494 14.3956 13.3418C14.4102 14.0292 14.134 14.5817 13.6289 15.0358C13.0312 15.5736 12.323 15.8607 11.4991 15.8591C11.2409 15.8586 10.9822 15.8591 10.7078 15.8591C10.7078 10.7598 10.7078 5.67632 10.7078 0.565625C11.1483 0.565625 11.5872 0.553661 12.0244 0.5678C13.4415 0.614024 14.4253 1.59995 14.4332 2.97632C14.4382 3.8513 14.4343 4.72683 14.4343 5.60182C14.4343 5.67578 14.4343 5.74973 14.4343 5.85958C14.7665 5.85958 15.0853 5.85904 15.4041 5.85958C15.7038 5.86013 15.9092 6.00206 16.0226 6.26417C16.0562 6.34248 16.0635 6.43493 16.0669 6.5214C16.0742 6.69161 16.0691 6.86019 16.0691 7.0652ZM11.7359 10.2345C11.75 10.2231 11.7645 10.2111 11.7786 10.1997C11.8437 10.179 11.911 10.1622 11.9739 10.1355C12.0109 10.1198 12.0446 10.0915 12.0743 10.0632C12.4307 9.71952 12.791 9.3791 13.1401 9.02834C13.3191 8.84834 13.3203 8.61831 13.1676 8.46224C12.9998 8.2904 12.759 8.25559 12.5867 8.41493C12.1922 8.77874 11.8022 9.14907 11.439 9.54115C11.361 9.62544 11.352 9.83535 11.4031 9.94792C11.4564 10.0676 11.6203 10.141 11.7359 10.2345ZM11.7241 12.3118C11.86 12.2564 11.961 12.2422 12.0199 12.1868C12.4111 11.8202 12.8006 11.451 13.1755 11.0693C13.3337 10.9083 13.3006 10.6723 13.1384 10.5216C12.9818 10.3759 12.7495 10.3492 12.5884 10.4977C12.1944 10.8615 11.8044 11.2308 11.4407 11.6223C11.3622 11.7071 11.3504 11.9154 11.3998 12.0291C11.4531 12.1487 11.6158 12.2232 11.7241 12.3118ZM12.8892 1.93982C12.7512 2.00127 12.6451 2.02031 12.5806 2.08121C12.1944 2.44339 11.8123 2.80937 11.4413 3.18569C11.2909 3.33849 11.3161 3.56961 11.4632 3.7197C11.6169 3.87632 11.865 3.90949 12.0283 3.75831C12.4223 3.39505 12.8056 3.01982 13.1828 2.6397C13.2967 2.52496 13.3231 2.35638 13.2254 2.22587C13.1395 2.11058 13.0009 2.03173 12.8892 1.93982ZM13.3349 12.8943C13.217 12.7746 13.13 12.6392 13.0043 12.5702C12.8387 12.4788 12.6659 12.5359 12.5284 12.6691C12.1827 13.0041 11.8347 13.3364 11.4929 13.6746C11.301 13.865 11.2959 14.0999 11.4654 14.2706C11.6439 14.4501 11.8908 14.4479 12.0951 14.2538C12.4391 13.927 12.7826 13.599 13.1149 13.2613C13.2007 13.1743 13.2451 13.0482 13.3349 12.8943ZM13.3276 4.48484C13.2204 4.36738 13.1379 4.23088 13.0155 4.1542C12.8623 4.05795 12.6883 4.09928 12.5553 4.22544C12.1922 4.57185 11.8297 4.9188 11.4744 5.27282C11.2954 5.45118 11.3021 5.68937 11.4699 5.8536C11.6473 6.02707 11.8852 6.02871 12.0833 5.84164C12.438 5.50611 12.7893 5.16732 13.1323 4.82091C13.2097 4.7426 13.2467 4.62786 13.3276 4.48484ZM11.7303 8.10877C11.8667 8.04623 11.9711 8.02448 12.0362 7.96357C12.4223 7.60085 12.8056 7.23541 13.1755 6.85801C13.3343 6.69596 13.3029 6.46321 13.1384 6.31094C12.9802 6.16411 12.7484 6.1391 12.589 6.28701C12.1956 6.65191 11.8055 7.02061 11.4418 7.41269C11.3633 7.49753 11.3509 7.70635 11.4009 7.81946C11.4536 7.93964 11.6169 8.01523 11.7303 8.10877Z" fill="#274698"/>
<path d="M2.13162 2.14755C2.13162 1.98006 2.11927 1.84411 2.13611 1.71197C2.14677 1.62768 2.18044 1.49934 2.23769 1.47813C2.32524 1.44604 2.45825 1.46236 2.54412 1.50749C2.68948 1.58417 2.81351 1.69946 2.94596 1.79952C3.29953 2.06544 3.65534 2.32864 4.00442 2.59946C4.26764 2.80339 4.26371 3.08073 3.99937 3.28248C3.53187 3.63813 3.06325 3.99215 2.58958 4.33964C2.51718 4.39293 2.41448 4.43154 2.32524 4.43209C2.19953 4.43317 2.12601 4.35323 2.13106 4.21783C2.13667 4.06338 2.13218 3.90894 2.13218 3.73003C1.75279 3.73003 1.39754 3.73058 1.04228 3.73003C0.916567 3.73003 0.790292 3.73166 0.664578 3.72514C0.481618 3.71589 0.377231 3.61583 0.373302 3.44127C0.365445 3.10955 0.3632 2.77674 0.372741 2.44502C0.378914 2.23728 0.483863 2.1519 0.71621 2.14919C1.10794 2.14429 1.49968 2.14755 1.89141 2.14755C1.96045 2.14755 2.02891 2.14755 2.13162 2.14755Z" fill="#274698"/>
<path d="M18.397 12.6528C18.7596 12.6528 19.1003 12.6528 19.4409 12.6528C20.161 12.6528 20.161 12.6528 20.161 13.3391C20.161 13.5082 20.1649 13.6779 20.1598 13.847C20.1525 14.0983 20.0605 14.1896 19.8001 14.1929C19.4157 14.1978 19.0312 14.1945 18.6468 14.1945C18.5716 14.1945 18.4969 14.1945 18.3976 14.1945C18.3976 14.3745 18.4094 14.53 18.3925 14.6829C18.3841 14.7601 18.342 14.8732 18.2831 14.8966C18.2107 14.9259 18.0844 14.908 18.0176 14.8618C17.5086 14.5045 17.0046 14.139 16.5063 13.7676C16.2627 13.586 16.2711 13.2989 16.5158 13.1123C17.0046 12.7398 17.494 12.3679 17.9918 12.0062C18.0625 11.9546 18.2017 11.9209 18.2685 11.9546C18.3375 11.9894 18.3791 12.1134 18.392 12.2036C18.4122 12.3418 18.397 12.4848 18.397 12.6528Z" fill="#274698"/>
</svg>
