<svg width="72" height="90" viewBox="0 0 72 90" fill="none" xmlns="http://www.w3.org/2000/svg">
<path d="M10.4409 16.4649C8.94684 17.7973 9.61173 19.4258 11.0275 20.8049C12.4434 22.1762 21.744 28.0979 22.5419 28.4485C23.1285 28.7056 24.826 25.4877 24.3488 24.7085C23.8169 23.8358 16.8708 17.883 15.5175 16.948C14.1564 16.013 12.1852 14.8988 10.4409 16.4649Z" fill="#FFA47C"/>
<path d="M12.1539 16.3013C12.9127 16.1922 16.0494 16.8234 17.0819 17.8441C18.5525 19.2855 21.5719 21.8022 21.5719 21.8022C21.5719 21.8022 21.1964 23.306 19.9449 24.6228C18.4899 26.15 17.035 26.485 17.035 26.485C17.035 26.485 10.7929 21.1555 10.2062 19.5894C10.0341 19.1219 10.0576 16.6052 12.1539 16.3013Z" fill="#9A9393"/>
<path d="M8.10205 8.73562C8.10205 8.73562 7.85174 14.4937 7.51538 14.7742C6.4672 15.639 2.67343 16.3792 1.9616 17.883C1.10116 19.7141 5.82578 27.9343 6.44373 30.6535C7.06169 33.3728 5.78667 37.5803 5.37209 40.2451C4.95752 42.9098 13.3742 46.1356 13.6871 46.1356C13.9922 46.1356 16.7065 43.6111 17.2149 42.7384C17.7312 41.8657 17.2228 35.0325 17.2228 33.2949C17.2228 31.5496 17.6295 25.4409 17.7077 25.0436C18.2318 22.3788 17.5435 20.2751 17.4418 19.7063C17.3401 19.1453 17.3714 18.2025 17.082 17.8363C16.5188 17.1194 13.3664 16.1689 13.3195 15.8104C13.2647 15.452 12.8423 10.4576 12.8423 10.4576L8.10205 8.73562Z" fill="#FFBD95"/>
<path d="M7.5232 14.7742L12.5998 17.7895L13.3273 15.8182C13.3273 15.8182 16.6596 17.1272 17.0898 17.8441C17.52 18.5609 17.7312 20.1192 17.872 20.6958C18.0128 21.2724 18.0988 23.9449 17.872 26.2513C17.739 27.607 17.7703 29.3913 17.5669 31.6976C17.387 33.6689 17.606 38.5777 17.606 38.5777C17.606 38.5777 15.7131 38.6556 12.7876 38.5153C9.39271 38.3517 5.96658 37.8374 5.81796 37.7128C5.16089 37.1829 6.06827 31.9392 5.95093 31.3626C5.8336 30.786 1.65653 20.7581 1.59395 19.4414C1.52355 18.1246 2.20409 17.2597 3.19751 16.7688C4.19093 16.2779 7.5232 14.7742 7.5232 14.7742Z" fill="#B8B3B3"/>
<path d="M3.68249 16.5273C3.68249 16.5273 0.381516 18.3505 3.65903 20.875C5.07485 21.9658 11.8489 23.6488 13.1239 24.0384C17.6764 25.4176 10.6599 35.4844 10.1202 36.2402C9.58045 36.9959 9.58827 38.04 9.58827 38.04L6.12303 37.8141C4.76196 38.079 5.91183 31.3236 5.39556 29.9133C4.8793 28.5108 1.5705 20.501 1.5705 19.4414C1.57832 17.0961 3.68249 16.5273 3.68249 16.5273Z" fill="#A39D9D"/>
<path d="M13.0301 12.6314L7.89868 10.7926L7.77353 13.8158L9.35362 14.7742L13.0301 12.6314Z" fill="#FFA47C"/>
<path d="M14.9387 3.69442C13.8201 2.35426 10.2062 0.764761 8.02382 2.97759C5.84142 5.19042 6.31075 7.73829 7.10079 9.37454C7.71875 10.6524 8.38364 11.4082 9.78382 12.2886C10.0732 12.4678 12.7719 13.3249 13.3507 13.208C13.7497 13.1301 14.4146 10.4264 14.5241 10.4498C14.6336 10.4732 14.9621 10.3563 15.0091 10.1303C15.0795 9.81087 15.0012 7.78504 15.1029 7.59025C15.2203 7.39546 16.2137 5.22938 14.9387 3.69442Z" fill="#FFBD95"/>
<path d="M15.5332 5.019C15.5332 5.019 13.5854 3.54638 10.6364 5.57221C10.0028 6.00854 10.7694 8.33825 10.5973 8.50966C10.4174 8.69666 8.73564 6.63187 8.77476 6.889C9.18933 9.51478 8.16462 10.7926 7.92995 10.777C7.21813 10.7303 5.552 6.87341 7.02258 4.13854C8.49316 1.40367 11.6299 1.54392 12.3495 1.80105C13.077 2.05038 15.2907 2.51788 15.5332 5.019Z" fill="#8D3B26"/>
<path d="M9.93246 7.61362C10.0654 8.44733 10.0341 9.55374 9.58045 9.61608C9.12677 9.6862 8.64961 9.06287 8.50881 8.22137C8.37584 7.38767 8.63397 6.64746 9.08766 6.57733C9.54135 6.515 9.79948 6.77991 9.93246 7.61362Z" fill="#FFBD95"/>
<path d="M13.3195 86.6755H10.0341V87.2833H13.3195V86.6755Z" fill="#191919"/>
<path d="M10.1593 82.3823C9.72907 82.9823 9.43965 84.1433 9.39272 84.6809C9.33796 85.3276 9.72907 86.6833 10.1515 86.6833C11.3952 86.6833 12.8736 86.7301 14.1564 86.9015C15.4393 87.0729 15.9164 87.8053 19.1861 87.7975C20.1404 87.7975 21.8222 87.7352 21.8222 87.3456C21.8222 85.6548 18.6855 86.2548 17.6843 85.3432C15.1655 83.029 13.4837 82.468 13.4837 82.468C13.4837 82.468 10.2532 82.2577 10.1593 82.3823Z" fill="#191919"/>
<path d="M8.91554 88.4131L5.63803 88.2105L5.67714 87.5794L8.95466 87.7819L8.91554 88.4131Z" fill="#191919"/>
<path d="M6.09173 83.1615C5.6224 83.7537 5.25476 84.9302 5.17654 85.4756C5.08267 86.1379 5.37991 87.556 5.80231 87.5872C7.03822 87.6651 8.51662 87.8053 9.78382 88.0624C11.051 88.3196 11.4812 89.1065 14.7431 89.3013C15.6974 89.3559 17.4105 89.4026 17.4105 89.0052C17.4105 86.9794 14.352 87.6884 13.4133 86.6833C11.051 84.1432 9.41618 83.4576 9.41618 83.4576C9.41618 83.4576 6.19342 83.0368 6.09173 83.1615Z" fill="#191919"/>
<path d="M11.6612 38.1803C11.6612 38.1803 7.34329 42.193 7.14773 44.0864C6.94435 45.9875 8.7904 52.0572 9.43964 56.8335C10.0889 61.6098 10.4956 62.5759 10.3314 63.7057C10.1671 64.8355 8.74346 69.4014 8.9312 72.4402C9.11111 75.4789 9.72907 83.4264 9.72907 83.4264C9.72907 83.4264 10.6286 83.8316 12.2009 83.9874C13.7732 84.1432 14.8604 82.7875 14.8604 82.7875C14.8604 82.7875 16.1276 65.0303 16.3232 63.1525C16.4562 61.937 17.4496 53.5766 17.7547 46.7511C17.8564 44.5539 17.606 39.4815 17.606 38.5777L11.6612 38.1803Z" fill="#00233F"/>
<path d="M5.52852 37.7751C5.52852 37.7751 4.44124 40.6113 4.47253 42.9644C4.49599 44.8733 5.05137 48.3718 5.70061 53.148C6.34986 57.9243 6.41243 62.3656 6.24817 63.4954C6.0839 64.6252 4.73848 69.4014 4.75413 72.448C4.77759 76.0243 4.47253 84.2601 4.47253 84.2601C4.47253 84.2601 5.89617 84.7276 7.46844 84.8757C9.0407 85.0237 11.1371 84.564 11.1371 84.564C11.1371 84.564 12.6311 65.6614 13.3351 63.9083C14.4693 61.1111 14.6336 52.3143 15.4236 46.3148C15.7365 43.8916 16.3232 38.4919 16.3232 38.4919L5.52852 37.7751Z" fill="#002D56"/>
<path d="M7.46845 37.2687L5.24693 29.516C5.24693 29.516 4.48036 36.4194 5.43467 37.1362C6.38898 37.8452 7.46845 37.2687 7.46845 37.2687Z" fill="#002D56"/>
<path d="M12.3652 16.5896L12.592 17.7895L9.91681 16.2156L12.3652 16.5896Z" fill="#A39D9D"/>
<path d="M6.81921 15.0858L7.77353 13.8158L12.3652 16.5896L11.6377 18.2259L6.81921 15.0858Z" fill="#D7D4D4"/>
<path d="M12.592 17.7895L13.0144 16.3013L13.6558 16.8L12.592 17.7895Z" fill="#A39D9D"/>
<path d="M13.0144 16.3013L14.1095 17.548L14.2738 16.2156L13.3586 15.3429L13.0144 16.3013Z" fill="#CFCCCC"/>
<path d="M17.5748 37.7751C19.2018 36.0999 18.005 22.597 18.005 22.597L11.0119 23.1268L9.53352 37.3622C9.52569 37.3622 15.9243 39.4737 17.5748 37.7751Z" fill="#002D56"/>
<path d="M17.8251 37.3622L17.6139 39.1854C17.6139 39.1854 13.3038 39.4893 9.22845 39.1854C5.1609 38.8815 5.24694 38.601 5.24694 38.601L5.43468 37.1284C5.43468 37.1284 6.6784 37.2453 9.52569 37.3622C12.2948 37.4712 17.8251 37.3622 17.8251 37.3622Z" fill="#004877"/>
<path d="M9.52569 37.3622L8.54791 43.3929L7.46844 37.2687L9.52569 37.3622Z" fill="#00233F"/>
<path d="M11.0119 23.1268C10.8398 21.81 8.78258 16.2156 4.95751 16.3013C4.55858 16.3091 3.69031 16.5273 3.69031 16.5273L5.88835 15.5144C5.88835 15.5144 6.75662 15.1793 8.47751 16.4416C10.2062 17.7116 12.2713 20.6802 12.5216 23.0099C12.7797 25.3396 11.2153 24.7085 11.0119 23.1268Z" fill="#002D56"/>
<path d="M18.005 22.597C18.005 22.597 17.6686 17.7895 16.0025 17.0493C15.2907 16.7299 14.97 16.5351 14.97 16.5351C14.97 16.5351 16.2137 18.8492 16.4875 20.7737C16.7613 22.6983 16.8473 24.0696 17.4809 24.0462C18.1145 24.0228 18.005 22.597 18.005 22.597Z" fill="#002D56"/>
<path d="M3.19751 18.296C1.2576 18.8024 1.07769 20.5088 1.68 22.3243C2.27449 24.1397 7.95342 34.1754 8.54791 34.3857C9.1424 34.5961 11.8176 33.5131 11.888 32.6248C11.9584 31.7366 8.19591 22.3321 7.43715 20.9296C6.6784 19.5271 5.46595 17.696 3.19751 18.296Z" fill="#FFBD95"/>
<path d="M3.792 17.1974C4.53511 17.361 6.74098 18.8726 7.35112 20.1894C8.21938 22.0516 10.8398 26.7733 10.8398 26.7733C10.8398 26.7733 9.95592 28.0511 8.31325 28.8381C6.41245 29.7575 4.93405 29.5549 4.93405 29.5549C4.93405 29.5549 0.983828 22.371 0.99165 20.7036C0.99165 20.2049 1.72693 16.7454 3.792 17.1974Z" fill="#B8B3B3"/>
<path d="M8.28198 33.0144C7.27291 34.939 11.5204 36.7077 13.6324 37.4634C15.7444 38.2192 22.1273 39.8243 22.1273 39.8243L23.066 37.6271C23.066 37.6271 18.1771 34.1442 12.459 31.7522C11.8724 31.5106 9.30669 31.0587 8.28198 33.0144Z" fill="#FFBD95"/>
<path d="M22.7609 37.1674L19.7102 35.4688L18.4117 38.8737L21.5797 39.723L22.7609 37.1674Z" fill="#B8B3B3"/>
<path d="M21.2043 26.1578C20.3673 27.794 24.5052 29.6952 26.6094 30.3575C28.7136 31.0197 35.0496 32.3365 35.0496 32.3365L35.91 30.1081C35.91 30.1081 30.7943 27.0304 24.9902 24.6306C24.1532 24.2956 22.4402 23.7346 21.2043 26.1578Z" fill="#FFA47C"/>
<path d="M38.8434 34.2689C38.9607 34.0663 38.8981 33.8092 38.7026 33.6923L37.1538 32.7573C36.9504 32.6326 36.6923 32.7027 36.5749 32.8975C36.4576 33.0923 36.5202 33.3572 36.7157 33.4741L38.2645 34.4091C38.4601 34.5338 38.7182 34.4715 38.8434 34.2689Z" fill="#A39D9D"/>
<path d="M39.3206 33.6377C39.4379 33.4352 39.3753 33.178 39.1798 33.0612L37.631 32.1262C37.4276 32.0015 37.1694 32.0716 37.0521 32.2664C36.9348 32.4612 36.9974 32.7261 37.1929 32.843L38.7417 33.778C38.9373 33.8949 39.1954 33.8325 39.3206 33.6377Z" fill="#A39D9D"/>
<path d="M39.7429 32.991C39.8603 32.7885 39.7977 32.5313 39.6021 32.4144L38.0533 31.4795C37.8499 31.3548 37.5918 31.4249 37.4745 31.6197C37.3571 31.8145 37.4197 32.0794 37.6153 32.1963L39.1641 33.1313C39.3596 33.256 39.6256 33.1858 39.7429 32.991Z" fill="#A39D9D"/>
<path d="M40.095 32.3287C40.2123 32.1262 40.1497 31.869 39.9542 31.7522L38.4054 30.8172C38.202 30.6925 37.9439 30.7626 37.8265 30.9574C37.7092 31.1522 37.7718 31.4171 37.9673 31.534L39.5161 32.469C39.7117 32.5937 39.9776 32.5235 40.095 32.3287Z" fill="#A39D9D"/>
<path d="M34.3613 29.4848C34.3613 29.4848 37.3337 29.8666 37.8656 30.1081C38.3975 30.3497 40.0871 31.8768 40.0871 31.8768C40.0871 31.8768 39.1015 32.1651 38.8903 32.6482C38.6791 33.1235 38.2645 34.4091 38.2645 34.4091C38.2645 34.4091 36.3637 33.8481 35.605 33.3261C34.8462 32.7962 34.2205 32.1106 34.2205 32.1106L34.3613 29.4848Z" fill="#A39D9D"/>
<path d="M35.5815 29.6562L32.4761 28.0745L31.3027 31.5262L34.502 32.2586L35.5815 29.6562Z" fill="#A39D9D"/>
<path d="M6.70187 4.67617C6.70187 4.67617 7.64054 0.811511 11.7394 1.32576C15.8382 1.84001 15.7757 6.08646 15.7757 6.08646C15.7757 6.08646 13.515 6.26567 10.4722 5.88388C7.42152 5.49429 6.70187 4.67617 6.70187 4.67617Z" fill="#002D56"/>
<path d="M9.13458 5.65792C9.13458 5.65792 17.035 7.86296 17.1524 7.80842C17.2697 7.75387 17.8016 7.40325 18.0441 7.32533C18.2866 7.24742 18.5995 7.52013 18.6855 7.37988C18.7716 7.23963 15.7522 5.72805 15.7522 5.72805C15.7522 5.72805 14.0391 5.90725 13.1943 5.96959C12.3495 6.03192 9.17369 5.38521 9.13458 5.65792Z" fill="#004877"/>
<path d="M21.0713 39.5594C21.0713 39.5594 22.3932 40.7048 23.4336 39.9879C24.474 39.2711 25.0059 37.9154 25.178 37.5959C25.9211 36.2791 27.5403 35.5155 28.1035 34.7831C28.6667 34.0507 28.3538 33.6845 28.0878 33.8793C26.5781 35.0013 25.397 35.2506 24.779 35.8194C24.1611 36.3882 21.4311 37.9076 21.4311 37.9076L21.0713 39.5594Z" fill="#B8B3B3"/>
<path d="M57.7262 22.8307H63.7415V29.89L50.6784 33.8949L57.7262 22.8307Z" fill="#807D79"/>
<path d="M65.7284 9.27324H63.5929V34.2611H65.7284V9.27324Z" fill="#00233F"/>
<path d="M63.5929 16.1611H62.8576L63.3348 9.27324H63.5929V16.1611Z" fill="#65635E"/>
<path d="M62.7269 0.172691L61.4872 21.651L62.6587 21.7181L63.8984 0.239777L62.7269 0.172691Z" fill="#807D79"/>
<path d="M61.9502 21.6308L61.5435 21.6074L62.8185 0.219345L63.2252 0.242719L61.9502 21.6308Z" fill="url(#paint0_linear_122_178)"/>
<path d="M59.9634 22.8307H63.7415V29.89L53.8542 32.9287L59.9634 22.8307Z" fill="#002D56"/>
<path d="M33.1645 89.3403H63.7416V29.89L33.1645 39.2711V89.3403Z" fill="#002D56"/>
<path d="M63.7416 22.8307V68.708L33.1645 80.1305V75.1283C33.1645 75.1283 48.7464 71.3883 54.3862 58.8204C60.026 46.2524 61.5357 22.8385 61.5357 22.8385H63.7416V22.8307Z" fill="#00233F"/>
<path d="M42.8092 67.6951C52.2875 67.6951 59.9712 60.0414 59.9712 50.6002C59.9712 41.1589 52.2875 33.5053 42.8092 33.5053C33.3309 33.5053 25.6473 41.1589 25.6473 50.6002C25.6473 60.0414 33.3309 67.6951 42.8092 67.6951Z" fill="#191919"/>
<path d="M51.9699 59.5194C57.0316 54.4774 57.0316 46.3029 51.9699 41.261C46.9082 36.219 38.7015 36.219 33.6398 41.261C28.5781 46.3029 28.5781 54.4774 33.6398 59.5194C38.7015 64.5613 46.9082 64.5613 51.9699 59.5194Z" fill="black"/>
<path d="M52.7316 57.2426C56.4123 51.7844 54.9541 44.3875 49.4746 40.7211C43.995 37.0547 36.569 38.5072 32.8883 43.9654C29.2075 49.4235 30.6657 56.8205 36.1453 60.4868C41.6249 64.1532 49.0508 62.7007 52.7316 57.2426Z" fill="#46676C"/>
<path d="M42.8093 38.461C36.0743 38.461 30.6144 43.8996 30.6144 50.6082C30.6144 57.3168 36.0743 62.7554 42.8093 62.7554C49.5442 62.7554 55.0041 57.3168 55.0041 50.6082C55.0041 43.8996 49.5442 38.461 42.8093 38.461ZM42.8093 59.6387C37.717 59.6387 33.5869 55.5247 33.5869 50.4524C33.5869 45.38 37.717 41.266 42.8093 41.266C47.9015 41.266 52.0317 45.38 52.0317 50.4524C52.0317 55.5247 47.9015 59.6387 42.8093 59.6387Z" fill="url(#paint1_linear_122_178)"/>
<path d="M42.8093 38.4452C45.4297 38.4764 44.3815 48.7847 44.3815 48.7847C44.3815 48.7847 53.5179 44.398 54.3392 46.7901C55.1684 49.2055 45.1481 51.3404 45.1481 51.3404C45.1481 51.3404 51.9613 58.7736 49.9353 60.3008C47.8859 61.8357 42.559 53.2104 42.559 53.2104C42.559 53.2104 37.7014 61.7266 35.6832 60.3008C33.6729 58.8749 40.1262 51.5196 40.1262 51.5196C40.1262 51.5196 30.458 49.1587 31.2793 46.7978C32.0928 44.4604 41.0493 48.5276 41.0493 48.5276C41.0493 48.5276 40.2436 38.414 42.8093 38.4452Z" fill="url(#paint2_linear_122_178)"/>
<path d="M46.9785 50.608C46.9785 52.9065 45.109 54.7609 42.8093 54.7609C40.5017 54.7609 38.64 52.8987 38.64 50.608C38.64 48.3094 40.5095 46.455 42.8093 46.455C45.109 46.4472 46.9785 48.3094 46.9785 50.608Z" fill="url(#paint3_linear_122_178)"/>
<path d="M41.7533 48.2471C41.7533 48.6289 41.4404 48.9406 41.0571 48.9406C40.6738 48.9406 40.3609 48.6289 40.3609 48.2471C40.3609 47.8653 40.6738 47.5536 41.0571 47.5536C41.4404 47.5536 41.7533 47.8653 41.7533 48.2471Z" fill="#46676C"/>
<path d="M45.3515 48.2471C45.3515 48.6289 45.0386 48.9406 44.6553 48.9406C44.2721 48.9406 43.9592 48.6289 43.9592 48.2471C43.9592 47.8653 44.2721 47.5536 44.6553 47.5536C45.0386 47.5536 45.3515 47.8653 45.3515 48.2471Z" fill="#46676C"/>
<path d="M46.3527 51.3637C46.3527 51.7455 46.0399 52.0572 45.6566 52.0572C45.2733 52.0572 44.9604 51.7455 44.9604 51.3637C44.9604 50.982 45.2733 50.6703 45.6566 50.6703C46.0399 50.6703 46.3527 50.982 46.3527 51.3637Z" fill="#46676C"/>
<path d="M40.6582 51.3637C40.6582 51.7455 40.3453 52.0572 39.962 52.0572C39.5787 52.0572 39.2658 51.7455 39.2658 51.3637C39.2658 50.982 39.5787 50.6703 39.962 50.6703C40.3453 50.6703 40.6582 50.982 40.6582 51.3637Z" fill="#46676C"/>
<path d="M43.396 53.4831C43.396 53.8649 43.0831 54.1765 42.6998 54.1765C42.3165 54.1765 42.0036 53.8649 42.0036 53.4831C42.0036 53.1013 42.3165 52.7896 42.6998 52.7896C43.0831 52.7896 43.396 53.0935 43.396 53.4831Z" fill="#46676C"/>
<path d="M57.1396 73.4998C64.0075 69.456 68.6148 62.0071 68.6148 53.4831C68.6148 40.6424 58.1643 30.2328 45.2733 30.2328C33.4304 30.2328 23.6605 39.014 22.143 50.3976H19.8198C21.3529 37.7439 32.1632 27.9342 45.2733 27.9342C59.4393 27.9342 70.9223 39.3724 70.9223 53.4831C70.9223 63.3239 65.3294 71.8636 57.1396 76.1334V73.4998Z" fill="#3D3D3D"/>
<path d="M26.8597 89.3403H65.8379V64.5394L26.8597 83.1381V89.3403Z" fill="#004877"/>
<path d="M19.4215 51.4136L70.4849 51.4136V49.7774L19.4215 49.7774V51.4136Z" fill="#CFCCCC"/>
<path d="M46.3348 52.777L69.7144 57.427L70.2565 54.7223L46.8769 50.0723L46.3348 52.777Z" fill="#9A9393"/>
<path d="M42.8093 50.3898L46.869 50.0625L46.3293 52.7663L42.6998 50.904L42.8093 50.3898Z" fill="#191919"/>
<path d="M44.7883 50.608C44.7883 51.6988 43.9044 52.5793 42.8093 52.5793C41.7142 52.5793 40.8303 51.6988 40.8303 50.608C40.8303 49.5171 41.7142 48.6367 42.8093 48.6367C43.8966 48.6367 44.7883 49.5171 44.7883 50.608Z" fill="#191919"/>
<path d="M71.376 56.1478C71.376 57.2387 70.4921 58.1191 69.397 58.1191C68.3019 58.1191 67.418 57.2387 67.418 56.1478C67.418 55.057 68.3019 54.1765 69.397 54.1765C70.4921 54.1765 71.376 55.057 71.376 56.1478Z" fill="#191919"/>
<path d="M19.4222 52.5711H22.7153V48.9402H19.4222V52.5711Z" fill="#191919"/>
<path d="M68.1849 53.7127L71.3758 53.262L70.4028 46.4269L67.2119 46.8776L68.1849 53.7127Z" fill="#191919"/>
<defs>
<linearGradient id="paint0_linear_122_178" x1="61.5464" y1="10.927" x2="63.2248" y2="10.927" gradientUnits="userSpaceOnUse">
<stop/>
<stop offset="0.07" stop-color="#313131"/>
<stop offset="0.1581" stop-color="#676767"/>
<stop offset="0.2471" stop-color="#959595"/>
<stop offset="0.3353" stop-color="#BBBBBB"/>
<stop offset="0.4223" stop-color="#D9D9D9"/>
<stop offset="0.508" stop-color="#EEEEEE"/>
<stop offset="0.5916" stop-color="#FBFBFB"/>
<stop offset="0.6709" stop-color="white"/>
</linearGradient>
<linearGradient id="paint1_linear_122_178" x1="42.8078" y1="61.12" x2="42.8078" y2="44.3137" gradientUnits="userSpaceOnUse">
<stop stop-color="#9FB2B2"/>
<stop offset="0.3294" stop-color="#A3B4B4"/>
<stop offset="0.6368" stop-color="#AEBABA"/>
<stop offset="0.9345" stop-color="#C1C3C3"/>
<stop offset="1" stop-color="#C6C6C6"/>
</linearGradient>
<linearGradient id="paint2_linear_122_178" x1="42.8078" y1="58.9993" x2="42.8078" y2="43.756" gradientUnits="userSpaceOnUse">
<stop stop-color="#9FB2B2"/>
<stop offset="0.3294" stop-color="#A3B4B4"/>
<stop offset="0.6368" stop-color="#AEBABA"/>
<stop offset="0.9345" stop-color="#C1C3C3"/>
<stop offset="1" stop-color="#C6C6C6"/>
</linearGradient>
<linearGradient id="paint3_linear_122_178" x1="42.8078" y1="54.2028" x2="42.8078" y2="48.4515" gradientUnits="userSpaceOnUse">
<stop stop-color="#9FB2B2"/>
<stop offset="0.3294" stop-color="#A3B4B4"/>
<stop offset="0.6368" stop-color="#AEBABA"/>
<stop offset="0.9345" stop-color="#C1C3C3"/>
<stop offset="1" stop-color="#C6C6C6"/>
</linearGradient>
</defs>
</svg>
